%TF.GenerationSoftware,KiCad,Pcbnew,(6.0.4-0)*%
%TF.CreationDate,2025-08-27T16:44:19+02:00*%
%TF.ProjectId,FYP_temp,4659505f-7465-46d7-902e-6b696361645f,rev?*%
%TF.SameCoordinates,Original*%
%TF.FileFunction,Copper,L1,Top*%
%TF.FilePolarity,Positive*%
%FSLAX46Y46*%
G04 Gerber Fmt 4.6, Leading zero omitted, Abs format (unit mm)*
G04 Created by KiCad (PCBNEW (6.0.4-0)) date 2025-08-27 16:44:19*
%MOMM*%
%LPD*%
G01*
G04 APERTURE LIST*
G04 Aperture macros list*
%AMRoundRect*
0 Rectangle with rounded corners*
0 $1 Rounding radius*
0 $2 $3 $4 $5 $6 $7 $8 $9 X,Y pos of 4 corners*
0 Add a 4 corners polygon primitive as box body*
4,1,4,$2,$3,$4,$5,$6,$7,$8,$9,$2,$3,0*
0 Add four circle primitives for the rounded corners*
1,1,$1+$1,$2,$3*
1,1,$1+$1,$4,$5*
1,1,$1+$1,$6,$7*
1,1,$1+$1,$8,$9*
0 Add four rect primitives between the rounded corners*
20,1,$1+$1,$2,$3,$4,$5,0*
20,1,$1+$1,$4,$5,$6,$7,0*
20,1,$1+$1,$6,$7,$8,$9,0*
20,1,$1+$1,$8,$9,$2,$3,0*%
G04 Aperture macros list end*
%TA.AperFunction,ComponentPad*%
%ADD10R,1.700000X1.700000*%
%TD*%
%TA.AperFunction,ComponentPad*%
%ADD11O,1.700000X1.700000*%
%TD*%
%TA.AperFunction,SMDPad,CuDef*%
%ADD12RoundRect,0.140000X0.170000X-0.140000X0.170000X0.140000X-0.170000X0.140000X-0.170000X-0.140000X0*%
%TD*%
%TA.AperFunction,SMDPad,CuDef*%
%ADD13RoundRect,0.200000X0.275000X-0.200000X0.275000X0.200000X-0.275000X0.200000X-0.275000X-0.200000X0*%
%TD*%
%TA.AperFunction,SMDPad,CuDef*%
%ADD14RoundRect,0.140000X-0.140000X-0.170000X0.140000X-0.170000X0.140000X0.170000X-0.140000X0.170000X0*%
%TD*%
%TA.AperFunction,SMDPad,CuDef*%
%ADD15RoundRect,0.040000X0.120000X-0.305000X0.120000X0.305000X-0.120000X0.305000X-0.120000X-0.305000X0*%
%TD*%
%TA.AperFunction,SMDPad,CuDef*%
%ADD16R,1.600000X1.000000*%
%TD*%
%TA.AperFunction,ComponentPad*%
%ADD17O,2.200000X1.100000*%
%TD*%
%TA.AperFunction,SMDPad,CuDef*%
%ADD18RoundRect,0.150000X-0.545000X-0.150000X0.545000X-0.150000X0.545000X0.150000X-0.545000X0.150000X0*%
%TD*%
%TA.AperFunction,Conductor*%
%ADD19C,0.250000*%
%TD*%
G04 APERTURE END LIST*
D10*
%TO.P,J_TMP36_TZ1,1,Pin_1*%
%TO.N,GND*%
X47665000Y-28007500D03*
D11*
%TO.P,J_TMP36_TZ1,2,Pin_2*%
%TO.N,Net-(J_TMP36_TZ1-Pad2)*%
X47665000Y-30547500D03*
%TO.P,J_TMP36_TZ1,3,Pin_3*%
%TO.N,Net-(C_361-Pad1)*%
X47665000Y-33087500D03*
%TO.P,J_TMP36_TZ1,4,Pin_4*%
%TO.N,Net-(J_TMP36_TZ1-Pad4)*%
X47665000Y-35627500D03*
%TD*%
D12*
%TO.P,C_362,1*%
%TO.N,Net-(C_362-Pad1)*%
X69730000Y-31000000D03*
%TO.P,C_362,2*%
%TO.N,GND*%
X69730000Y-30040000D03*
%TD*%
D13*
%TO.P,R_alert1,1*%
%TO.N,/VIN_117*%
X38355000Y-37350000D03*
%TO.P,R_alert1,2*%
%TO.N,Net-(J_TMP117-Pad2)*%
X38355000Y-35700000D03*
%TD*%
D14*
%TO.P,C_17,1*%
%TO.N,/VIN_117*%
X34355000Y-37775000D03*
%TO.P,C_17,2*%
%TO.N,GND*%
X35315000Y-37775000D03*
%TD*%
D15*
%TO.P,TMP117,1,SCL*%
%TO.N,Net-(J_TMP117-Pad4)*%
X34705000Y-35295000D03*
%TO.P,TMP117,2,GND*%
%TO.N,GND*%
X35355000Y-35295000D03*
%TO.P,TMP117,3,ALERT*%
%TO.N,Net-(J_TMP117-Pad2)*%
X36005000Y-35295000D03*
%TO.P,TMP117,4,ADD0*%
%TO.N,Net-(JP_ADD0-Pad1)*%
X36005000Y-33255000D03*
%TO.P,TMP117,5,V+*%
%TO.N,/VIN_117*%
X35355000Y-33255000D03*
%TO.P,TMP117,6,SDA*%
%TO.N,Net-(J_TMP117-Pad3)*%
X34705000Y-33255000D03*
D16*
%TO.P,TMP117,7,EXP*%
%TO.N,GND*%
X35355000Y-34275000D03*
%TD*%
D13*
%TO.P,R_PD1,1*%
%TO.N,Net-(J_TMP36_TZ1-Pad2)*%
X56915000Y-34132500D03*
%TO.P,R_PD1,2*%
%TO.N,GND*%
X56915000Y-32482500D03*
%TD*%
D17*
%TO.P,TMP36_9Z1,1,+VS*%
%TO.N,Net-(J_TMP36_9Z1-Pad3)*%
X73750000Y-34250000D03*
%TO.P,TMP36_9Z1,2,VOUT*%
%TO.N,Net-(C_362-Pad1)*%
X73750000Y-32980000D03*
%TO.P,TMP36_9Z1,3,GND*%
%TO.N,GND*%
X73750000Y-31710000D03*
%TD*%
D10*
%TO.P,JP_ADD0,1,Pin_1*%
%TO.N,Net-(JP_ADD0-Pad1)*%
X34630000Y-28025000D03*
D11*
%TO.P,JP_ADD0,2,Pin_2*%
%TO.N,GND*%
X32090000Y-28025000D03*
%TD*%
D18*
%TO.P,TMP36_TZ1,1,VOUT*%
%TO.N,Net-(C_361-Pad1)*%
X52000000Y-32607500D03*
%TO.P,TMP36_TZ1,2,+VS*%
%TO.N,Net-(J_TMP36_TZ1-Pad4)*%
X52000000Y-33557500D03*
%TO.P,TMP36_TZ1,3*%
%TO.N,N/C*%
X52000000Y-34507500D03*
%TO.P,TMP36_TZ1,4,~{SHUTDOWN}*%
%TO.N,Net-(J_TMP36_TZ1-Pad2)*%
X54330000Y-34507500D03*
%TO.P,TMP36_TZ1,5,GND*%
%TO.N,GND*%
X54330000Y-32607500D03*
%TD*%
D13*
%TO.P,R_SCL1,1*%
%TO.N,/VIN_117*%
X31355000Y-37850000D03*
%TO.P,R_SCL1,2*%
%TO.N,Net-(J_TMP117-Pad4)*%
X31355000Y-36200000D03*
%TD*%
%TO.P,R_SDA1,1*%
%TO.N,/VIN_117*%
X31355000Y-33850000D03*
%TO.P,R_SDA1,2*%
%TO.N,Net-(J_TMP117-Pad3)*%
X31355000Y-32200000D03*
%TD*%
D10*
%TO.P,J_TMP117,1,Pin_1*%
%TO.N,GND*%
X27105000Y-27735000D03*
D11*
%TO.P,J_TMP117,2,Pin_2*%
%TO.N,Net-(J_TMP117-Pad2)*%
X27105000Y-30275000D03*
%TO.P,J_TMP117,3,Pin_3*%
%TO.N,Net-(J_TMP117-Pad3)*%
X27105000Y-32815000D03*
%TO.P,J_TMP117,4,Pin_4*%
%TO.N,Net-(J_TMP117-Pad4)*%
X27105000Y-35355000D03*
%TO.P,J_TMP117,5,Pin_5*%
%TO.N,/VIN_117*%
X27105000Y-37895000D03*
%TD*%
D10*
%TO.P,J_TMP36_9Z1,1,Pin_1*%
%TO.N,GND*%
X66250000Y-29455000D03*
D11*
%TO.P,J_TMP36_9Z1,2,Pin_2*%
%TO.N,Net-(C_362-Pad1)*%
X66250000Y-31995000D03*
%TO.P,J_TMP36_9Z1,3,Pin_3*%
%TO.N,Net-(J_TMP36_9Z1-Pad3)*%
X66250000Y-34535000D03*
%TD*%
D14*
%TO.P,C_361,1*%
%TO.N,Net-(C_361-Pad1)*%
X52165000Y-30000000D03*
%TO.P,C_361,2*%
%TO.N,GND*%
X53125000Y-30000000D03*
%TD*%
D19*
%TO.N,/VIN_117*%
X24855000Y-34275000D02*
X24949511Y-34180489D01*
X31024511Y-34180489D02*
X31355000Y-33850000D01*
X24949511Y-34180489D02*
X24949511Y-31930489D01*
X28834771Y-31640489D02*
X29450260Y-31025000D01*
X27105000Y-37895000D02*
X24975000Y-37895000D01*
X37355000Y-39275000D02*
X34355000Y-39275000D01*
X31355000Y-37850000D02*
X31310000Y-37895000D01*
X24975000Y-37895000D02*
X24855000Y-37775000D01*
X34280000Y-37850000D02*
X34355000Y-37775000D01*
X38355000Y-37350000D02*
X38355000Y-38275000D01*
X24855000Y-37775000D02*
X24855000Y-34275000D01*
X35355000Y-31275000D02*
X35355000Y-33255000D01*
X25239511Y-31640489D02*
X28834771Y-31640489D01*
X29450260Y-31025000D02*
X35105000Y-31025000D01*
X35105000Y-31025000D02*
X35355000Y-31275000D01*
X24949511Y-31930489D02*
X25239511Y-31640489D01*
X34355000Y-39275000D02*
X34355000Y-37775000D01*
X31310000Y-37895000D02*
X27105000Y-37895000D01*
X38355000Y-38275000D02*
X37355000Y-39275000D01*
X31355000Y-37850000D02*
X34280000Y-37850000D01*
X24949511Y-34180489D02*
X31024511Y-34180489D01*
%TO.N,GND*%
X53125000Y-29125000D02*
X53000000Y-29000000D01*
X27105000Y-27735000D02*
X31800000Y-27735000D01*
X48657500Y-29000000D02*
X47665000Y-28007500D01*
X56790000Y-32607500D02*
X56915000Y-32482500D01*
X31800000Y-27735000D02*
X32090000Y-28025000D01*
X53125000Y-30000000D02*
X53125000Y-29125000D01*
X35315000Y-37775000D02*
X35315000Y-35335000D01*
X35355000Y-34275000D02*
X35355000Y-35295000D01*
X54330000Y-32607500D02*
X56790000Y-32607500D01*
X53000000Y-29000000D02*
X48657500Y-29000000D01*
%TO.N,Net-(C_361-Pad1)*%
X51665000Y-31557500D02*
X51665000Y-30500000D01*
X51665000Y-31557500D02*
X52000000Y-31892500D01*
X48145000Y-32607500D02*
X52000000Y-32607500D01*
X52000000Y-31892500D02*
X52000000Y-32607500D01*
X47665000Y-33087500D02*
X48145000Y-32607500D01*
X51665000Y-30500000D02*
X52165000Y-30000000D01*
%TO.N,Net-(J_TMP36_TZ1-Pad2)*%
X56540000Y-34507500D02*
X56915000Y-34132500D01*
X54330000Y-34507500D02*
X56540000Y-34507500D01*
X54500000Y-38250000D02*
X54750000Y-38000000D01*
X54750000Y-38000000D02*
X54750000Y-34927500D01*
X44452500Y-30547500D02*
X44000000Y-31000000D01*
X44000000Y-31000000D02*
X44000000Y-37000000D01*
X47665000Y-30547500D02*
X44452500Y-30547500D01*
X54750000Y-34927500D02*
X54330000Y-34507500D01*
X45250000Y-38250000D02*
X54500000Y-38250000D01*
X44000000Y-37000000D02*
X45250000Y-38250000D01*
%TO.N,Net-(C_362-Pad1)*%
X69730000Y-31000000D02*
X69730000Y-31980000D01*
X66250000Y-31995000D02*
X67235000Y-32980000D01*
X68730000Y-32980000D02*
X73750000Y-32980000D01*
X67235000Y-32980000D02*
X68730000Y-32980000D01*
X69730000Y-31980000D02*
X68730000Y-32980000D01*
%TO.N,Net-(JP_ADD0-Pad1)*%
X36005000Y-33255000D02*
X36005000Y-29400000D01*
X36005000Y-29400000D02*
X34630000Y-28025000D01*
%TO.N,Net-(J_TMP36_9Z1-Pad3)*%
X73465000Y-34535000D02*
X73750000Y-34250000D01*
X66250000Y-34535000D02*
X73465000Y-34535000D01*
%TO.N,Net-(J_TMP36_TZ1-Pad4)*%
X49735000Y-33557500D02*
X47665000Y-35627500D01*
X52000000Y-33557500D02*
X49735000Y-33557500D01*
%TO.N,Net-(J_TMP117-Pad2)*%
X28050969Y-31220969D02*
X25065740Y-31220970D01*
X38355000Y-35700000D02*
X36410000Y-35700000D01*
X27105000Y-30275000D02*
X28050969Y-31220969D01*
X24529991Y-34006719D02*
X24435481Y-34101229D01*
X24435481Y-34101229D02*
X24435481Y-37948771D01*
X40755000Y-39027500D02*
X40755000Y-35827500D01*
X39905000Y-39877500D02*
X40755000Y-39027500D01*
X24529992Y-31756718D02*
X24529991Y-34006719D01*
X26364210Y-39877500D02*
X39905000Y-39877500D01*
X24435481Y-37948771D02*
X26364210Y-39877500D01*
X36410000Y-35700000D02*
X36005000Y-35295000D01*
X25065740Y-31220970D02*
X24529992Y-31756718D01*
X40755000Y-35827500D02*
X40627500Y-35700000D01*
X40627500Y-35700000D02*
X38355000Y-35700000D01*
%TO.N,Net-(J_TMP117-Pad3)*%
X33650000Y-32200000D02*
X34705000Y-33255000D01*
X31355000Y-32200000D02*
X33650000Y-32200000D01*
X29065000Y-32815000D02*
X29680000Y-32200000D01*
X27105000Y-32815000D02*
X29065000Y-32815000D01*
X29680000Y-32200000D02*
X31355000Y-32200000D01*
%TO.N,Net-(J_TMP117-Pad4)*%
X33800000Y-36200000D02*
X34705000Y-35295000D01*
X27105000Y-35355000D02*
X30510000Y-35355000D01*
X31355000Y-36200000D02*
X33800000Y-36200000D01*
X30510000Y-35355000D02*
X31355000Y-36200000D01*
%TD*%
%TA.AperFunction,Conductor*%
%TO.N,GND*%
G36*
X76683621Y-22028502D02*
G01*
X76730114Y-22082158D01*
X76741500Y-22134500D01*
X76741500Y-40675418D01*
X76721498Y-40743539D01*
X76667842Y-40790032D01*
X76615965Y-40801417D01*
X25103771Y-40991499D01*
X25103306Y-40991500D01*
X22926000Y-40991500D01*
X22857879Y-40971498D01*
X22811386Y-40917842D01*
X22800000Y-40865500D01*
X22800000Y-34081172D01*
X23797261Y-34081172D01*
X23798007Y-34089064D01*
X23801422Y-34125190D01*
X23801981Y-34137048D01*
X23801981Y-37870004D01*
X23801454Y-37881187D01*
X23799779Y-37888680D01*
X23800028Y-37896606D01*
X23800028Y-37896607D01*
X23801919Y-37956757D01*
X23801981Y-37960716D01*
X23801981Y-37988627D01*
X23802478Y-37992561D01*
X23802478Y-37992562D01*
X23802486Y-37992627D01*
X23803419Y-38004464D01*
X23804808Y-38048660D01*
X23810459Y-38068110D01*
X23814468Y-38087471D01*
X23817007Y-38107568D01*
X23819926Y-38114939D01*
X23819926Y-38114941D01*
X23833285Y-38148683D01*
X23837130Y-38159913D01*
X23846496Y-38192152D01*
X23849463Y-38202364D01*
X23853496Y-38209183D01*
X23853498Y-38209188D01*
X23859774Y-38219799D01*
X23868469Y-38237547D01*
X23875929Y-38256388D01*
X23880591Y-38262804D01*
X23880591Y-38262805D01*
X23901917Y-38292158D01*
X23908433Y-38302078D01*
X23925719Y-38331306D01*
X23930939Y-38340133D01*
X23945260Y-38354454D01*
X23958100Y-38369487D01*
X23970009Y-38385878D01*
X23996210Y-38407553D01*
X24004086Y-38414069D01*
X24012865Y-38422059D01*
X25860553Y-40269747D01*
X25868097Y-40278037D01*
X25872210Y-40284518D01*
X25877987Y-40289943D01*
X25921877Y-40331158D01*
X25924719Y-40333913D01*
X25944441Y-40353635D01*
X25947583Y-40356072D01*
X25947643Y-40356119D01*
X25956655Y-40363817D01*
X25970088Y-40376431D01*
X25988889Y-40394086D01*
X25995832Y-40397903D01*
X26006641Y-40403845D01*
X26023163Y-40414698D01*
X26039169Y-40427114D01*
X26046447Y-40430264D01*
X26046448Y-40430264D01*
X26079747Y-40444674D01*
X26090397Y-40449891D01*
X26129150Y-40471195D01*
X26136825Y-40473166D01*
X26136826Y-40473166D01*
X26148772Y-40476233D01*
X26167477Y-40482637D01*
X26186065Y-40490681D01*
X26193888Y-40491920D01*
X26193898Y-40491923D01*
X26229734Y-40497599D01*
X26241354Y-40500005D01*
X26273169Y-40508173D01*
X26284180Y-40511000D01*
X26304434Y-40511000D01*
X26324144Y-40512551D01*
X26344153Y-40515720D01*
X26352045Y-40514974D01*
X26370790Y-40513202D01*
X26388172Y-40511559D01*
X26400029Y-40511000D01*
X39826233Y-40511000D01*
X39837416Y-40511527D01*
X39844909Y-40513202D01*
X39852835Y-40512953D01*
X39852836Y-40512953D01*
X39912986Y-40511062D01*
X39916945Y-40511000D01*
X39944856Y-40511000D01*
X39948791Y-40510503D01*
X39948856Y-40510495D01*
X39960693Y-40509562D01*
X39992951Y-40508548D01*
X39996970Y-40508422D01*
X40004889Y-40508173D01*
X40024343Y-40502521D01*
X40043700Y-40498513D01*
X40055930Y-40496968D01*
X40055931Y-40496968D01*
X40063797Y-40495974D01*
X40071168Y-40493055D01*
X40071170Y-40493055D01*
X40104912Y-40479696D01*
X40116142Y-40475851D01*
X40150983Y-40465729D01*
X40150984Y-40465729D01*
X40158593Y-40463518D01*
X40165412Y-40459485D01*
X40165417Y-40459483D01*
X40176028Y-40453207D01*
X40193776Y-40444512D01*
X40212617Y-40437052D01*
X40248387Y-40411064D01*
X40258307Y-40404548D01*
X40289535Y-40386080D01*
X40289538Y-40386078D01*
X40296362Y-40382042D01*
X40310683Y-40367721D01*
X40325717Y-40354880D01*
X40327431Y-40353635D01*
X40342107Y-40342972D01*
X40370298Y-40308895D01*
X40378288Y-40300116D01*
X41147247Y-39531157D01*
X41155537Y-39523613D01*
X41162018Y-39519500D01*
X41208659Y-39469832D01*
X41211413Y-39466991D01*
X41231135Y-39447269D01*
X41233612Y-39444076D01*
X41241317Y-39435055D01*
X41266159Y-39408600D01*
X41271586Y-39402821D01*
X41275407Y-39395871D01*
X41281346Y-39385068D01*
X41292202Y-39368541D01*
X41299757Y-39358802D01*
X41299758Y-39358800D01*
X41304614Y-39352540D01*
X41322174Y-39311960D01*
X41327391Y-39301312D01*
X41344875Y-39269509D01*
X41344876Y-39269507D01*
X41348695Y-39262560D01*
X41353733Y-39242937D01*
X41360137Y-39224234D01*
X41365033Y-39212920D01*
X41365033Y-39212919D01*
X41368181Y-39205645D01*
X41369420Y-39197822D01*
X41369423Y-39197812D01*
X41375099Y-39161976D01*
X41377505Y-39150356D01*
X41386528Y-39115211D01*
X41386528Y-39115210D01*
X41388500Y-39107530D01*
X41388500Y-39087276D01*
X41390051Y-39067565D01*
X41391980Y-39055386D01*
X41393220Y-39047557D01*
X41389059Y-39003538D01*
X41388500Y-38991681D01*
X41388500Y-35906267D01*
X41389027Y-35895084D01*
X41390702Y-35887591D01*
X41390206Y-35871792D01*
X41388562Y-35819514D01*
X41388500Y-35815555D01*
X41388500Y-35787644D01*
X41387995Y-35783644D01*
X41387062Y-35771801D01*
X41386925Y-35767425D01*
X41385673Y-35727610D01*
X41380022Y-35708158D01*
X41376014Y-35688806D01*
X41374467Y-35676563D01*
X41373474Y-35668703D01*
X41367749Y-35654242D01*
X41357200Y-35627597D01*
X41353355Y-35616370D01*
X41345421Y-35589062D01*
X41341018Y-35573907D01*
X41336984Y-35567085D01*
X41336981Y-35567079D01*
X41330706Y-35556468D01*
X41322010Y-35538718D01*
X41317472Y-35527256D01*
X41317469Y-35527251D01*
X41314552Y-35519883D01*
X41288573Y-35484125D01*
X41282057Y-35474207D01*
X41271005Y-35455519D01*
X41259542Y-35436137D01*
X41245218Y-35421813D01*
X41232376Y-35406778D01*
X41220472Y-35390393D01*
X41186406Y-35362211D01*
X41177627Y-35354222D01*
X41131152Y-35307747D01*
X41123612Y-35299461D01*
X41119500Y-35292982D01*
X41069848Y-35246356D01*
X41067007Y-35243602D01*
X41047270Y-35223865D01*
X41044073Y-35221385D01*
X41035051Y-35213680D01*
X41002821Y-35183414D01*
X40995875Y-35179595D01*
X40995872Y-35179593D01*
X40985066Y-35173652D01*
X40968547Y-35162801D01*
X40967253Y-35161797D01*
X40952541Y-35150386D01*
X40945272Y-35147241D01*
X40945268Y-35147238D01*
X40911963Y-35132826D01*
X40901313Y-35127609D01*
X40862560Y-35106305D01*
X40842937Y-35101267D01*
X40824234Y-35094863D01*
X40812920Y-35089967D01*
X40812919Y-35089967D01*
X40805645Y-35086819D01*
X40797822Y-35085580D01*
X40797812Y-35085577D01*
X40761976Y-35079901D01*
X40750356Y-35077495D01*
X40715211Y-35068472D01*
X40715210Y-35068472D01*
X40707530Y-35066500D01*
X40687276Y-35066500D01*
X40667565Y-35064949D01*
X40659181Y-35063621D01*
X40647557Y-35061780D01*
X40639665Y-35062526D01*
X40603539Y-35065941D01*
X40591681Y-35066500D01*
X39250710Y-35066500D01*
X39182589Y-35046498D01*
X39161615Y-35029595D01*
X39070381Y-34938361D01*
X38923699Y-34849528D01*
X38916452Y-34847257D01*
X38916450Y-34847256D01*
X38841853Y-34823879D01*
X38760062Y-34798247D01*
X38686635Y-34791500D01*
X38683737Y-34791500D01*
X38354140Y-34791501D01*
X38023366Y-34791501D01*
X38020508Y-34791764D01*
X38020499Y-34791764D01*
X37984996Y-34795026D01*
X37949938Y-34798247D01*
X37943560Y-34800246D01*
X37943559Y-34800246D01*
X37793550Y-34847256D01*
X37793548Y-34847257D01*
X37786301Y-34849528D01*
X37639619Y-34938361D01*
X37548385Y-35029595D01*
X37486073Y-35063621D01*
X37459290Y-35066500D01*
X36799085Y-35066500D01*
X36730964Y-35046498D01*
X36684471Y-34992842D01*
X36673500Y-34948837D01*
X36673500Y-34947386D01*
X36662675Y-34857934D01*
X36664416Y-34857723D01*
X36662464Y-34829881D01*
X36662447Y-34829880D01*
X36662454Y-34829743D01*
X36662385Y-34828753D01*
X36662631Y-34826491D01*
X36663000Y-34819671D01*
X36663000Y-34547115D01*
X36658525Y-34531876D01*
X36657135Y-34530671D01*
X36649452Y-34529000D01*
X36465370Y-34529000D01*
X36403562Y-34512785D01*
X36396792Y-34507646D01*
X36295462Y-34467527D01*
X36264596Y-34455306D01*
X36264594Y-34455305D01*
X36257066Y-34452325D01*
X36167614Y-34441500D01*
X35842386Y-34441500D01*
X35752934Y-34452325D01*
X35745406Y-34455305D01*
X35745404Y-34455306D01*
X35714538Y-34467527D01*
X35613208Y-34507646D01*
X35493505Y-34598505D01*
X35477987Y-34618950D01*
X35455363Y-34648756D01*
X35398246Y-34690923D01*
X35327398Y-34695516D01*
X35265313Y-34661077D01*
X35254637Y-34648756D01*
X35232014Y-34618950D01*
X35216495Y-34598505D01*
X35096792Y-34507646D01*
X34995462Y-34467527D01*
X34964596Y-34455306D01*
X34964594Y-34455305D01*
X34957066Y-34452325D01*
X34867614Y-34441500D01*
X34542386Y-34441500D01*
X34452934Y-34452325D01*
X34445406Y-34455305D01*
X34445404Y-34455306D01*
X34414538Y-34467527D01*
X34313208Y-34507646D01*
X34306438Y-34512785D01*
X34244630Y-34529000D01*
X34065116Y-34529000D01*
X34049877Y-34533475D01*
X34048672Y-34534865D01*
X34047001Y-34542548D01*
X34047001Y-34819670D01*
X34047370Y-34826477D01*
X34047616Y-34828745D01*
X34047546Y-34829736D01*
X34047554Y-34829879D01*
X34047536Y-34829880D01*
X34045577Y-34857722D01*
X34047325Y-34857934D01*
X34036500Y-34947386D01*
X34036500Y-35015405D01*
X34016498Y-35083526D01*
X33999595Y-35104500D01*
X33574500Y-35529595D01*
X33512188Y-35563621D01*
X33485405Y-35566500D01*
X32250710Y-35566500D01*
X32182589Y-35546498D01*
X32161615Y-35529595D01*
X32070381Y-35438361D01*
X31923699Y-35349528D01*
X31916452Y-35347257D01*
X31916450Y-35347256D01*
X31834884Y-35321695D01*
X31760062Y-35298247D01*
X31686635Y-35291500D01*
X31668526Y-35291500D01*
X31394595Y-35291501D01*
X31326476Y-35271499D01*
X31305501Y-35254596D01*
X31071776Y-35020871D01*
X31037750Y-34958559D01*
X31042815Y-34887744D01*
X31085362Y-34830908D01*
X31125715Y-34810780D01*
X31143857Y-34805509D01*
X31163211Y-34801502D01*
X31175441Y-34799957D01*
X31175442Y-34799957D01*
X31183308Y-34798963D01*
X31190679Y-34796044D01*
X31190681Y-34796044D01*
X31224423Y-34782685D01*
X31235653Y-34778840D01*
X31256164Y-34772881D01*
X31278103Y-34766507D01*
X31278298Y-34767177D01*
X31320198Y-34758500D01*
X31650411Y-34758499D01*
X31686634Y-34758499D01*
X31689492Y-34758236D01*
X31689501Y-34758236D01*
X31725579Y-34754921D01*
X31760062Y-34751753D01*
X31766441Y-34749754D01*
X31916450Y-34702744D01*
X31916452Y-34702743D01*
X31923699Y-34700472D01*
X32070381Y-34611639D01*
X32191639Y-34490381D01*
X32280472Y-34343699D01*
X32331753Y-34180062D01*
X32338500Y-34106635D01*
X32338499Y-33593366D01*
X32331753Y-33519938D01*
X32329754Y-33513559D01*
X32282744Y-33363550D01*
X32282743Y-33363548D01*
X32280472Y-33356301D01*
X32191639Y-33209619D01*
X32096115Y-33114095D01*
X32062089Y-33051783D01*
X32067154Y-32980968D01*
X32096115Y-32935905D01*
X32161615Y-32870405D01*
X32223927Y-32836379D01*
X32250710Y-32833500D01*
X33335406Y-32833500D01*
X33403527Y-32853502D01*
X33424501Y-32870405D01*
X33999595Y-33445499D01*
X34033621Y-33507811D01*
X34036500Y-33534594D01*
X34036500Y-33602614D01*
X34046036Y-33681411D01*
X34047325Y-33692066D01*
X34045584Y-33692277D01*
X34047536Y-33720119D01*
X34047553Y-33720120D01*
X34047546Y-33720257D01*
X34047615Y-33721247D01*
X34047369Y-33723509D01*
X34047000Y-33730329D01*
X34047000Y-34002885D01*
X34051475Y-34018124D01*
X34052865Y-34019329D01*
X34060548Y-34021000D01*
X34244630Y-34021000D01*
X34306438Y-34037215D01*
X34313208Y-34042354D01*
X34369749Y-34064740D01*
X34445404Y-34094694D01*
X34445406Y-34094695D01*
X34452934Y-34097675D01*
X34542386Y-34108500D01*
X34867614Y-34108500D01*
X34957066Y-34097675D01*
X34964594Y-34094694D01*
X34964596Y-34094694D01*
X34983617Y-34087163D01*
X35054318Y-34080684D01*
X35076383Y-34087163D01*
X35095404Y-34094694D01*
X35095406Y-34094694D01*
X35102934Y-34097675D01*
X35192386Y-34108500D01*
X35517614Y-34108500D01*
X35607066Y-34097675D01*
X35614594Y-34094694D01*
X35614596Y-34094694D01*
X35633617Y-34087163D01*
X35704318Y-34080684D01*
X35726383Y-34087163D01*
X35745404Y-34094694D01*
X35745406Y-34094694D01*
X35752934Y-34097675D01*
X35842386Y-34108500D01*
X36167614Y-34108500D01*
X36257066Y-34097675D01*
X36264594Y-34094695D01*
X36264596Y-34094694D01*
X36340251Y-34064740D01*
X36396792Y-34042354D01*
X36403562Y-34037215D01*
X36465370Y-34021000D01*
X36644884Y-34021000D01*
X36660123Y-34016525D01*
X36661328Y-34015135D01*
X36662999Y-34007452D01*
X36662999Y-33730330D01*
X36662630Y-33723523D01*
X36662384Y-33721255D01*
X36662454Y-33720264D01*
X36662446Y-33720121D01*
X36662464Y-33720120D01*
X36664423Y-33692278D01*
X36662675Y-33692066D01*
X36663964Y-33681411D01*
X36673500Y-33602614D01*
X36673500Y-32907386D01*
X36662675Y-32817934D01*
X36655610Y-32800088D01*
X36647348Y-32779222D01*
X36638500Y-32732839D01*
X36638500Y-30979943D01*
X43361780Y-30979943D01*
X43362526Y-30987835D01*
X43365941Y-31023961D01*
X43366500Y-31035819D01*
X43366500Y-36921233D01*
X43365973Y-36932416D01*
X43364298Y-36939909D01*
X43364547Y-36947835D01*
X43364547Y-36947836D01*
X43366438Y-37007986D01*
X43366500Y-37011945D01*
X43366500Y-37039856D01*
X43366997Y-37043790D01*
X43366997Y-37043791D01*
X43367005Y-37043856D01*
X43367938Y-37055693D01*
X43369327Y-37099889D01*
X43374978Y-37119339D01*
X43378987Y-37138700D01*
X43381526Y-37158797D01*
X43384445Y-37166168D01*
X43384445Y-37166170D01*
X43397804Y-37199912D01*
X43401649Y-37211142D01*
X43410468Y-37241498D01*
X43413982Y-37253593D01*
X43418015Y-37260412D01*
X43418017Y-37260417D01*
X43424293Y-37271028D01*
X43432988Y-37288776D01*
X43440448Y-37307617D01*
X43445110Y-37314033D01*
X43445110Y-37314034D01*
X43466436Y-37343387D01*
X43472952Y-37353307D01*
X43495458Y-37391362D01*
X43509779Y-37405683D01*
X43522619Y-37420716D01*
X43534528Y-37437107D01*
X43540634Y-37442158D01*
X43568605Y-37465298D01*
X43577384Y-37473288D01*
X44746348Y-38642253D01*
X44753888Y-38650539D01*
X44758000Y-38657018D01*
X44763777Y-38662443D01*
X44807651Y-38703643D01*
X44810493Y-38706398D01*
X44830230Y-38726135D01*
X44833427Y-38728615D01*
X44842447Y-38736318D01*
X44874679Y-38766586D01*
X44881625Y-38770405D01*
X44881628Y-38770407D01*
X44892434Y-38776348D01*
X44908953Y-38787199D01*
X44924959Y-38799614D01*
X44932228Y-38802759D01*
X44932232Y-38802762D01*
X44965537Y-38817174D01*
X44976187Y-38822391D01*
X45014940Y-38843695D01*
X45022615Y-38845666D01*
X45022616Y-38845666D01*
X45034562Y-38848733D01*
X45053267Y-38855137D01*
X45071855Y-38863181D01*
X45079678Y-38864420D01*
X45079688Y-38864423D01*
X45115524Y-38870099D01*
X45127144Y-38872505D01*
X45158959Y-38880673D01*
X45169970Y-38883500D01*
X45190224Y-38883500D01*
X45209934Y-38885051D01*
X45229943Y-38888220D01*
X45237835Y-38887474D01*
X45256580Y-38885702D01*
X45273962Y-38884059D01*
X45285819Y-38883500D01*
X54421233Y-38883500D01*
X54432416Y-38884027D01*
X54439909Y-38885702D01*
X54447835Y-38885453D01*
X54447836Y-38885453D01*
X54507986Y-38883562D01*
X54511945Y-38883500D01*
X54539856Y-38883500D01*
X54543791Y-38883003D01*
X54543856Y-38882995D01*
X54555693Y-38882062D01*
X54587951Y-38881048D01*
X54591970Y-38880922D01*
X54599889Y-38880673D01*
X54619343Y-38875021D01*
X54638700Y-38871013D01*
X54650930Y-38869468D01*
X54650931Y-38869468D01*
X54658797Y-38868474D01*
X54666168Y-38865555D01*
X54666170Y-38865555D01*
X54699912Y-38852196D01*
X54711142Y-38848351D01*
X54745983Y-38838229D01*
X54745984Y-38838229D01*
X54753593Y-38836018D01*
X54760412Y-38831985D01*
X54760417Y-38831983D01*
X54771028Y-38825707D01*
X54788776Y-38817012D01*
X54807617Y-38809552D01*
X54843387Y-38783564D01*
X54853307Y-38777048D01*
X54884535Y-38758580D01*
X54884538Y-38758578D01*
X54891362Y-38754542D01*
X54905683Y-38740221D01*
X54920717Y-38727380D01*
X54930694Y-38720131D01*
X54937107Y-38715472D01*
X54965298Y-38681395D01*
X54973288Y-38672616D01*
X55142247Y-38503657D01*
X55150537Y-38496113D01*
X55157018Y-38492000D01*
X55167504Y-38480834D01*
X55203658Y-38442333D01*
X55206413Y-38439491D01*
X55226134Y-38419770D01*
X55228612Y-38416575D01*
X55236318Y-38407553D01*
X55261158Y-38381101D01*
X55266586Y-38375321D01*
X55276346Y-38357568D01*
X55287199Y-38341045D01*
X55294753Y-38331306D01*
X55299613Y-38325041D01*
X55317176Y-38284457D01*
X55322383Y-38273827D01*
X55343695Y-38235060D01*
X55345666Y-38227383D01*
X55345668Y-38227378D01*
X55348732Y-38215442D01*
X55355138Y-38196730D01*
X55360034Y-38185417D01*
X55363181Y-38178145D01*
X55366974Y-38154202D01*
X55370097Y-38134481D01*
X55372504Y-38122860D01*
X55381528Y-38087711D01*
X55381528Y-38087710D01*
X55383500Y-38080030D01*
X55383500Y-38059769D01*
X55385051Y-38040058D01*
X55386803Y-38029000D01*
X55388219Y-38020057D01*
X55384059Y-37976046D01*
X55383500Y-37964189D01*
X55383500Y-35267000D01*
X55403502Y-35198879D01*
X55457158Y-35152386D01*
X55509500Y-35141000D01*
X56461233Y-35141000D01*
X56472416Y-35141527D01*
X56479909Y-35143202D01*
X56487835Y-35142953D01*
X56487836Y-35142953D01*
X56547986Y-35141062D01*
X56551945Y-35141000D01*
X56579856Y-35141000D01*
X56583791Y-35140503D01*
X56583856Y-35140495D01*
X56595693Y-35139562D01*
X56627951Y-35138548D01*
X56631970Y-35138422D01*
X56639889Y-35138173D01*
X56659343Y-35132521D01*
X56678700Y-35128513D01*
X56690930Y-35126968D01*
X56690931Y-35126968D01*
X56698797Y-35125974D01*
X56706168Y-35123055D01*
X56706170Y-35123055D01*
X56739912Y-35109696D01*
X56751142Y-35105851D01*
X56785983Y-35095729D01*
X56785984Y-35095729D01*
X56793593Y-35093518D01*
X56800412Y-35089485D01*
X56800417Y-35089483D01*
X56811028Y-35083207D01*
X56828776Y-35074512D01*
X56847617Y-35067052D01*
X56854035Y-35062389D01*
X56860979Y-35058572D01*
X56862396Y-35061149D01*
X56924415Y-35041000D01*
X57222743Y-35040999D01*
X57246634Y-35040999D01*
X57249492Y-35040736D01*
X57249501Y-35040736D01*
X57285004Y-35037474D01*
X57320062Y-35034253D01*
X57380206Y-35015405D01*
X57476450Y-34985244D01*
X57476452Y-34985243D01*
X57483699Y-34982972D01*
X57630381Y-34894139D01*
X57751639Y-34772881D01*
X57840472Y-34626199D01*
X57879489Y-34501695D01*
X64887251Y-34501695D01*
X64887548Y-34506848D01*
X64887548Y-34506851D01*
X64892833Y-34598505D01*
X64900110Y-34724715D01*
X64901247Y-34729761D01*
X64901248Y-34729767D01*
X64924042Y-34830908D01*
X64949222Y-34942639D01*
X65000904Y-35069917D01*
X65030662Y-35143202D01*
X65033266Y-35149616D01*
X65054389Y-35184085D01*
X65135108Y-35315807D01*
X65149987Y-35340088D01*
X65296250Y-35508938D01*
X65468126Y-35651632D01*
X65661000Y-35764338D01*
X65665825Y-35766180D01*
X65665826Y-35766181D01*
X65696096Y-35777740D01*
X65869692Y-35844030D01*
X65874760Y-35845061D01*
X65874763Y-35845062D01*
X65982017Y-35866883D01*
X66088597Y-35888567D01*
X66093772Y-35888757D01*
X66093774Y-35888757D01*
X66306673Y-35896564D01*
X66306677Y-35896564D01*
X66311837Y-35896753D01*
X66316957Y-35896097D01*
X66316959Y-35896097D01*
X66528288Y-35869025D01*
X66528289Y-35869025D01*
X66533416Y-35868368D01*
X66538366Y-35866883D01*
X66742429Y-35805661D01*
X66742434Y-35805659D01*
X66747384Y-35804174D01*
X66947994Y-35705896D01*
X67129860Y-35576173D01*
X67156359Y-35549767D01*
X67232183Y-35474207D01*
X67288096Y-35418489D01*
X67303678Y-35396805D01*
X67415435Y-35241277D01*
X67418453Y-35237077D01*
X67420746Y-35232437D01*
X67422446Y-35229608D01*
X67474674Y-35181518D01*
X67530451Y-35168500D01*
X72641117Y-35168500D01*
X72701818Y-35184085D01*
X72771373Y-35222323D01*
X72780995Y-35227613D01*
X72978861Y-35290379D01*
X72984978Y-35291065D01*
X72984982Y-35291066D01*
X73055433Y-35298968D01*
X73140413Y-35308500D01*
X74352237Y-35308500D01*
X74355293Y-35308200D01*
X74355300Y-35308200D01*
X74500466Y-35293966D01*
X74500469Y-35293965D01*
X74506592Y-35293365D01*
X74662293Y-35246357D01*
X74699407Y-35235152D01*
X74699410Y-35235151D01*
X74705315Y-35233368D01*
X74710762Y-35230472D01*
X74883153Y-35138809D01*
X74883155Y-35138808D01*
X74888599Y-35135913D01*
X74957277Y-35079901D01*
X75044689Y-35008610D01*
X75044692Y-35008607D01*
X75049464Y-35004715D01*
X75059287Y-34992842D01*
X75177855Y-34849518D01*
X75181783Y-34844770D01*
X75185220Y-34838414D01*
X75277584Y-34667590D01*
X75277586Y-34667585D01*
X75280514Y-34662170D01*
X75341898Y-34463871D01*
X75353846Y-34350196D01*
X75362952Y-34263554D01*
X75362952Y-34263552D01*
X75363596Y-34257425D01*
X75352100Y-34131104D01*
X75345341Y-34056836D01*
X75345340Y-34056833D01*
X75344782Y-34050697D01*
X75342062Y-34041453D01*
X75287912Y-33857469D01*
X75286173Y-33851560D01*
X75227788Y-33739879D01*
X75192326Y-33672047D01*
X75178492Y-33602412D01*
X75193152Y-33553744D01*
X75248866Y-33450702D01*
X75280514Y-33392170D01*
X75341898Y-33193871D01*
X75350889Y-33108327D01*
X75362952Y-32993554D01*
X75362952Y-32993552D01*
X75363596Y-32987425D01*
X75349588Y-32833500D01*
X75345341Y-32786836D01*
X75345340Y-32786833D01*
X75344782Y-32780697D01*
X75336017Y-32750914D01*
X75287912Y-32587469D01*
X75286173Y-32581560D01*
X75192046Y-32401512D01*
X75178212Y-32331877D01*
X75192872Y-32283209D01*
X75277121Y-32127393D01*
X75281871Y-32116093D01*
X75323595Y-31981307D01*
X75323801Y-31967205D01*
X75317045Y-31964000D01*
X74617497Y-31964000D01*
X74579399Y-31958102D01*
X74527012Y-31941484D01*
X74521139Y-31939621D01*
X74515022Y-31938935D01*
X74515018Y-31938934D01*
X74430115Y-31929411D01*
X74359587Y-31921500D01*
X73147763Y-31921500D01*
X73144707Y-31921800D01*
X73144700Y-31921800D01*
X72999534Y-31936034D01*
X72999531Y-31936035D01*
X72993408Y-31936635D01*
X72939379Y-31952947D01*
X72920582Y-31958622D01*
X72884165Y-31964000D01*
X72189953Y-31964000D01*
X72176422Y-31967973D01*
X72175302Y-31975768D01*
X72212554Y-32102342D01*
X72217149Y-32113714D01*
X72242457Y-32162124D01*
X72256292Y-32231760D01*
X72230282Y-32297821D01*
X72172687Y-32339333D01*
X72130796Y-32346500D01*
X70453489Y-32346500D01*
X70385368Y-32326498D01*
X70338875Y-32272842D01*
X70328771Y-32202568D01*
X70337851Y-32170461D01*
X70339510Y-32166629D01*
X70343181Y-32158145D01*
X70344420Y-32150322D01*
X70344423Y-32150312D01*
X70350099Y-32114476D01*
X70352505Y-32102856D01*
X70361528Y-32067711D01*
X70361528Y-32067710D01*
X70363500Y-32060030D01*
X70363500Y-32039776D01*
X70365051Y-32020065D01*
X70366980Y-32007886D01*
X70368220Y-32000057D01*
X70364059Y-31956038D01*
X70363500Y-31944181D01*
X70363500Y-31645807D01*
X70383502Y-31577686D01*
X70400405Y-31556712D01*
X70416488Y-31540629D01*
X70442048Y-31497409D01*
X70468433Y-31452795D01*
X72176199Y-31452795D01*
X72182955Y-31456000D01*
X73477885Y-31456000D01*
X73493124Y-31451525D01*
X73494329Y-31450135D01*
X73496000Y-31442452D01*
X73496000Y-31437885D01*
X74004000Y-31437885D01*
X74008475Y-31453124D01*
X74009865Y-31454329D01*
X74017548Y-31456000D01*
X75310047Y-31456000D01*
X75323578Y-31452027D01*
X75324698Y-31444232D01*
X75287446Y-31317658D01*
X75282853Y-31306290D01*
X75192434Y-31133334D01*
X75185718Y-31123072D01*
X75063432Y-30970980D01*
X75054848Y-30962214D01*
X74905344Y-30836764D01*
X74895233Y-30829840D01*
X74724202Y-30735816D01*
X74712938Y-30730988D01*
X74526905Y-30671975D01*
X74514916Y-30669427D01*
X74363053Y-30652393D01*
X74356029Y-30652000D01*
X74022115Y-30652000D01*
X74006876Y-30656475D01*
X74005671Y-30657865D01*
X74004000Y-30665548D01*
X74004000Y-31437885D01*
X73496000Y-31437885D01*
X73496000Y-30670115D01*
X73491525Y-30654876D01*
X73490135Y-30653671D01*
X73482452Y-30652000D01*
X73150876Y-30652000D01*
X73144728Y-30652301D01*
X72999639Y-30666527D01*
X72987604Y-30668910D01*
X72800777Y-30725317D01*
X72789435Y-30729992D01*
X72617121Y-30821612D01*
X72606905Y-30828399D01*
X72455665Y-30951747D01*
X72446961Y-30960391D01*
X72322562Y-31110763D01*
X72315703Y-31120931D01*
X72222879Y-31292607D01*
X72218129Y-31303907D01*
X72176405Y-31438693D01*
X72176199Y-31452795D01*
X70468433Y-31452795D01*
X70495859Y-31406420D01*
X70495859Y-31406419D01*
X70499894Y-31399597D01*
X70506861Y-31375618D01*
X70537635Y-31269689D01*
X70545606Y-31242254D01*
X70547523Y-31217905D01*
X70548307Y-31207940D01*
X70548307Y-31207932D01*
X70548500Y-31205484D01*
X70548500Y-30794516D01*
X70547717Y-30784562D01*
X70546111Y-30764156D01*
X70546110Y-30764151D01*
X70545606Y-30757746D01*
X70514628Y-30651117D01*
X70502106Y-30608016D01*
X70502105Y-30608014D01*
X70499894Y-30600403D01*
X70492544Y-30587975D01*
X70489985Y-30583647D01*
X70472526Y-30514830D01*
X70489984Y-30455372D01*
X70495395Y-30446222D01*
X70501643Y-30431784D01*
X70536619Y-30311395D01*
X70536579Y-30297295D01*
X70529309Y-30294000D01*
X70251379Y-30294000D01*
X70187240Y-30276454D01*
X70166420Y-30264141D01*
X70166419Y-30264141D01*
X70159597Y-30260106D01*
X70151986Y-30257895D01*
X70151984Y-30257894D01*
X70096225Y-30241695D01*
X70002254Y-30214394D01*
X69995849Y-30213890D01*
X69995844Y-30213889D01*
X69967940Y-30211693D01*
X69967932Y-30211693D01*
X69965484Y-30211500D01*
X69494516Y-30211500D01*
X69492068Y-30211693D01*
X69492060Y-30211693D01*
X69464156Y-30213889D01*
X69464151Y-30213890D01*
X69457746Y-30214394D01*
X69363775Y-30241695D01*
X69308016Y-30257894D01*
X69308014Y-30257895D01*
X69300403Y-30260106D01*
X69293581Y-30264141D01*
X69293580Y-30264141D01*
X69272760Y-30276454D01*
X69208621Y-30294000D01*
X68936442Y-30294000D01*
X68922911Y-30297973D01*
X68921776Y-30305871D01*
X68958357Y-30431784D01*
X68964605Y-30446222D01*
X68970016Y-30455372D01*
X68987474Y-30524188D01*
X68970015Y-30583647D01*
X68967456Y-30587975D01*
X68960106Y-30600403D01*
X68957895Y-30608014D01*
X68957894Y-30608016D01*
X68945372Y-30651117D01*
X68914394Y-30757746D01*
X68913890Y-30764151D01*
X68913889Y-30764156D01*
X68912283Y-30784562D01*
X68911500Y-30794516D01*
X68911500Y-31205484D01*
X68911693Y-31207932D01*
X68911693Y-31207940D01*
X68912478Y-31217905D01*
X68914394Y-31242254D01*
X68922365Y-31269689D01*
X68953140Y-31375618D01*
X68960106Y-31399597D01*
X68964141Y-31406419D01*
X68964141Y-31406420D01*
X69017952Y-31497409D01*
X69043512Y-31540629D01*
X69059595Y-31556712D01*
X69093621Y-31619024D01*
X69096500Y-31645807D01*
X69096500Y-31665405D01*
X69076498Y-31733526D01*
X69059595Y-31754501D01*
X68504499Y-32309596D01*
X68442187Y-32343621D01*
X68415404Y-32346500D01*
X67717695Y-32346500D01*
X67649574Y-32326498D01*
X67603081Y-32272842D01*
X67592773Y-32204053D01*
X67604566Y-32114476D01*
X67611529Y-32061590D01*
X67612976Y-32002387D01*
X67613074Y-31998365D01*
X67613074Y-31998361D01*
X67613156Y-31995000D01*
X67594852Y-31772361D01*
X67540431Y-31555702D01*
X67451354Y-31350840D01*
X67370267Y-31225499D01*
X67332822Y-31167617D01*
X67332820Y-31167614D01*
X67330014Y-31163277D01*
X67326540Y-31159459D01*
X67326533Y-31159450D01*
X67182435Y-31001088D01*
X67151383Y-30937242D01*
X67159779Y-30866744D01*
X67204956Y-30811976D01*
X67231400Y-30798307D01*
X67338052Y-30758325D01*
X67353649Y-30749786D01*
X67455724Y-30673285D01*
X67468285Y-30660724D01*
X67544786Y-30558649D01*
X67553324Y-30543054D01*
X67598478Y-30422606D01*
X67602105Y-30407351D01*
X67607631Y-30356486D01*
X67608000Y-30349672D01*
X67608000Y-29768605D01*
X68923381Y-29768605D01*
X68923421Y-29782705D01*
X68930691Y-29786000D01*
X69457885Y-29786000D01*
X69473124Y-29781525D01*
X69474329Y-29780135D01*
X69476000Y-29772452D01*
X69476000Y-29767885D01*
X69984000Y-29767885D01*
X69988475Y-29783124D01*
X69989865Y-29784329D01*
X69997548Y-29786000D01*
X70523558Y-29786000D01*
X70537089Y-29782027D01*
X70538224Y-29774129D01*
X70501643Y-29648216D01*
X70495396Y-29633780D01*
X70420124Y-29506501D01*
X70410484Y-29494074D01*
X70305926Y-29389516D01*
X70293499Y-29379876D01*
X70166220Y-29304604D01*
X70151784Y-29298357D01*
X70008359Y-29256688D01*
X70000391Y-29255232D01*
X69986969Y-29258052D01*
X69984000Y-29269513D01*
X69984000Y-29767885D01*
X69476000Y-29767885D01*
X69476000Y-29271576D01*
X69471656Y-29256781D01*
X69461225Y-29254937D01*
X69451641Y-29256688D01*
X69308216Y-29298357D01*
X69293780Y-29304604D01*
X69166501Y-29379876D01*
X69154074Y-29389516D01*
X69049516Y-29494074D01*
X69039876Y-29506501D01*
X68964604Y-29633780D01*
X68958357Y-29648216D01*
X68923381Y-29768605D01*
X67608000Y-29768605D01*
X67608000Y-29727115D01*
X67603525Y-29711876D01*
X67602135Y-29710671D01*
X67594452Y-29709000D01*
X64910116Y-29709000D01*
X64894877Y-29713475D01*
X64893672Y-29714865D01*
X64892001Y-29722548D01*
X64892001Y-30349669D01*
X64892371Y-30356490D01*
X64897895Y-30407352D01*
X64901521Y-30422604D01*
X64946676Y-30543054D01*
X64955214Y-30558649D01*
X65031715Y-30660724D01*
X65044276Y-30673285D01*
X65146351Y-30749786D01*
X65161946Y-30758324D01*
X65270827Y-30799142D01*
X65327591Y-30841784D01*
X65352291Y-30908345D01*
X65337083Y-30977694D01*
X65317691Y-31004175D01*
X65206117Y-31120931D01*
X65190629Y-31137138D01*
X65187715Y-31141410D01*
X65187714Y-31141411D01*
X65142331Y-31207940D01*
X65064743Y-31321680D01*
X65033798Y-31388346D01*
X64975139Y-31514717D01*
X64970688Y-31524305D01*
X64910989Y-31739570D01*
X64887251Y-31961695D01*
X64887548Y-31966848D01*
X64887548Y-31966851D01*
X64895360Y-32102342D01*
X64900110Y-32184715D01*
X64901247Y-32189761D01*
X64901248Y-32189767D01*
X64920229Y-32273989D01*
X64949222Y-32402639D01*
X65033266Y-32609616D01*
X65040731Y-32621797D01*
X65134483Y-32774787D01*
X65149987Y-32800088D01*
X65296250Y-32968938D01*
X65468126Y-33111632D01*
X65475728Y-33116074D01*
X65541445Y-33154476D01*
X65590169Y-33206114D01*
X65603240Y-33275897D01*
X65576509Y-33341669D01*
X65536055Y-33375027D01*
X65523607Y-33381507D01*
X65519474Y-33384610D01*
X65519471Y-33384612D01*
X65349100Y-33512530D01*
X65344965Y-33515635D01*
X65341393Y-33519373D01*
X65195828Y-33671698D01*
X65190629Y-33677138D01*
X65187715Y-33681410D01*
X65187714Y-33681411D01*
X65123062Y-33776187D01*
X65064743Y-33861680D01*
X65023425Y-33950693D01*
X64976692Y-34051371D01*
X64970688Y-34064305D01*
X64910989Y-34279570D01*
X64887251Y-34501695D01*
X57879489Y-34501695D01*
X57891753Y-34462562D01*
X57898500Y-34389135D01*
X57898499Y-33875866D01*
X57896971Y-33859228D01*
X57892364Y-33809092D01*
X57891753Y-33802438D01*
X57877649Y-33757432D01*
X57842744Y-33646050D01*
X57842743Y-33646048D01*
X57840472Y-33638801D01*
X57751639Y-33492119D01*
X57655761Y-33396241D01*
X57621735Y-33333929D01*
X57626800Y-33263114D01*
X57655761Y-33218051D01*
X57745869Y-33127943D01*
X57755176Y-33116074D01*
X57836079Y-32982488D01*
X57842285Y-32968743D01*
X57889256Y-32818856D01*
X57891869Y-32805806D01*
X57896913Y-32750914D01*
X57893525Y-32739376D01*
X57892135Y-32738171D01*
X57884452Y-32736500D01*
X55950116Y-32736500D01*
X55934877Y-32740975D01*
X55933672Y-32742365D01*
X55932709Y-32746794D01*
X55938132Y-32805815D01*
X55940743Y-32818851D01*
X55987715Y-32968743D01*
X55993921Y-32982488D01*
X56074824Y-33116074D01*
X56084131Y-33127943D01*
X56174239Y-33218051D01*
X56208265Y-33280363D01*
X56203200Y-33351178D01*
X56174239Y-33396241D01*
X56078361Y-33492119D01*
X55989528Y-33638801D01*
X55987257Y-33646048D01*
X55987256Y-33646050D01*
X55943499Y-33785679D01*
X55904041Y-33844701D01*
X55838938Y-33873021D01*
X55823265Y-33874000D01*
X55374950Y-33874000D01*
X55306829Y-33853998D01*
X55293729Y-33843441D01*
X55293675Y-33843511D01*
X55287415Y-33838655D01*
X55281807Y-33833047D01*
X55274983Y-33829011D01*
X55274980Y-33829009D01*
X55145427Y-33752392D01*
X55145428Y-33752392D01*
X55138601Y-33748355D01*
X55130990Y-33746144D01*
X55130988Y-33746143D01*
X55060642Y-33725706D01*
X54978831Y-33701938D01*
X54972426Y-33701434D01*
X54972421Y-33701433D01*
X54943958Y-33699193D01*
X54943950Y-33699193D01*
X54941502Y-33699000D01*
X53718498Y-33699000D01*
X53716050Y-33699193D01*
X53716042Y-33699193D01*
X53687579Y-33701433D01*
X53687574Y-33701434D01*
X53681169Y-33701938D01*
X53599358Y-33725706D01*
X53529012Y-33746143D01*
X53529010Y-33746144D01*
X53521399Y-33748355D01*
X53393637Y-33823914D01*
X53324823Y-33841372D01*
X53257492Y-33818855D01*
X53213022Y-33763511D01*
X53203500Y-33715459D01*
X53203500Y-33398961D01*
X53223502Y-33330840D01*
X53277158Y-33284347D01*
X53347432Y-33274243D01*
X53393639Y-33290507D01*
X53514779Y-33362148D01*
X53529210Y-33368393D01*
X53675065Y-33410769D01*
X53687667Y-33413070D01*
X53716084Y-33415307D01*
X53721014Y-33415500D01*
X54057885Y-33415500D01*
X54073124Y-33411025D01*
X54074329Y-33409635D01*
X54076000Y-33401952D01*
X54076000Y-33397384D01*
X54584000Y-33397384D01*
X54588475Y-33412623D01*
X54589865Y-33413828D01*
X54597548Y-33415499D01*
X54938984Y-33415499D01*
X54943920Y-33415305D01*
X54972336Y-33413070D01*
X54984931Y-33410770D01*
X55130790Y-33368393D01*
X55145221Y-33362148D01*
X55274678Y-33285589D01*
X55287104Y-33275949D01*
X55393449Y-33169604D01*
X55403089Y-33157178D01*
X55479648Y-33027721D01*
X55485893Y-33013290D01*
X55524939Y-32878895D01*
X55524899Y-32864794D01*
X55517630Y-32861500D01*
X54602115Y-32861500D01*
X54586876Y-32865975D01*
X54585671Y-32867365D01*
X54584000Y-32875048D01*
X54584000Y-33397384D01*
X54076000Y-33397384D01*
X54076000Y-32335385D01*
X54584000Y-32335385D01*
X54588475Y-32350624D01*
X54589865Y-32351829D01*
X54597548Y-32353500D01*
X55511878Y-32353500D01*
X55525409Y-32349527D01*
X55526544Y-32341629D01*
X55489489Y-32214086D01*
X55933087Y-32214086D01*
X55936475Y-32225624D01*
X55937865Y-32226829D01*
X55945548Y-32228500D01*
X56642885Y-32228500D01*
X56658124Y-32224025D01*
X56659329Y-32222635D01*
X56661000Y-32214952D01*
X56661000Y-32210385D01*
X57169000Y-32210385D01*
X57173475Y-32225624D01*
X57174865Y-32226829D01*
X57182548Y-32228500D01*
X57879884Y-32228500D01*
X57895123Y-32224025D01*
X57896328Y-32222635D01*
X57897291Y-32218206D01*
X57891868Y-32159185D01*
X57889257Y-32146149D01*
X57842285Y-31996257D01*
X57836079Y-31982512D01*
X57755176Y-31848926D01*
X57745869Y-31837057D01*
X57635443Y-31726631D01*
X57623574Y-31717324D01*
X57489988Y-31636421D01*
X57476243Y-31630215D01*
X57326356Y-31583244D01*
X57313306Y-31580631D01*
X57249479Y-31574766D01*
X57243691Y-31574500D01*
X57187115Y-31574500D01*
X57171876Y-31578975D01*
X57170671Y-31580365D01*
X57169000Y-31588048D01*
X57169000Y-32210385D01*
X56661000Y-32210385D01*
X56661000Y-31592616D01*
X56656525Y-31577377D01*
X56655135Y-31576172D01*
X56647452Y-31574501D01*
X56586295Y-31574501D01*
X56580546Y-31574764D01*
X56516685Y-31580632D01*
X56503649Y-31583243D01*
X56353757Y-31630215D01*
X56340012Y-31636421D01*
X56206426Y-31717324D01*
X56194557Y-31726631D01*
X56084131Y-31837057D01*
X56074824Y-31848926D01*
X55993921Y-31982512D01*
X55987715Y-31996257D01*
X55940744Y-32146144D01*
X55938131Y-32159194D01*
X55933087Y-32214086D01*
X55489489Y-32214086D01*
X55485893Y-32201710D01*
X55479648Y-32187279D01*
X55403089Y-32057822D01*
X55393449Y-32045396D01*
X55287104Y-31939051D01*
X55274678Y-31929411D01*
X55145221Y-31852852D01*
X55130790Y-31846607D01*
X54984935Y-31804231D01*
X54972333Y-31801930D01*
X54943916Y-31799693D01*
X54938986Y-31799500D01*
X54602115Y-31799500D01*
X54586876Y-31803975D01*
X54585671Y-31805365D01*
X54584000Y-31813048D01*
X54584000Y-32335385D01*
X54076000Y-32335385D01*
X54076000Y-31817616D01*
X54071525Y-31802377D01*
X54070135Y-31801172D01*
X54062452Y-31799501D01*
X53721017Y-31799501D01*
X53716080Y-31799695D01*
X53687664Y-31801930D01*
X53675069Y-31804230D01*
X53529210Y-31846607D01*
X53514779Y-31852852D01*
X53385322Y-31929411D01*
X53372896Y-31939051D01*
X53266557Y-32045390D01*
X53264880Y-32047552D01*
X53263134Y-32048813D01*
X53260945Y-32051002D01*
X53260592Y-32050649D01*
X53207324Y-32089119D01*
X53136432Y-32092971D01*
X53074711Y-32057884D01*
X53071545Y-32054230D01*
X53069453Y-32050693D01*
X52951807Y-31933047D01*
X52944983Y-31929011D01*
X52944980Y-31929009D01*
X52815427Y-31852392D01*
X52815428Y-31852392D01*
X52808601Y-31848355D01*
X52800990Y-31846144D01*
X52800988Y-31846143D01*
X52702866Y-31817636D01*
X52643030Y-31779423D01*
X52618901Y-31733533D01*
X52618474Y-31733702D01*
X52616902Y-31729731D01*
X52616899Y-31729726D01*
X52614502Y-31723670D01*
X52602200Y-31692598D01*
X52598355Y-31681368D01*
X52588230Y-31646517D01*
X52588230Y-31646516D01*
X52586019Y-31638907D01*
X52575705Y-31621466D01*
X52567008Y-31603713D01*
X52562472Y-31592258D01*
X52559552Y-31584883D01*
X52533563Y-31549112D01*
X52527047Y-31539192D01*
X52518243Y-31524305D01*
X52504542Y-31501138D01*
X52498938Y-31495533D01*
X52490220Y-31486815D01*
X52477379Y-31471781D01*
X52470131Y-31461805D01*
X52470130Y-31461804D01*
X52465472Y-31455393D01*
X52431401Y-31427207D01*
X52422622Y-31419218D01*
X52335405Y-31332001D01*
X52301379Y-31269689D01*
X52298500Y-31242906D01*
X52298500Y-30939874D01*
X52318502Y-30871753D01*
X52372158Y-30825260D01*
X52401411Y-30816066D01*
X52407254Y-30815606D01*
X52413432Y-30813811D01*
X52413433Y-30813811D01*
X52556984Y-30772106D01*
X52556986Y-30772105D01*
X52564597Y-30769894D01*
X52573598Y-30764571D01*
X52581353Y-30759985D01*
X52650170Y-30742526D01*
X52709628Y-30759984D01*
X52718778Y-30765395D01*
X52733216Y-30771643D01*
X52853605Y-30806619D01*
X52867705Y-30806579D01*
X52871000Y-30799309D01*
X52871000Y-30793558D01*
X53379000Y-30793558D01*
X53382973Y-30807089D01*
X53390871Y-30808224D01*
X53516784Y-30771643D01*
X53531220Y-30765396D01*
X53658499Y-30690124D01*
X53670926Y-30680484D01*
X53775484Y-30575926D01*
X53785124Y-30563499D01*
X53860396Y-30436220D01*
X53866643Y-30421784D01*
X53908312Y-30278359D01*
X53909768Y-30270391D01*
X53906948Y-30256969D01*
X53895487Y-30254000D01*
X53397115Y-30254000D01*
X53381876Y-30258475D01*
X53380671Y-30259865D01*
X53379000Y-30267548D01*
X53379000Y-30793558D01*
X52871000Y-30793558D01*
X52871000Y-30521379D01*
X52888546Y-30457240D01*
X52900859Y-30436420D01*
X52900859Y-30436419D01*
X52904894Y-30429597D01*
X52909923Y-30412289D01*
X52926133Y-30356490D01*
X52950606Y-30272254D01*
X52951563Y-30260106D01*
X52953307Y-30237940D01*
X52953307Y-30237932D01*
X52953500Y-30235484D01*
X52953500Y-29764516D01*
X52952043Y-29746000D01*
X52951111Y-29734156D01*
X52951110Y-29734151D01*
X52950617Y-29727885D01*
X53379000Y-29727885D01*
X53383475Y-29743124D01*
X53384865Y-29744329D01*
X53392548Y-29746000D01*
X53893424Y-29746000D01*
X53908219Y-29741656D01*
X53910063Y-29731225D01*
X53908312Y-29721641D01*
X53866643Y-29578216D01*
X53860396Y-29563780D01*
X53785124Y-29436501D01*
X53775484Y-29424074D01*
X53670926Y-29319516D01*
X53658499Y-29309876D01*
X53531220Y-29234604D01*
X53516784Y-29228357D01*
X53396395Y-29193381D01*
X53382295Y-29193421D01*
X53379000Y-29200691D01*
X53379000Y-29727885D01*
X52950617Y-29727885D01*
X52950606Y-29727746D01*
X52904894Y-29570403D01*
X52888546Y-29542760D01*
X52871000Y-29478621D01*
X52871000Y-29206442D01*
X52867027Y-29192911D01*
X52859129Y-29191776D01*
X52733216Y-29228357D01*
X52718778Y-29234605D01*
X52709628Y-29240016D01*
X52640812Y-29257474D01*
X52581353Y-29240015D01*
X52571423Y-29234143D01*
X52571424Y-29234143D01*
X52564597Y-29230106D01*
X52556986Y-29227895D01*
X52556984Y-29227894D01*
X52483144Y-29206442D01*
X52407254Y-29184394D01*
X52400849Y-29183890D01*
X52400844Y-29183889D01*
X52388086Y-29182885D01*
X64892000Y-29182885D01*
X64896475Y-29198124D01*
X64897865Y-29199329D01*
X64905548Y-29201000D01*
X65977885Y-29201000D01*
X65993124Y-29196525D01*
X65994329Y-29195135D01*
X65996000Y-29187452D01*
X65996000Y-29182885D01*
X66504000Y-29182885D01*
X66508475Y-29198124D01*
X66509865Y-29199329D01*
X66517548Y-29201000D01*
X67589884Y-29201000D01*
X67605123Y-29196525D01*
X67606328Y-29195135D01*
X67607999Y-29187452D01*
X67607999Y-28560331D01*
X67607629Y-28553510D01*
X67602105Y-28502648D01*
X67598479Y-28487396D01*
X67553324Y-28366946D01*
X67544786Y-28351351D01*
X67468285Y-28249276D01*
X67455724Y-28236715D01*
X67353649Y-28160214D01*
X67338054Y-28151676D01*
X67217606Y-28106522D01*
X67202351Y-28102895D01*
X67151486Y-28097369D01*
X67144672Y-28097000D01*
X66522115Y-28097000D01*
X66506876Y-28101475D01*
X66505671Y-28102865D01*
X66504000Y-28110548D01*
X66504000Y-29182885D01*
X65996000Y-29182885D01*
X65996000Y-28115116D01*
X65991525Y-28099877D01*
X65990135Y-28098672D01*
X65982452Y-28097001D01*
X65355331Y-28097001D01*
X65348510Y-28097371D01*
X65297648Y-28102895D01*
X65282396Y-28106521D01*
X65161946Y-28151676D01*
X65146351Y-28160214D01*
X65044276Y-28236715D01*
X65031715Y-28249276D01*
X64955214Y-28351351D01*
X64946676Y-28366946D01*
X64901522Y-28487394D01*
X64897895Y-28502649D01*
X64892369Y-28553514D01*
X64892000Y-28560328D01*
X64892000Y-29182885D01*
X52388086Y-29182885D01*
X52372940Y-29181693D01*
X52372932Y-29181693D01*
X52370484Y-29181500D01*
X51959516Y-29181500D01*
X51957068Y-29181693D01*
X51957060Y-29181693D01*
X51929156Y-29183889D01*
X51929151Y-29183890D01*
X51922746Y-29184394D01*
X51846856Y-29206442D01*
X51773016Y-29227894D01*
X51773014Y-29227895D01*
X51765403Y-29230106D01*
X51758581Y-29234141D01*
X51758580Y-29234141D01*
X51633630Y-29308036D01*
X51624371Y-29313512D01*
X51508512Y-29429371D01*
X51504478Y-29436192D01*
X51448886Y-29530194D01*
X51425106Y-29570403D01*
X51379394Y-29727746D01*
X51378890Y-29734151D01*
X51378889Y-29734156D01*
X51377957Y-29746000D01*
X51376500Y-29764516D01*
X51376500Y-29840405D01*
X51356498Y-29908526D01*
X51339595Y-29929500D01*
X51272747Y-29996348D01*
X51264461Y-30003888D01*
X51257982Y-30008000D01*
X51252557Y-30013777D01*
X51211357Y-30057651D01*
X51208602Y-30060493D01*
X51188865Y-30080230D01*
X51186385Y-30083427D01*
X51178682Y-30092447D01*
X51148414Y-30124679D01*
X51144595Y-30131625D01*
X51144593Y-30131628D01*
X51138652Y-30142434D01*
X51127801Y-30158953D01*
X51115386Y-30174959D01*
X51112241Y-30182228D01*
X51112238Y-30182232D01*
X51097826Y-30215537D01*
X51092609Y-30226187D01*
X51071305Y-30264940D01*
X51069334Y-30272615D01*
X51069334Y-30272616D01*
X51066267Y-30284562D01*
X51059863Y-30303266D01*
X51051819Y-30321855D01*
X51050580Y-30329678D01*
X51050577Y-30329688D01*
X51044901Y-30365524D01*
X51042495Y-30377144D01*
X51033593Y-30411819D01*
X51031500Y-30419970D01*
X51031500Y-30440224D01*
X51029949Y-30459934D01*
X51026780Y-30479943D01*
X51027526Y-30487835D01*
X51030941Y-30523961D01*
X51031500Y-30535819D01*
X51031500Y-31478733D01*
X51030973Y-31489916D01*
X51029298Y-31497409D01*
X51029547Y-31505335D01*
X51029547Y-31505336D01*
X51031438Y-31565486D01*
X51031500Y-31569445D01*
X51031500Y-31597356D01*
X51031996Y-31601283D01*
X51032005Y-31601356D01*
X51032938Y-31613193D01*
X51034327Y-31657389D01*
X51039934Y-31676688D01*
X51039978Y-31676839D01*
X51043987Y-31696200D01*
X51046526Y-31716297D01*
X51049445Y-31723668D01*
X51049445Y-31723670D01*
X51062804Y-31757412D01*
X51066649Y-31768643D01*
X51078716Y-31810179D01*
X51078513Y-31881175D01*
X51046814Y-31934426D01*
X51044145Y-31937095D01*
X50981833Y-31971121D01*
X50955050Y-31974000D01*
X48489600Y-31974000D01*
X48420783Y-31953222D01*
X48419359Y-31952098D01*
X48378053Y-31929296D01*
X48328084Y-31878864D01*
X48313312Y-31809421D01*
X48338428Y-31743016D01*
X48365780Y-31716409D01*
X48432415Y-31668879D01*
X48544860Y-31588673D01*
X48548664Y-31584883D01*
X48656214Y-31477707D01*
X48703096Y-31430989D01*
X48765002Y-31344838D01*
X48830435Y-31253777D01*
X48833453Y-31249577D01*
X48837073Y-31242254D01*
X48930136Y-31053953D01*
X48930137Y-31053951D01*
X48932430Y-31049311D01*
X48986098Y-30872670D01*
X48995865Y-30840523D01*
X48995865Y-30840521D01*
X48997370Y-30835569D01*
X49026529Y-30614090D01*
X49026611Y-30610740D01*
X49028074Y-30550865D01*
X49028074Y-30550861D01*
X49028156Y-30547500D01*
X49009852Y-30324861D01*
X48955431Y-30108202D01*
X48866354Y-29903340D01*
X48752349Y-29727115D01*
X48747822Y-29720117D01*
X48747820Y-29720114D01*
X48745014Y-29715777D01*
X48741540Y-29711959D01*
X48741533Y-29711950D01*
X48597435Y-29553588D01*
X48566383Y-29489742D01*
X48574779Y-29419244D01*
X48619956Y-29364476D01*
X48646400Y-29350807D01*
X48753052Y-29310825D01*
X48768649Y-29302286D01*
X48870724Y-29225785D01*
X48883285Y-29213224D01*
X48959786Y-29111149D01*
X48968324Y-29095554D01*
X49013478Y-28975106D01*
X49017105Y-28959851D01*
X49022631Y-28908986D01*
X49023000Y-28902172D01*
X49023000Y-28279615D01*
X49018525Y-28264376D01*
X49017135Y-28263171D01*
X49009452Y-28261500D01*
X46325116Y-28261500D01*
X46309877Y-28265975D01*
X46308672Y-28267365D01*
X46307001Y-28275048D01*
X46307001Y-28902169D01*
X46307371Y-28908990D01*
X46312895Y-28959852D01*
X46316521Y-28975104D01*
X46361676Y-29095554D01*
X46370214Y-29111149D01*
X46446715Y-29213224D01*
X46459276Y-29225785D01*
X46561351Y-29302286D01*
X46576946Y-29310824D01*
X46685827Y-29351642D01*
X46742591Y-29394284D01*
X46767291Y-29460845D01*
X46752083Y-29530194D01*
X46732691Y-29556675D01*
X46645213Y-29648216D01*
X46605629Y-29689638D01*
X46602715Y-29693910D01*
X46602714Y-29693911D01*
X46490095Y-29859004D01*
X46435184Y-29904007D01*
X46386007Y-29914000D01*
X44531268Y-29914000D01*
X44520085Y-29913473D01*
X44512592Y-29911798D01*
X44504666Y-29912047D01*
X44504665Y-29912047D01*
X44444502Y-29913938D01*
X44440544Y-29914000D01*
X44412644Y-29914000D01*
X44408654Y-29914504D01*
X44396820Y-29915436D01*
X44352611Y-29916826D01*
X44344995Y-29919039D01*
X44344993Y-29919039D01*
X44333152Y-29922479D01*
X44313793Y-29926488D01*
X44312483Y-29926654D01*
X44293703Y-29929026D01*
X44286337Y-29931942D01*
X44286331Y-29931944D01*
X44252598Y-29945300D01*
X44241368Y-29949145D01*
X44206517Y-29959270D01*
X44198907Y-29961481D01*
X44192084Y-29965516D01*
X44181466Y-29971795D01*
X44163713Y-29980492D01*
X44156068Y-29983519D01*
X44144883Y-29987948D01*
X44120375Y-30005754D01*
X44109112Y-30013937D01*
X44099195Y-30020451D01*
X44061138Y-30042958D01*
X44046817Y-30057279D01*
X44031784Y-30070119D01*
X44015393Y-30082028D01*
X43997668Y-30103454D01*
X43987212Y-30116093D01*
X43979222Y-30124874D01*
X43607742Y-30496353D01*
X43599463Y-30503887D01*
X43592982Y-30508000D01*
X43548970Y-30554868D01*
X43546357Y-30557651D01*
X43543602Y-30560493D01*
X43523865Y-30580230D01*
X43521385Y-30583427D01*
X43513682Y-30592447D01*
X43483414Y-30624679D01*
X43479595Y-30631625D01*
X43479593Y-30631628D01*
X43473652Y-30642434D01*
X43462801Y-30658953D01*
X43450386Y-30674959D01*
X43447241Y-30682228D01*
X43447238Y-30682232D01*
X43432826Y-30715537D01*
X43427609Y-30726187D01*
X43406305Y-30764940D01*
X43404334Y-30772615D01*
X43404334Y-30772616D01*
X43401267Y-30784562D01*
X43394863Y-30803266D01*
X43392718Y-30808224D01*
X43386819Y-30821855D01*
X43385580Y-30829678D01*
X43385577Y-30829688D01*
X43379901Y-30865524D01*
X43377495Y-30877144D01*
X43366500Y-30919970D01*
X43366500Y-30940224D01*
X43364949Y-30959934D01*
X43361780Y-30979943D01*
X36638500Y-30979943D01*
X36638500Y-29478768D01*
X36639027Y-29467585D01*
X36640702Y-29460092D01*
X36639737Y-29429371D01*
X36638562Y-29392002D01*
X36638500Y-29388044D01*
X36638500Y-29360144D01*
X36637996Y-29356153D01*
X36637063Y-29344311D01*
X36637056Y-29344065D01*
X36635674Y-29300111D01*
X36633153Y-29291433D01*
X36630021Y-29280652D01*
X36626012Y-29261293D01*
X36625846Y-29259983D01*
X36623474Y-29241203D01*
X36620558Y-29233837D01*
X36620556Y-29233831D01*
X36607200Y-29200098D01*
X36603355Y-29188868D01*
X36593230Y-29154017D01*
X36593230Y-29154016D01*
X36591019Y-29146407D01*
X36580705Y-29128966D01*
X36572008Y-29111213D01*
X36567472Y-29099758D01*
X36564552Y-29092383D01*
X36538563Y-29056612D01*
X36532047Y-29046692D01*
X36513578Y-29015463D01*
X36509542Y-29008638D01*
X36495221Y-28994317D01*
X36482380Y-28979283D01*
X36475131Y-28969306D01*
X36470472Y-28962893D01*
X36436395Y-28934702D01*
X36427616Y-28926712D01*
X36025405Y-28524501D01*
X35991379Y-28462189D01*
X35988500Y-28435406D01*
X35988500Y-27735385D01*
X46307000Y-27735385D01*
X46311475Y-27750624D01*
X46312865Y-27751829D01*
X46320548Y-27753500D01*
X47392885Y-27753500D01*
X47408124Y-27749025D01*
X47409329Y-27747635D01*
X47411000Y-27739952D01*
X47411000Y-27735385D01*
X47919000Y-27735385D01*
X47923475Y-27750624D01*
X47924865Y-27751829D01*
X47932548Y-27753500D01*
X49004884Y-27753500D01*
X49020123Y-27749025D01*
X49021328Y-27747635D01*
X49022999Y-27739952D01*
X49022999Y-27112831D01*
X49022629Y-27106010D01*
X49017105Y-27055148D01*
X49013479Y-27039896D01*
X48968324Y-26919446D01*
X48959786Y-26903851D01*
X48883285Y-26801776D01*
X48870724Y-26789215D01*
X48768649Y-26712714D01*
X48753054Y-26704176D01*
X48632606Y-26659022D01*
X48617351Y-26655395D01*
X48566486Y-26649869D01*
X48559672Y-26649500D01*
X47937115Y-26649500D01*
X47921876Y-26653975D01*
X47920671Y-26655365D01*
X47919000Y-26663048D01*
X47919000Y-27735385D01*
X47411000Y-27735385D01*
X47411000Y-26667616D01*
X47406525Y-26652377D01*
X47405135Y-26651172D01*
X47397452Y-26649501D01*
X46770331Y-26649501D01*
X46763510Y-26649871D01*
X46712648Y-26655395D01*
X46697396Y-26659021D01*
X46576946Y-26704176D01*
X46561351Y-26712714D01*
X46459276Y-26789215D01*
X46446715Y-26801776D01*
X46370214Y-26903851D01*
X46361676Y-26919446D01*
X46316522Y-27039894D01*
X46312895Y-27055149D01*
X46307369Y-27106014D01*
X46307000Y-27112828D01*
X46307000Y-27735385D01*
X35988500Y-27735385D01*
X35988500Y-27126866D01*
X35981745Y-27064684D01*
X35930615Y-26928295D01*
X35843261Y-26811739D01*
X35726705Y-26724385D01*
X35590316Y-26673255D01*
X35528134Y-26666500D01*
X33731866Y-26666500D01*
X33669684Y-26673255D01*
X33533295Y-26724385D01*
X33416739Y-26811739D01*
X33329385Y-26928295D01*
X33326233Y-26936703D01*
X33326232Y-26936705D01*
X33284722Y-27047433D01*
X33242081Y-27104198D01*
X33175519Y-27128898D01*
X33106170Y-27113691D01*
X33073546Y-27088004D01*
X33022799Y-27032234D01*
X33015273Y-27025215D01*
X32848139Y-26893222D01*
X32839552Y-26887517D01*
X32653117Y-26784599D01*
X32643705Y-26780369D01*
X32442959Y-26709280D01*
X32432988Y-26706646D01*
X32361837Y-26693972D01*
X32348540Y-26695432D01*
X32344000Y-26709989D01*
X32344000Y-29343517D01*
X32348064Y-29357359D01*
X32361478Y-29359393D01*
X32368184Y-29358534D01*
X32378262Y-29356392D01*
X32582255Y-29295191D01*
X32591842Y-29291433D01*
X32783095Y-29197739D01*
X32791945Y-29192464D01*
X32965328Y-29068792D01*
X32973193Y-29062145D01*
X33077897Y-28957805D01*
X33140268Y-28923889D01*
X33211075Y-28929077D01*
X33267837Y-28971723D01*
X33284819Y-29002826D01*
X33304983Y-29056612D01*
X33329385Y-29121705D01*
X33416739Y-29238261D01*
X33533295Y-29325615D01*
X33669684Y-29376745D01*
X33731866Y-29383500D01*
X35040406Y-29383500D01*
X35108527Y-29403502D01*
X35129501Y-29420405D01*
X35334595Y-29625499D01*
X35368621Y-29687811D01*
X35371500Y-29714594D01*
X35371500Y-30276939D01*
X35351498Y-30345060D01*
X35297842Y-30391553D01*
X35227568Y-30401657D01*
X35214164Y-30398980D01*
X35192712Y-30393472D01*
X35192709Y-30393472D01*
X35185030Y-30391500D01*
X35164776Y-30391500D01*
X35145065Y-30389949D01*
X35132886Y-30388020D01*
X35125057Y-30386780D01*
X35095786Y-30389547D01*
X35081039Y-30390941D01*
X35069181Y-30391500D01*
X29529027Y-30391500D01*
X29517844Y-30390973D01*
X29510351Y-30389298D01*
X29502425Y-30389547D01*
X29502424Y-30389547D01*
X29442261Y-30391438D01*
X29438303Y-30391500D01*
X29410404Y-30391500D01*
X29406414Y-30392004D01*
X29394580Y-30392936D01*
X29350371Y-30394326D01*
X29342757Y-30396538D01*
X29342752Y-30396539D01*
X29330919Y-30399977D01*
X29311556Y-30403988D01*
X29291463Y-30406526D01*
X29284096Y-30409443D01*
X29284091Y-30409444D01*
X29250352Y-30422802D01*
X29239125Y-30426646D01*
X29196667Y-30438982D01*
X29189841Y-30443019D01*
X29179232Y-30449293D01*
X29161484Y-30457988D01*
X29142643Y-30465448D01*
X29136227Y-30470110D01*
X29136226Y-30470110D01*
X29106873Y-30491436D01*
X29096953Y-30497952D01*
X29065725Y-30516420D01*
X29065722Y-30516422D01*
X29058898Y-30520458D01*
X29044577Y-30534779D01*
X29029544Y-30547619D01*
X29013153Y-30559528D01*
X28985919Y-30592449D01*
X28984968Y-30593598D01*
X28976978Y-30602378D01*
X28740712Y-30838644D01*
X28678400Y-30872670D01*
X28607585Y-30867605D01*
X28555676Y-30829441D01*
X28555511Y-30829606D01*
X28554621Y-30828716D01*
X28554484Y-30828566D01*
X28554435Y-30828530D01*
X28550088Y-30824183D01*
X28549757Y-30823712D01*
X28547468Y-30820855D01*
X28547080Y-30820429D01*
X28542969Y-30813951D01*
X28521253Y-30793558D01*
X28493318Y-30767326D01*
X28490476Y-30764571D01*
X28456218Y-30730313D01*
X28422192Y-30668001D01*
X28424755Y-30604589D01*
X28427381Y-30595948D01*
X28437370Y-30563069D01*
X28466529Y-30341590D01*
X28467011Y-30321855D01*
X28468074Y-30278365D01*
X28468074Y-30278359D01*
X28468156Y-30275000D01*
X28449852Y-30052361D01*
X28395431Y-29835702D01*
X28306354Y-29630840D01*
X28262842Y-29563580D01*
X28187822Y-29447617D01*
X28187820Y-29447614D01*
X28185014Y-29443277D01*
X28181540Y-29439459D01*
X28181533Y-29439450D01*
X28037435Y-29281088D01*
X28006383Y-29217242D01*
X28014779Y-29146744D01*
X28059956Y-29091976D01*
X28086400Y-29078307D01*
X28193052Y-29038325D01*
X28208649Y-29029786D01*
X28310724Y-28953285D01*
X28323285Y-28940724D01*
X28399786Y-28838649D01*
X28408324Y-28823054D01*
X28453478Y-28702606D01*
X28457105Y-28687351D01*
X28462631Y-28636486D01*
X28463000Y-28629672D01*
X28463000Y-28292966D01*
X30758257Y-28292966D01*
X30788565Y-28427446D01*
X30791645Y-28437275D01*
X30871770Y-28634603D01*
X30876413Y-28643794D01*
X30987694Y-28825388D01*
X30993777Y-28833699D01*
X31133213Y-28994667D01*
X31140580Y-29001883D01*
X31304434Y-29137916D01*
X31312881Y-29143831D01*
X31496756Y-29251279D01*
X31506042Y-29255729D01*
X31705001Y-29331703D01*
X31714899Y-29334579D01*
X31818250Y-29355606D01*
X31832299Y-29354410D01*
X31836000Y-29344065D01*
X31836000Y-28297115D01*
X31831525Y-28281876D01*
X31830135Y-28280671D01*
X31822452Y-28279000D01*
X30773225Y-28279000D01*
X30759694Y-28282973D01*
X30758257Y-28292966D01*
X28463000Y-28292966D01*
X28463000Y-28007115D01*
X28458525Y-27991876D01*
X28457135Y-27990671D01*
X28449452Y-27989000D01*
X25765116Y-27989000D01*
X25749877Y-27993475D01*
X25748672Y-27994865D01*
X25747001Y-28002548D01*
X25747001Y-28629669D01*
X25747371Y-28636490D01*
X25752895Y-28687352D01*
X25756521Y-28702604D01*
X25801676Y-28823054D01*
X25810214Y-28838649D01*
X25886715Y-28940724D01*
X25899276Y-28953285D01*
X26001351Y-29029786D01*
X26016946Y-29038324D01*
X26125827Y-29079142D01*
X26182591Y-29121784D01*
X26207291Y-29188345D01*
X26192083Y-29257694D01*
X26172691Y-29284175D01*
X26067469Y-29394284D01*
X26045629Y-29417138D01*
X26042715Y-29421410D01*
X26042714Y-29421411D01*
X26037284Y-29429371D01*
X25919743Y-29601680D01*
X25878914Y-29689638D01*
X25834961Y-29784329D01*
X25825688Y-29804305D01*
X25765989Y-30019570D01*
X25742251Y-30241695D01*
X25742548Y-30246848D01*
X25742548Y-30246851D01*
X25747344Y-30330022D01*
X25753627Y-30438982D01*
X25754505Y-30454217D01*
X25738458Y-30523376D01*
X25687567Y-30572881D01*
X25628714Y-30587470D01*
X25144507Y-30587470D01*
X25133324Y-30586943D01*
X25125831Y-30585268D01*
X25117905Y-30585517D01*
X25117904Y-30585517D01*
X25057754Y-30587408D01*
X25053795Y-30587470D01*
X25025884Y-30587470D01*
X25021950Y-30587967D01*
X25021949Y-30587967D01*
X25021884Y-30587975D01*
X25010047Y-30588908D01*
X24978230Y-30589908D01*
X24973769Y-30590048D01*
X24965850Y-30590297D01*
X24948194Y-30595426D01*
X24946398Y-30595948D01*
X24927046Y-30599956D01*
X24919975Y-30600850D01*
X24906943Y-30602496D01*
X24899574Y-30605413D01*
X24899572Y-30605414D01*
X24865837Y-30618770D01*
X24854609Y-30622615D01*
X24812147Y-30634952D01*
X24805324Y-30638987D01*
X24805322Y-30638988D01*
X24794712Y-30645263D01*
X24776964Y-30653958D01*
X24758123Y-30661418D01*
X24751707Y-30666080D01*
X24751706Y-30666080D01*
X24722353Y-30687406D01*
X24712433Y-30693922D01*
X24681205Y-30712390D01*
X24681202Y-30712392D01*
X24674378Y-30716428D01*
X24660057Y-30730749D01*
X24645024Y-30743589D01*
X24628633Y-30755498D01*
X24616724Y-30769894D01*
X24600452Y-30789563D01*
X24592462Y-30798344D01*
X24137734Y-31253071D01*
X24129455Y-31260605D01*
X24122974Y-31264718D01*
X24083936Y-31306290D01*
X24076349Y-31314369D01*
X24073594Y-31317211D01*
X24053857Y-31336948D01*
X24051377Y-31340145D01*
X24043674Y-31349165D01*
X24013406Y-31381397D01*
X24009587Y-31388343D01*
X24009585Y-31388346D01*
X24003644Y-31399152D01*
X23992793Y-31415671D01*
X23980378Y-31431677D01*
X23977233Y-31438946D01*
X23977230Y-31438950D01*
X23962818Y-31472255D01*
X23957601Y-31482905D01*
X23936297Y-31521658D01*
X23934326Y-31529333D01*
X23934326Y-31529334D01*
X23931259Y-31541280D01*
X23924855Y-31559984D01*
X23916811Y-31578573D01*
X23915572Y-31586396D01*
X23915569Y-31586406D01*
X23909893Y-31622242D01*
X23907487Y-31633862D01*
X23904238Y-31646517D01*
X23896492Y-31676688D01*
X23896492Y-31696942D01*
X23894941Y-31716653D01*
X23893361Y-31726631D01*
X23891772Y-31736661D01*
X23892518Y-31744553D01*
X23895933Y-31780679D01*
X23896492Y-31792537D01*
X23896491Y-33725706D01*
X23883011Y-33774951D01*
X23885867Y-33776187D01*
X23868307Y-33816766D01*
X23863090Y-33827416D01*
X23841786Y-33866169D01*
X23839815Y-33873844D01*
X23839815Y-33873845D01*
X23836748Y-33885791D01*
X23830344Y-33904495D01*
X23822300Y-33923084D01*
X23821061Y-33930907D01*
X23821058Y-33930917D01*
X23815382Y-33966753D01*
X23812976Y-33978373D01*
X23801981Y-34021199D01*
X23801981Y-34041453D01*
X23800430Y-34061163D01*
X23797261Y-34081172D01*
X22800000Y-34081172D01*
X22800000Y-27759183D01*
X30754389Y-27759183D01*
X30755912Y-27767607D01*
X30768292Y-27771000D01*
X31817885Y-27771000D01*
X31833124Y-27766525D01*
X31834329Y-27765135D01*
X31836000Y-27757452D01*
X31836000Y-26708102D01*
X31832082Y-26694758D01*
X31817806Y-26692771D01*
X31779324Y-26698660D01*
X31769288Y-26701051D01*
X31566868Y-26767212D01*
X31557359Y-26771209D01*
X31368463Y-26869542D01*
X31359738Y-26875036D01*
X31189433Y-27002905D01*
X31181726Y-27009748D01*
X31034590Y-27163717D01*
X31028104Y-27171727D01*
X30908098Y-27347649D01*
X30903000Y-27356623D01*
X30813338Y-27549783D01*
X30809775Y-27559470D01*
X30754389Y-27759183D01*
X22800000Y-27759183D01*
X22800000Y-27462885D01*
X25747000Y-27462885D01*
X25751475Y-27478124D01*
X25752865Y-27479329D01*
X25760548Y-27481000D01*
X26832885Y-27481000D01*
X26848124Y-27476525D01*
X26849329Y-27475135D01*
X26851000Y-27467452D01*
X26851000Y-27462885D01*
X27359000Y-27462885D01*
X27363475Y-27478124D01*
X27364865Y-27479329D01*
X27372548Y-27481000D01*
X28444884Y-27481000D01*
X28460123Y-27476525D01*
X28461328Y-27475135D01*
X28462999Y-27467452D01*
X28462999Y-26840331D01*
X28462629Y-26833510D01*
X28457105Y-26782648D01*
X28453479Y-26767396D01*
X28408324Y-26646946D01*
X28399786Y-26631351D01*
X28323285Y-26529276D01*
X28310724Y-26516715D01*
X28208649Y-26440214D01*
X28193054Y-26431676D01*
X28072606Y-26386522D01*
X28057351Y-26382895D01*
X28006486Y-26377369D01*
X27999672Y-26377000D01*
X27377115Y-26377000D01*
X27361876Y-26381475D01*
X27360671Y-26382865D01*
X27359000Y-26390548D01*
X27359000Y-27462885D01*
X26851000Y-27462885D01*
X26851000Y-26395116D01*
X26846525Y-26379877D01*
X26845135Y-26378672D01*
X26837452Y-26377001D01*
X26210331Y-26377001D01*
X26203510Y-26377371D01*
X26152648Y-26382895D01*
X26137396Y-26386521D01*
X26016946Y-26431676D01*
X26001351Y-26440214D01*
X25899276Y-26516715D01*
X25886715Y-26529276D01*
X25810214Y-26631351D01*
X25801676Y-26646946D01*
X25756522Y-26767394D01*
X25752895Y-26782649D01*
X25747369Y-26833514D01*
X25747000Y-26840328D01*
X25747000Y-27462885D01*
X22800000Y-27462885D01*
X22800000Y-22134500D01*
X22820002Y-22066379D01*
X22873658Y-22019886D01*
X22926000Y-22008500D01*
X76615500Y-22008500D01*
X76683621Y-22028502D01*
G37*
%TD.AperFunction*%
%TA.AperFunction,Conductor*%
G36*
X35444687Y-35928923D02*
G01*
X35455363Y-35941244D01*
X35489363Y-35986038D01*
X35514616Y-36052392D01*
X35515000Y-36062217D01*
X35515000Y-36129885D01*
X35519475Y-36145124D01*
X35520865Y-36146329D01*
X35524625Y-36147147D01*
X35598904Y-36138158D01*
X35614478Y-36134203D01*
X35632939Y-36126894D01*
X35703639Y-36120415D01*
X35725704Y-36126894D01*
X35745404Y-36134694D01*
X35745406Y-36134695D01*
X35752934Y-36137675D01*
X35842386Y-36148500D01*
X35911650Y-36148500D01*
X35979771Y-36168502D01*
X35990101Y-36176304D01*
X35990232Y-36176135D01*
X35993425Y-36178612D01*
X36002447Y-36186318D01*
X36034679Y-36216586D01*
X36041628Y-36220406D01*
X36052432Y-36226346D01*
X36068956Y-36237199D01*
X36084959Y-36249613D01*
X36125543Y-36267176D01*
X36136173Y-36272383D01*
X36174940Y-36293695D01*
X36182617Y-36295666D01*
X36182622Y-36295668D01*
X36194558Y-36298732D01*
X36213266Y-36305137D01*
X36231855Y-36313181D01*
X36239680Y-36314420D01*
X36239682Y-36314421D01*
X36275519Y-36320097D01*
X36287140Y-36322504D01*
X36322289Y-36331528D01*
X36329970Y-36333500D01*
X36350231Y-36333500D01*
X36369940Y-36335051D01*
X36389943Y-36338219D01*
X36397835Y-36337473D01*
X36403062Y-36336979D01*
X36433954Y-36334059D01*
X36445811Y-36333500D01*
X37459290Y-36333500D01*
X37527411Y-36353502D01*
X37548385Y-36370405D01*
X37613885Y-36435905D01*
X37647911Y-36498217D01*
X37642846Y-36569032D01*
X37613885Y-36614095D01*
X37518361Y-36709619D01*
X37429528Y-36856301D01*
X37427257Y-36863548D01*
X37427256Y-36863550D01*
X37417590Y-36894395D01*
X37378247Y-37019938D01*
X37371500Y-37093365D01*
X37371501Y-37606634D01*
X37371764Y-37609492D01*
X37371764Y-37609501D01*
X37372407Y-37616500D01*
X37378247Y-37680062D01*
X37429528Y-37843699D01*
X37518361Y-37990381D01*
X37541942Y-38013962D01*
X37575968Y-38076274D01*
X37570903Y-38147089D01*
X37541942Y-38192152D01*
X37129499Y-38604595D01*
X37067187Y-38638621D01*
X37040404Y-38641500D01*
X35979100Y-38641500D01*
X35910979Y-38621498D01*
X35864486Y-38567842D01*
X35854382Y-38497568D01*
X35883876Y-38432988D01*
X35890005Y-38426405D01*
X35965484Y-38350926D01*
X35975124Y-38338499D01*
X36050396Y-38211220D01*
X36056643Y-38196784D01*
X36098312Y-38053359D01*
X36099768Y-38045391D01*
X36096948Y-38031969D01*
X36085487Y-38029000D01*
X35269500Y-38029000D01*
X35201379Y-38008998D01*
X35154886Y-37955342D01*
X35143500Y-37903000D01*
X35143500Y-37539516D01*
X35142043Y-37521000D01*
X35141111Y-37509156D01*
X35141110Y-37509151D01*
X35140617Y-37502885D01*
X35569000Y-37502885D01*
X35573475Y-37518124D01*
X35574865Y-37519329D01*
X35582548Y-37521000D01*
X36083424Y-37521000D01*
X36098219Y-37516656D01*
X36100063Y-37506225D01*
X36098312Y-37496641D01*
X36056643Y-37353216D01*
X36050396Y-37338780D01*
X35975124Y-37211501D01*
X35965484Y-37199074D01*
X35860926Y-37094516D01*
X35848499Y-37084876D01*
X35721220Y-37009604D01*
X35706784Y-37003357D01*
X35586395Y-36968381D01*
X35572295Y-36968421D01*
X35569000Y-36975691D01*
X35569000Y-37502885D01*
X35140617Y-37502885D01*
X35140606Y-37502746D01*
X35106263Y-37384535D01*
X35097106Y-37353016D01*
X35097105Y-37353014D01*
X35094894Y-37345403D01*
X35078546Y-37317760D01*
X35061000Y-37253621D01*
X35061000Y-36981442D01*
X35057027Y-36967911D01*
X35049129Y-36966776D01*
X34923216Y-37003357D01*
X34908778Y-37009605D01*
X34899628Y-37015016D01*
X34830812Y-37032474D01*
X34771353Y-37015015D01*
X34761423Y-37009143D01*
X34761424Y-37009143D01*
X34754597Y-37005106D01*
X34746986Y-37002895D01*
X34746984Y-37002894D01*
X34673144Y-36981442D01*
X34597254Y-36959394D01*
X34590849Y-36958890D01*
X34590844Y-36958889D01*
X34562940Y-36956693D01*
X34562932Y-36956693D01*
X34560484Y-36956500D01*
X34225903Y-36956500D01*
X34157782Y-36936498D01*
X34111289Y-36882842D01*
X34101185Y-36812568D01*
X34130679Y-36747988D01*
X34161763Y-36722047D01*
X34184535Y-36708580D01*
X34184538Y-36708578D01*
X34191362Y-36704542D01*
X34205683Y-36690221D01*
X34220717Y-36677380D01*
X34237107Y-36665472D01*
X34265298Y-36631395D01*
X34273288Y-36622616D01*
X34710499Y-36185405D01*
X34772811Y-36151379D01*
X34799594Y-36148500D01*
X34867614Y-36148500D01*
X34957066Y-36137675D01*
X34964594Y-36134695D01*
X34964596Y-36134694D01*
X34984296Y-36126894D01*
X35054996Y-36120415D01*
X35077061Y-36126894D01*
X35095522Y-36134203D01*
X35111096Y-36138158D01*
X35181420Y-36146668D01*
X35192124Y-36143525D01*
X35193329Y-36142135D01*
X35195000Y-36134452D01*
X35195000Y-36062217D01*
X35215002Y-35994096D01*
X35220637Y-35986038D01*
X35254637Y-35941244D01*
X35311754Y-35899077D01*
X35382602Y-35894484D01*
X35444687Y-35928923D01*
G37*
%TD.AperFunction*%
%TD*%
M02*
