%TF.GenerationSoftware,KiCad,Pcbnew,(6.0.4-0)*%
%TF.CreationDate,2025-08-27T16:40:30+02:00*%
%TF.ProjectId,FYP_PMIC,4659505f-504d-4494-932e-6b696361645f,rev?*%
%TF.SameCoordinates,Original*%
%TF.FileFunction,Soldermask,Top*%
%TF.FilePolarity,Negative*%
%FSLAX46Y46*%
G04 Gerber Fmt 4.6, Leading zero omitted, Abs format (unit mm)*
G04 Created by KiCad (PCBNEW (6.0.4-0)) date 2025-08-27 16:40:30*
%MOMM*%
%LPD*%
G01*
G04 APERTURE LIST*
G04 Aperture macros list*
%AMRoundRect*
0 Rectangle with rounded corners*
0 $1 Rounding radius*
0 $2 $3 $4 $5 $6 $7 $8 $9 X,Y pos of 4 corners*
0 Add a 4 corners polygon primitive as box body*
4,1,4,$2,$3,$4,$5,$6,$7,$8,$9,$2,$3,0*
0 Add four circle primitives for the rounded corners*
1,1,$1+$1,$2,$3*
1,1,$1+$1,$4,$5*
1,1,$1+$1,$6,$7*
1,1,$1+$1,$8,$9*
0 Add four rect primitives between the rounded corners*
20,1,$1+$1,$2,$3,$4,$5,0*
20,1,$1+$1,$4,$5,$6,$7,0*
20,1,$1+$1,$6,$7,$8,$9,0*
20,1,$1+$1,$8,$9,$2,$3,0*%
G04 Aperture macros list end*
%ADD10RoundRect,0.140000X-0.170000X0.140000X-0.170000X-0.140000X0.170000X-0.140000X0.170000X0.140000X0*%
%ADD11RoundRect,0.140000X0.170000X-0.140000X0.170000X0.140000X-0.170000X0.140000X-0.170000X-0.140000X0*%
%ADD12RoundRect,0.250000X0.262500X0.450000X-0.262500X0.450000X-0.262500X-0.450000X0.262500X-0.450000X0*%
%ADD13RoundRect,0.250000X-0.450000X0.262500X-0.450000X-0.262500X0.450000X-0.262500X0.450000X0.262500X0*%
%ADD14RoundRect,0.225000X0.225000X0.250000X-0.225000X0.250000X-0.225000X-0.250000X0.225000X-0.250000X0*%
%ADD15C,2.000000*%
%ADD16RoundRect,0.102000X-0.800000X-0.900000X0.800000X-0.900000X0.800000X0.900000X-0.800000X0.900000X0*%
%ADD17C,1.600000*%
%ADD18R,1.700000X1.700000*%
%ADD19O,1.700000X1.700000*%
%ADD20RoundRect,0.250000X0.625000X-0.312500X0.625000X0.312500X-0.625000X0.312500X-0.625000X-0.312500X0*%
%ADD21RoundRect,0.225000X0.250000X-0.225000X0.250000X0.225000X-0.250000X0.225000X-0.250000X-0.225000X0*%
%ADD22RoundRect,0.250000X-0.262500X-0.450000X0.262500X-0.450000X0.262500X0.450000X-0.262500X0.450000X0*%
%ADD23RoundRect,0.250000X-0.625000X0.312500X-0.625000X-0.312500X0.625000X-0.312500X0.625000X0.312500X0*%
%ADD24RoundRect,0.140000X-0.140000X-0.170000X0.140000X-0.170000X0.140000X0.170000X-0.140000X0.170000X0*%
%ADD25RoundRect,0.153250X-0.733750X-0.153750X0.733750X-0.153750X0.733750X0.153750X-0.733750X0.153750X0*%
%ADD26RoundRect,0.250000X0.450000X-0.262500X0.450000X0.262500X-0.450000X0.262500X-0.450000X-0.262500X0*%
G04 APERTURE END LIST*
D10*
%TO.C,C_SRP2*%
X83500000Y-72500000D03*
X83500000Y-73460000D03*
%TD*%
D11*
%TO.C,C_bat1*%
X67750000Y-68480000D03*
X67750000Y-67520000D03*
%TD*%
D12*
%TO.C,R_SRN1*%
X88162500Y-76250000D03*
X86337500Y-76250000D03*
%TD*%
D13*
%TO.C,R_ge_in1*%
X74250000Y-74062500D03*
X74250000Y-75887500D03*
%TD*%
D14*
%TO.C,C_reg1*%
X68525000Y-55750000D03*
X66975000Y-55750000D03*
%TD*%
D15*
%TO.C,TP_SCL1*%
X86250000Y-63250000D03*
%TD*%
D16*
%TO.C,R_CRS1*%
X92600000Y-76250000D03*
X95400000Y-76250000D03*
%TD*%
D13*
%TO.C,R_bat1*%
X65000000Y-69337500D03*
X65000000Y-71162500D03*
%TD*%
D17*
%TO.C,TH_TS1*%
X76750000Y-56000000D03*
X79250000Y-56000000D03*
%TD*%
D18*
%TO.C,J2_female1*%
X57150000Y-62150000D03*
D19*
X57150000Y-64690000D03*
X57150000Y-67230000D03*
X57150000Y-69770000D03*
X57150000Y-72310000D03*
X57150000Y-74850000D03*
%TD*%
D20*
%TO.C,R_alert2*%
X63250000Y-64462500D03*
X63250000Y-61537500D03*
%TD*%
D21*
%TO.C,C_regin1*%
X79000000Y-74275000D03*
X79000000Y-72725000D03*
%TD*%
D15*
%TO.C,TP_REGIN1*%
X77250000Y-70000000D03*
%TD*%
D22*
%TO.C,R_SCL2*%
X94087500Y-65250000D03*
X95912500Y-65250000D03*
%TD*%
D18*
%TO.C,JP_GE1*%
X70750000Y-73225000D03*
D19*
X70750000Y-75765000D03*
%TD*%
D10*
%TO.C,C_SRN2*%
X87750000Y-69290000D03*
X87750000Y-70250000D03*
%TD*%
D23*
%TO.C,R_ge1*%
X66250000Y-73262500D03*
X66250000Y-76187500D03*
%TD*%
%TO.C,R_alert1*%
X67250000Y-59037500D03*
X67250000Y-61962500D03*
%TD*%
D18*
%TO.C,J1_male1*%
X100750000Y-63900000D03*
D19*
X100750000Y-66440000D03*
X100750000Y-68980000D03*
X100750000Y-71520000D03*
X100750000Y-74060000D03*
X100750000Y-76600000D03*
%TD*%
D24*
%TO.C,C_SR1*%
X84020000Y-69250000D03*
X84980000Y-69250000D03*
%TD*%
D20*
%TO.C,R_ge2*%
X62750000Y-76187500D03*
X62750000Y-73262500D03*
%TD*%
D15*
%TO.C,TP_REG1*%
X72250000Y-57000000D03*
%TD*%
%TO.C,TP_SDA1*%
X86250000Y-59000000D03*
%TD*%
D25*
%TO.C,BQ35100*%
X76336250Y-62271250D03*
X76336250Y-62921250D03*
X76336250Y-63571250D03*
X76336250Y-64221250D03*
X76336250Y-64871250D03*
X76336250Y-65521250D03*
X76336250Y-66171250D03*
X82076250Y-66171250D03*
X82076250Y-65521250D03*
X82076250Y-64871250D03*
X82076250Y-64221250D03*
X82076250Y-63571250D03*
X82076250Y-62921250D03*
X82076250Y-62271250D03*
%TD*%
D26*
%TO.C,R_SRP1*%
X91750000Y-71412500D03*
X91750000Y-69587500D03*
%TD*%
D18*
%TO.C,J2_male1*%
X52500000Y-62150000D03*
D19*
X52500000Y-64690000D03*
X52500000Y-67230000D03*
X52500000Y-69770000D03*
X52500000Y-72310000D03*
X52500000Y-74850000D03*
%TD*%
D18*
%TO.C,J1_female1*%
X105525000Y-63925000D03*
D19*
X105525000Y-66465000D03*
X105525000Y-69005000D03*
X105525000Y-71545000D03*
X105525000Y-74085000D03*
X105525000Y-76625000D03*
%TD*%
D26*
%TO.C,R_SCL_1*%
X90500000Y-65162500D03*
X90500000Y-63337500D03*
%TD*%
%TO.C,R_SDA_1*%
X91000000Y-57575000D03*
X91000000Y-55750000D03*
%TD*%
D22*
%TO.C,R_SDA_2*%
X93837500Y-61250000D03*
X95662500Y-61250000D03*
%TD*%
M02*
