%TF.GenerationSoftware,KiCad,Pcbnew,(6.0.4-0)*%
%TF.CreationDate,2025-08-27T16:40:30+02:00*%
%TF.ProjectId,FYP_PMIC,4659505f-504d-4494-932e-6b696361645f,rev?*%
%TF.SameCoordinates,Original*%
%TF.FileFunction,Copper,L1,Top*%
%TF.FilePolarity,Positive*%
%FSLAX46Y46*%
G04 Gerber Fmt 4.6, Leading zero omitted, Abs format (unit mm)*
G04 Created by KiCad (PCBNEW (6.0.4-0)) date 2025-08-27 16:40:30*
%MOMM*%
%LPD*%
G01*
G04 APERTURE LIST*
G04 Aperture macros list*
%AMRoundRect*
0 Rectangle with rounded corners*
0 $1 Rounding radius*
0 $2 $3 $4 $5 $6 $7 $8 $9 X,Y pos of 4 corners*
0 Add a 4 corners polygon primitive as box body*
4,1,4,$2,$3,$4,$5,$6,$7,$8,$9,$2,$3,0*
0 Add four circle primitives for the rounded corners*
1,1,$1+$1,$2,$3*
1,1,$1+$1,$4,$5*
1,1,$1+$1,$6,$7*
1,1,$1+$1,$8,$9*
0 Add four rect primitives between the rounded corners*
20,1,$1+$1,$2,$3,$4,$5,0*
20,1,$1+$1,$4,$5,$6,$7,0*
20,1,$1+$1,$6,$7,$8,$9,0*
20,1,$1+$1,$8,$9,$2,$3,0*%
G04 Aperture macros list end*
%TA.AperFunction,SMDPad,CuDef*%
%ADD10RoundRect,0.140000X-0.170000X0.140000X-0.170000X-0.140000X0.170000X-0.140000X0.170000X0.140000X0*%
%TD*%
%TA.AperFunction,SMDPad,CuDef*%
%ADD11RoundRect,0.140000X0.170000X-0.140000X0.170000X0.140000X-0.170000X0.140000X-0.170000X-0.140000X0*%
%TD*%
%TA.AperFunction,SMDPad,CuDef*%
%ADD12RoundRect,0.250000X0.262500X0.450000X-0.262500X0.450000X-0.262500X-0.450000X0.262500X-0.450000X0*%
%TD*%
%TA.AperFunction,SMDPad,CuDef*%
%ADD13RoundRect,0.250000X-0.450000X0.262500X-0.450000X-0.262500X0.450000X-0.262500X0.450000X0.262500X0*%
%TD*%
%TA.AperFunction,SMDPad,CuDef*%
%ADD14RoundRect,0.225000X0.225000X0.250000X-0.225000X0.250000X-0.225000X-0.250000X0.225000X-0.250000X0*%
%TD*%
%TA.AperFunction,SMDPad,CuDef*%
%ADD15C,2.000000*%
%TD*%
%TA.AperFunction,SMDPad,CuDef*%
%ADD16R,1.600000X1.800000*%
%TD*%
%TA.AperFunction,ComponentPad*%
%ADD17C,1.600000*%
%TD*%
%TA.AperFunction,ComponentPad*%
%ADD18R,1.700000X1.700000*%
%TD*%
%TA.AperFunction,ComponentPad*%
%ADD19O,1.700000X1.700000*%
%TD*%
%TA.AperFunction,SMDPad,CuDef*%
%ADD20RoundRect,0.250000X0.625000X-0.312500X0.625000X0.312500X-0.625000X0.312500X-0.625000X-0.312500X0*%
%TD*%
%TA.AperFunction,SMDPad,CuDef*%
%ADD21RoundRect,0.225000X0.250000X-0.225000X0.250000X0.225000X-0.250000X0.225000X-0.250000X-0.225000X0*%
%TD*%
%TA.AperFunction,SMDPad,CuDef*%
%ADD22RoundRect,0.250000X-0.262500X-0.450000X0.262500X-0.450000X0.262500X0.450000X-0.262500X0.450000X0*%
%TD*%
%TA.AperFunction,SMDPad,CuDef*%
%ADD23RoundRect,0.250000X-0.625000X0.312500X-0.625000X-0.312500X0.625000X-0.312500X0.625000X0.312500X0*%
%TD*%
%TA.AperFunction,SMDPad,CuDef*%
%ADD24RoundRect,0.140000X-0.140000X-0.170000X0.140000X-0.170000X0.140000X0.170000X-0.140000X0.170000X0*%
%TD*%
%TA.AperFunction,SMDPad,CuDef*%
%ADD25RoundRect,0.051250X-0.733750X-0.153750X0.733750X-0.153750X0.733750X0.153750X-0.733750X0.153750X0*%
%TD*%
%TA.AperFunction,SMDPad,CuDef*%
%ADD26RoundRect,0.250000X0.450000X-0.262500X0.450000X0.262500X-0.450000X0.262500X-0.450000X-0.262500X0*%
%TD*%
%TA.AperFunction,Conductor*%
%ADD27C,0.250000*%
%TD*%
%TA.AperFunction,Conductor*%
%ADD28C,0.200000*%
%TD*%
G04 APERTURE END LIST*
D10*
%TO.P,C_SRP2,1*%
%TO.N,Net-(BQ35100-Pad9)*%
X83500000Y-72500000D03*
%TO.P,C_SRP2,2*%
%TO.N,GND*%
X83500000Y-73460000D03*
%TD*%
D11*
%TO.P,C_bat1,1*%
%TO.N,Net-(BQ35100-Pad4)*%
X67750000Y-68480000D03*
%TO.P,C_bat1,2*%
%TO.N,GND*%
X67750000Y-67520000D03*
%TD*%
D12*
%TO.P,R_SRN1,1*%
%TO.N,/BAT-*%
X88162500Y-76250000D03*
%TO.P,R_SRN1,2*%
%TO.N,Net-(BQ35100-Pad9)*%
X86337500Y-76250000D03*
%TD*%
D13*
%TO.P,R_ge_in1,1*%
%TO.N,/VSUPPLY*%
X74250000Y-74062500D03*
%TO.P,R_ge_in1,2*%
%TO.N,Net-(JP_GE1-Pad2)*%
X74250000Y-75887500D03*
%TD*%
D14*
%TO.P,C_reg1,1*%
%TO.N,/REG25*%
X68525000Y-55750000D03*
%TO.P,C_reg1,2*%
%TO.N,GND*%
X66975000Y-55750000D03*
%TD*%
D15*
%TO.P,TP_SCL1,1,1*%
%TO.N,Net-(BQ35100-Pad13)*%
X86250000Y-63250000D03*
%TD*%
D16*
%TO.P,R_CRS1,1*%
%TO.N,GND*%
X92600000Y-76250000D03*
%TO.P,R_CRS1,2*%
%TO.N,/BAT-*%
X95400000Y-76250000D03*
%TD*%
D13*
%TO.P,R_bat1,1*%
%TO.N,Net-(BQ35100-Pad4)*%
X65000000Y-69337500D03*
%TO.P,R_bat1,2*%
%TO.N,/BAT+*%
X65000000Y-71162500D03*
%TD*%
D17*
%TO.P,TH_TS1,1*%
%TO.N,/REG25*%
X76750000Y-56000000D03*
%TO.P,TH_TS1,2*%
%TO.N,Net-(BQ35100-Pad11)*%
X79250000Y-56000000D03*
%TD*%
D18*
%TO.P,J2_female1,1,Pin_1*%
%TO.N,GND*%
X57150000Y-62150000D03*
D19*
%TO.P,J2_female1,2,Pin_2*%
%TO.N,/ALERT*%
X57150000Y-64690000D03*
%TO.P,J2_female1,3,Pin_3*%
%TO.N,/VIN*%
X57150000Y-67230000D03*
%TO.P,J2_female1,4,Pin_4*%
%TO.N,/BAT+*%
X57150000Y-69770000D03*
%TO.P,J2_female1,5,Pin_5*%
%TO.N,/GAUGE_ENABLE*%
X57150000Y-72310000D03*
%TO.P,J2_female1,6,Pin_6*%
%TO.N,/VSUPPLY*%
X57150000Y-74850000D03*
%TD*%
D20*
%TO.P,R_alert2,1*%
%TO.N,/ALERT*%
X63250000Y-64462500D03*
%TO.P,R_alert2,2*%
%TO.N,Net-(BQ35100-Pad2)*%
X63250000Y-61537500D03*
%TD*%
D21*
%TO.P,C_regin1,1*%
%TO.N,GND*%
X79000000Y-74275000D03*
%TO.P,C_regin1,2*%
%TO.N,/VSUPPLY*%
X79000000Y-72725000D03*
%TD*%
D15*
%TO.P,TP_REGIN1,1,1*%
%TO.N,/VSUPPLY*%
X77250000Y-70000000D03*
%TD*%
D22*
%TO.P,R_SCL2,1*%
%TO.N,/I2C_CLK*%
X94087500Y-65250000D03*
%TO.P,R_SCL2,2*%
%TO.N,/VSUPPLY*%
X95912500Y-65250000D03*
%TD*%
D18*
%TO.P,JP_GE1,1,Pin_1*%
%TO.N,Net-(BQ35100-Pad5)*%
X70750000Y-73225000D03*
D19*
%TO.P,JP_GE1,2,Pin_2*%
%TO.N,Net-(JP_GE1-Pad2)*%
X70750000Y-75765000D03*
%TD*%
D10*
%TO.P,C_SRN2,1*%
%TO.N,Net-(BQ35100-Pad10)*%
X87750000Y-69290000D03*
%TO.P,C_SRN2,2*%
%TO.N,GND*%
X87750000Y-70250000D03*
%TD*%
D23*
%TO.P,R_ge1,1*%
%TO.N,Net-(BQ35100-Pad5)*%
X66250000Y-73262500D03*
%TO.P,R_ge1,2*%
%TO.N,GND*%
X66250000Y-76187500D03*
%TD*%
%TO.P,R_alert1,1*%
%TO.N,/REG25*%
X67250000Y-59037500D03*
%TO.P,R_alert1,2*%
%TO.N,Net-(BQ35100-Pad2)*%
X67250000Y-61962500D03*
%TD*%
D18*
%TO.P,J1_male1,1,Pin_1*%
%TO.N,/VSUPPLY*%
X100750000Y-63900000D03*
D19*
%TO.P,J1_male1,2,Pin_2*%
%TO.N,/I2C_DATA*%
X100750000Y-66440000D03*
%TO.P,J1_male1,3,Pin_3*%
%TO.N,/I2C_CLK*%
X100750000Y-68980000D03*
%TO.P,J1_male1,4,Pin_4*%
%TO.N,/VEN*%
X100750000Y-71520000D03*
%TO.P,J1_male1,5,Pin_5*%
%TO.N,/BAT-*%
X100750000Y-74060000D03*
%TO.P,J1_male1,6,Pin_6*%
%TO.N,GND*%
X100750000Y-76600000D03*
%TD*%
D24*
%TO.P,C_SR1,1*%
%TO.N,Net-(BQ35100-Pad9)*%
X84020000Y-69250000D03*
%TO.P,C_SR1,2*%
%TO.N,Net-(BQ35100-Pad10)*%
X84980000Y-69250000D03*
%TD*%
D20*
%TO.P,R_ge2,1*%
%TO.N,/GAUGE_ENABLE*%
X62750000Y-76187500D03*
%TO.P,R_ge2,2*%
%TO.N,Net-(BQ35100-Pad5)*%
X62750000Y-73262500D03*
%TD*%
D15*
%TO.P,TP_REG1,1,1*%
%TO.N,/REG25*%
X72250000Y-57000000D03*
%TD*%
%TO.P,TP_SDA1,1,1*%
%TO.N,Net-(BQ35100-Pad14)*%
X86250000Y-59000000D03*
%TD*%
D25*
%TO.P,BQ35100,1,VIN*%
%TO.N,/VIN*%
X76336250Y-62271250D03*
%TO.P,BQ35100,2,ALERT*%
%TO.N,Net-(BQ35100-Pad2)*%
X76336250Y-62921250D03*
%TO.P,BQ35100,3,NC*%
%TO.N,GND*%
X76336250Y-63571250D03*
%TO.P,BQ35100,4,BAT*%
%TO.N,Net-(BQ35100-Pad4)*%
X76336250Y-64221250D03*
%TO.P,BQ35100,5,GE*%
%TO.N,Net-(BQ35100-Pad5)*%
X76336250Y-64871250D03*
%TO.P,BQ35100,6,REGIN*%
%TO.N,/VSUPPLY*%
X76336250Y-65521250D03*
%TO.P,BQ35100,7,REG25*%
%TO.N,/REG25*%
X76336250Y-66171250D03*
%TO.P,BQ35100,8,VSS*%
%TO.N,GND*%
X82076250Y-66171250D03*
%TO.P,BQ35100,9,SRP*%
%TO.N,Net-(BQ35100-Pad9)*%
X82076250Y-65521250D03*
%TO.P,BQ35100,10,SRN*%
%TO.N,Net-(BQ35100-Pad10)*%
X82076250Y-64871250D03*
%TO.P,BQ35100,11,TS*%
%TO.N,Net-(BQ35100-Pad11)*%
X82076250Y-64221250D03*
%TO.P,BQ35100,12,VEN*%
%TO.N,/VEN*%
X82076250Y-63571250D03*
%TO.P,BQ35100,13,SCL*%
%TO.N,Net-(BQ35100-Pad13)*%
X82076250Y-62921250D03*
%TO.P,BQ35100,14,SDA*%
%TO.N,Net-(BQ35100-Pad14)*%
X82076250Y-62271250D03*
%TD*%
D26*
%TO.P,R_SRP1,1*%
%TO.N,GND*%
X91750000Y-71412500D03*
%TO.P,R_SRP1,2*%
%TO.N,Net-(BQ35100-Pad10)*%
X91750000Y-69587500D03*
%TD*%
D18*
%TO.P,J2_male1,1,Pin_1*%
%TO.N,GND*%
X52500000Y-62150000D03*
D19*
%TO.P,J2_male1,2,Pin_2*%
%TO.N,/ALERT*%
X52500000Y-64690000D03*
%TO.P,J2_male1,3,Pin_3*%
%TO.N,/VIN*%
X52500000Y-67230000D03*
%TO.P,J2_male1,4,Pin_4*%
%TO.N,/BAT+*%
X52500000Y-69770000D03*
%TO.P,J2_male1,5,Pin_5*%
%TO.N,/GAUGE_ENABLE*%
X52500000Y-72310000D03*
%TO.P,J2_male1,6,Pin_6*%
%TO.N,/VSUPPLY*%
X52500000Y-74850000D03*
%TD*%
D18*
%TO.P,J1_female1,1,Pin_1*%
%TO.N,/VSUPPLY*%
X105525000Y-63925000D03*
D19*
%TO.P,J1_female1,2,Pin_2*%
%TO.N,/I2C_DATA*%
X105525000Y-66465000D03*
%TO.P,J1_female1,3,Pin_3*%
%TO.N,/I2C_CLK*%
X105525000Y-69005000D03*
%TO.P,J1_female1,4,Pin_4*%
%TO.N,/VEN*%
X105525000Y-71545000D03*
%TO.P,J1_female1,5,Pin_5*%
%TO.N,/BAT-*%
X105525000Y-74085000D03*
%TO.P,J1_female1,6,Pin_6*%
%TO.N,GND*%
X105525000Y-76625000D03*
%TD*%
D26*
%TO.P,R_SCL_1,1*%
%TO.N,/I2C_CLK*%
X90500000Y-65162500D03*
%TO.P,R_SCL_1,2*%
%TO.N,Net-(BQ35100-Pad13)*%
X90500000Y-63337500D03*
%TD*%
%TO.P,R_SDA_1,1*%
%TO.N,/I2C_DATA*%
X91000000Y-57575000D03*
%TO.P,R_SDA_1,2*%
%TO.N,Net-(BQ35100-Pad14)*%
X91000000Y-55750000D03*
%TD*%
D22*
%TO.P,R_SDA_2,1*%
%TO.N,/I2C_DATA*%
X93837500Y-61250000D03*
%TO.P,R_SDA_2,2*%
%TO.N,/VSUPPLY*%
X95662500Y-61250000D03*
%TD*%
D27*
%TO.N,Net-(BQ35100-Pad2)*%
X69537500Y-61962500D02*
X71250000Y-60250000D01*
X78250000Y-62000000D02*
X77328750Y-62921250D01*
X66825000Y-61537500D02*
X67250000Y-61962500D01*
X67250000Y-61962500D02*
X69537500Y-61962500D01*
X77328750Y-62921250D02*
X76336250Y-62921250D01*
X78250000Y-60250000D02*
X78250000Y-62000000D01*
X71250000Y-60250000D02*
X78250000Y-60250000D01*
X63250000Y-61537500D02*
X66825000Y-61537500D01*
%TO.N,GND*%
X64812500Y-74750000D02*
X66250000Y-76187500D01*
X50000000Y-70250000D02*
X50750000Y-71000000D01*
X50095489Y-68404511D02*
X50000000Y-68500000D01*
X93032011Y-72694511D02*
X91750000Y-71412500D01*
X106969511Y-72719511D02*
X105038501Y-72719511D01*
X107625000Y-76625000D02*
X107750000Y-76500000D01*
X79500000Y-64363919D02*
X81307331Y-66171250D01*
X105013501Y-72694511D02*
X93032011Y-72694511D01*
X60750000Y-72500000D02*
X60750000Y-74000000D01*
X50000000Y-68500000D02*
X50000000Y-70250000D01*
X63595489Y-68404511D02*
X50095489Y-68404511D01*
X105038501Y-72719511D02*
X105013501Y-72694511D01*
X50750000Y-71000000D02*
X59250000Y-71000000D01*
X105400000Y-76600000D02*
X100750000Y-76600000D01*
X64250000Y-67750000D02*
X63595489Y-68404511D01*
X79500000Y-58000000D02*
X79500000Y-64363919D01*
X57250000Y-52750000D02*
X77500000Y-52750000D01*
X74750000Y-63250000D02*
X72020000Y-63250000D01*
X75071250Y-63571250D02*
X74750000Y-63250000D01*
X57150000Y-62150000D02*
X57150000Y-52850000D01*
X61500000Y-74750000D02*
X64812500Y-74750000D01*
X52500000Y-62150000D02*
X50000000Y-64650000D01*
X78000000Y-53250000D02*
X78000000Y-56500000D01*
X81307331Y-66171250D02*
X82076250Y-66171250D01*
X57150000Y-52850000D02*
X57250000Y-52750000D01*
X50000000Y-64650000D02*
X50000000Y-68500000D01*
X72020000Y-63250000D02*
X67750000Y-67520000D01*
X78000000Y-56500000D02*
X79500000Y-58000000D01*
X77500000Y-52750000D02*
X78000000Y-53250000D01*
X107750000Y-73500000D02*
X106969511Y-72719511D01*
X67750000Y-67520000D02*
X67520000Y-67750000D01*
X105525000Y-76625000D02*
X107625000Y-76625000D01*
X60750000Y-74000000D02*
X61500000Y-74750000D01*
X67520000Y-67750000D02*
X64250000Y-67750000D01*
X107750000Y-76500000D02*
X107750000Y-73500000D01*
X76336250Y-63571250D02*
X75071250Y-63571250D01*
X57150000Y-62150000D02*
X52500000Y-62150000D01*
X59250000Y-71000000D02*
X60750000Y-72500000D01*
%TO.N,/REG25*%
X79000000Y-64276419D02*
X77105169Y-66171250D01*
X75750000Y-57000000D02*
X76750000Y-56000000D01*
X72250000Y-57000000D02*
X75750000Y-57000000D01*
X68525000Y-55750000D02*
X71000000Y-55750000D01*
X76750000Y-56000000D02*
X79000000Y-58250000D01*
X79000000Y-58250000D02*
X79000000Y-64276419D01*
X67250000Y-57025000D02*
X68525000Y-55750000D01*
X71000000Y-55750000D02*
X72250000Y-57000000D01*
X77105169Y-66171250D02*
X76336250Y-66171250D01*
X67250000Y-59037500D02*
X67250000Y-57025000D01*
%TO.N,/VSUPPLY*%
X77250000Y-70000000D02*
X75000000Y-70000000D01*
X100750000Y-63900000D02*
X98312500Y-63900000D01*
X75000000Y-70000000D02*
X73500000Y-68500000D01*
X57150000Y-74850000D02*
X57150000Y-78400000D01*
X85862493Y-78750000D02*
X85612493Y-78500000D01*
X77250000Y-78500000D02*
X77500000Y-78250000D01*
X98302011Y-67639511D02*
X108389511Y-67639511D01*
X98312500Y-63900000D02*
X95662500Y-61250000D01*
X79000000Y-72725000D02*
X77775000Y-72725000D01*
X108389511Y-67639511D02*
X108500000Y-67750000D01*
X105525000Y-63925000D02*
X108175000Y-63925000D01*
X74250000Y-74062500D02*
X76437500Y-74062500D01*
X105500000Y-63900000D02*
X105525000Y-63925000D01*
X77775000Y-72725000D02*
X77000000Y-73500000D01*
X108175000Y-63925000D02*
X108500000Y-64250000D01*
X77250000Y-78000000D02*
X77250000Y-73250000D01*
X74728750Y-65521250D02*
X76336250Y-65521250D01*
X73500000Y-68500000D02*
X73500000Y-66750000D01*
X77250000Y-73250000D02*
X77250000Y-70000000D01*
X57250000Y-78500000D02*
X77250000Y-78500000D01*
X52500000Y-74850000D02*
X57150000Y-74850000D01*
X73500000Y-66750000D02*
X74728750Y-65521250D01*
X95912500Y-65250000D02*
X98302011Y-67639511D01*
X85612493Y-78500000D02*
X77250000Y-78500000D01*
X77500000Y-78250000D02*
X77250000Y-78000000D01*
X108500000Y-64250000D02*
X108500000Y-67750000D01*
X76437500Y-74062500D02*
X77000000Y-73500000D01*
X100750000Y-63900000D02*
X105500000Y-63900000D01*
X108500000Y-67750000D02*
X108500000Y-78750000D01*
X108500000Y-78750000D02*
X85862493Y-78750000D01*
X77000000Y-73500000D02*
X77250000Y-73250000D01*
X57150000Y-78400000D02*
X57250000Y-78500000D01*
%TO.N,Net-(BQ35100-Pad4)*%
X65662500Y-69250000D02*
X67421250Y-69250000D01*
X67421250Y-69250000D02*
X68700000Y-67971250D01*
X68700000Y-67964320D02*
X72443070Y-64221250D01*
X72443070Y-64221250D02*
X76336250Y-64221250D01*
X68700000Y-67971250D02*
X68700000Y-67964320D01*
%TO.N,Net-(BQ35100-Pad5)*%
X62750000Y-73262500D02*
X66250000Y-73262500D01*
X66287500Y-73225000D02*
X70750000Y-73225000D01*
X66250000Y-73262500D02*
X66287500Y-73225000D01*
X70750000Y-68000000D02*
X73878750Y-64871250D01*
X70750000Y-73225000D02*
X70750000Y-68000000D01*
X73878750Y-64871250D02*
X76336250Y-64871250D01*
%TO.N,Net-(BQ35100-Pad9)*%
X86337500Y-76250000D02*
X86337500Y-75330570D01*
X83506930Y-72500000D02*
X83500000Y-72500000D01*
X83500000Y-72500000D02*
X84020000Y-71980000D01*
X82097500Y-65500000D02*
X82076250Y-65521250D01*
X84020000Y-69250000D02*
X84020000Y-66270000D01*
X84020000Y-66270000D02*
X83250000Y-65500000D01*
X84020000Y-71980000D02*
X84020000Y-69250000D01*
X86337500Y-75330570D02*
X83506930Y-72500000D01*
X83250000Y-65500000D02*
X82097500Y-65500000D01*
%TO.N,Net-(JP_GE1-Pad2)*%
X70750000Y-75765000D02*
X74127500Y-75765000D01*
X74127500Y-75765000D02*
X74250000Y-75887500D01*
D28*
%TO.N,/BAT+*%
X63412500Y-71162500D02*
X64250000Y-71162500D01*
X52500000Y-69770000D02*
X57150000Y-69770000D01*
X57150000Y-69770000D02*
X62020000Y-69770000D01*
X62020000Y-69770000D02*
X63412500Y-71162500D01*
%TO.N,/BAT-*%
X88250000Y-74000000D02*
X88162500Y-74087500D01*
X88162500Y-74087500D02*
X88162500Y-76250000D01*
X97590000Y-74060000D02*
X95400000Y-76250000D01*
X105525000Y-74085000D02*
X100775000Y-74085000D01*
X100750000Y-74060000D02*
X97590000Y-74060000D01*
X97590000Y-74060000D02*
X97530000Y-74000000D01*
X97530000Y-74000000D02*
X88250000Y-74000000D01*
X100775000Y-74085000D02*
X100750000Y-74060000D01*
D27*
%TO.N,/I2C_CLK*%
X94000000Y-65162500D02*
X94087500Y-65250000D01*
X97817500Y-68980000D02*
X100750000Y-68980000D01*
X100775000Y-69005000D02*
X100750000Y-68980000D01*
X94087500Y-65250000D02*
X97817500Y-68980000D01*
X105525000Y-69005000D02*
X100775000Y-69005000D01*
X90500000Y-65162500D02*
X94000000Y-65162500D01*
%TO.N,/I2C_DATA*%
X97250000Y-63500000D02*
X96087500Y-63500000D01*
X100750000Y-66440000D02*
X98190000Y-66440000D01*
X96087500Y-63500000D02*
X93837500Y-61250000D01*
X93837500Y-61250000D02*
X91000000Y-58412500D01*
X97250000Y-65500000D02*
X97250000Y-63500000D01*
X91000000Y-58412500D02*
X91000000Y-57575000D01*
X98190000Y-66440000D02*
X97250000Y-65500000D01*
X100775000Y-66465000D02*
X100750000Y-66440000D01*
X105525000Y-66465000D02*
X100775000Y-66465000D01*
%TO.N,/ALERT*%
X63022500Y-64690000D02*
X63250000Y-64462500D01*
X57150000Y-64690000D02*
X63022500Y-64690000D01*
X52500000Y-64690000D02*
X57150000Y-64690000D01*
%TO.N,/GAUGE_ENABLE*%
X59675000Y-72310000D02*
X60000000Y-72635000D01*
X60212500Y-76187500D02*
X62750000Y-76187500D01*
X60000000Y-72635000D02*
X60000000Y-75975000D01*
X60000000Y-75975000D02*
X60212500Y-76187500D01*
X57150000Y-72310000D02*
X52500000Y-72310000D01*
X57150000Y-72310000D02*
X59675000Y-72310000D01*
%TO.N,/VIN*%
X64770000Y-67230000D02*
X65000000Y-67000000D01*
X65000000Y-67000000D02*
X65135717Y-67000000D01*
X69864467Y-62271250D02*
X76336250Y-62271250D01*
X65135717Y-67000000D02*
X69864467Y-62271250D01*
X57150000Y-67230000D02*
X52500000Y-67230000D01*
X57150000Y-67230000D02*
X64770000Y-67230000D01*
%TO.N,/VEN*%
X100775000Y-71545000D02*
X100750000Y-71520000D01*
X87385718Y-67500000D02*
X83456968Y-63571250D01*
X105525000Y-71545000D02*
X100775000Y-71545000D01*
X97770000Y-71520000D02*
X93750000Y-67500000D01*
X83456968Y-63571250D02*
X82076250Y-63571250D01*
X100750000Y-71520000D02*
X97770000Y-71520000D01*
X93750000Y-67500000D02*
X87385718Y-67500000D01*
%TO.N,Net-(BQ35100-Pad10)*%
X82076250Y-64871250D02*
X84121250Y-64871250D01*
X84980000Y-69250000D02*
X87710000Y-69250000D01*
X84121250Y-64871250D02*
X84980000Y-65730000D01*
X87750000Y-69290000D02*
X88047500Y-69587500D01*
X88047500Y-69587500D02*
X91750000Y-69587500D01*
X84980000Y-65730000D02*
X84980000Y-69250000D01*
X87710000Y-69250000D02*
X87750000Y-69290000D01*
%TO.N,Net-(BQ35100-Pad11)*%
X81307331Y-64221250D02*
X82076250Y-64221250D01*
X80000000Y-56750000D02*
X80000000Y-62913919D01*
X80000000Y-62913919D02*
X81307331Y-64221250D01*
X79250000Y-56000000D02*
X80000000Y-56750000D01*
%TO.N,Net-(BQ35100-Pad13)*%
X85921250Y-62921250D02*
X86250000Y-63250000D01*
X86250000Y-63250000D02*
X90412500Y-63250000D01*
X90412500Y-63250000D02*
X90500000Y-63337500D01*
X82076250Y-62921250D02*
X85921250Y-62921250D01*
%TO.N,Net-(BQ35100-Pad14)*%
X82076250Y-62271250D02*
X82978750Y-62271250D01*
X82978750Y-62271250D02*
X86250000Y-59000000D01*
X86250000Y-59000000D02*
X89500000Y-55750000D01*
X89500000Y-55750000D02*
X91000000Y-55750000D01*
%TD*%
%TA.AperFunction,Conductor*%
%TO.N,GND*%
G36*
X109683621Y-51028502D02*
G01*
X109730114Y-51082158D01*
X109741500Y-51134500D01*
X109741500Y-80374000D01*
X109721498Y-80442121D01*
X109667842Y-80488614D01*
X109615500Y-80500000D01*
X48126000Y-80500000D01*
X48057879Y-80479998D01*
X48011386Y-80426342D01*
X48000000Y-80374000D01*
X48000000Y-74816695D01*
X51137251Y-74816695D01*
X51137548Y-74821848D01*
X51137548Y-74821851D01*
X51149302Y-75025695D01*
X51150110Y-75039715D01*
X51151247Y-75044761D01*
X51151248Y-75044767D01*
X51169839Y-75127257D01*
X51199222Y-75257639D01*
X51239346Y-75356453D01*
X51276013Y-75446753D01*
X51283266Y-75464616D01*
X51333287Y-75546243D01*
X51397291Y-75650688D01*
X51399987Y-75655088D01*
X51546250Y-75823938D01*
X51718126Y-75966632D01*
X51911000Y-76079338D01*
X51915825Y-76081180D01*
X51915826Y-76081181D01*
X51975219Y-76103861D01*
X52119692Y-76159030D01*
X52124760Y-76160061D01*
X52124763Y-76160062D01*
X52224881Y-76180431D01*
X52338597Y-76203567D01*
X52343772Y-76203757D01*
X52343774Y-76203757D01*
X52556673Y-76211564D01*
X52556677Y-76211564D01*
X52561837Y-76211753D01*
X52566957Y-76211097D01*
X52566959Y-76211097D01*
X52778288Y-76184025D01*
X52778289Y-76184025D01*
X52783416Y-76183368D01*
X52790896Y-76181124D01*
X52992429Y-76120661D01*
X52992434Y-76120659D01*
X52997384Y-76119174D01*
X53197994Y-76020896D01*
X53379860Y-75891173D01*
X53443350Y-75827905D01*
X53506330Y-75765144D01*
X53538096Y-75733489D01*
X53543626Y-75725794D01*
X53665435Y-75556277D01*
X53668453Y-75552077D01*
X53670746Y-75547437D01*
X53672446Y-75544608D01*
X53724674Y-75496518D01*
X53780451Y-75483500D01*
X55874274Y-75483500D01*
X55942395Y-75503502D01*
X55981707Y-75543665D01*
X56049987Y-75655088D01*
X56196250Y-75823938D01*
X56368126Y-75966632D01*
X56454070Y-76016853D01*
X56502794Y-76068491D01*
X56516500Y-76125641D01*
X56516500Y-78321233D01*
X56515973Y-78332416D01*
X56514298Y-78339909D01*
X56514547Y-78347835D01*
X56514547Y-78347836D01*
X56516438Y-78407986D01*
X56516500Y-78411945D01*
X56516500Y-78439856D01*
X56516997Y-78443790D01*
X56516997Y-78443791D01*
X56517005Y-78443856D01*
X56517938Y-78455693D01*
X56519327Y-78499889D01*
X56524978Y-78519339D01*
X56528987Y-78538700D01*
X56531526Y-78558797D01*
X56534445Y-78566168D01*
X56534445Y-78566170D01*
X56547804Y-78599912D01*
X56551649Y-78611142D01*
X56563982Y-78653593D01*
X56568015Y-78660412D01*
X56568017Y-78660417D01*
X56574293Y-78671028D01*
X56582988Y-78688776D01*
X56590448Y-78707617D01*
X56595110Y-78714033D01*
X56595110Y-78714034D01*
X56616436Y-78743387D01*
X56622952Y-78753307D01*
X56645458Y-78791362D01*
X56659779Y-78805683D01*
X56672619Y-78820716D01*
X56684528Y-78837107D01*
X56690634Y-78842158D01*
X56718605Y-78865298D01*
X56727384Y-78873288D01*
X56746343Y-78892247D01*
X56753887Y-78900537D01*
X56758000Y-78907018D01*
X56800916Y-78947318D01*
X56807667Y-78953658D01*
X56810509Y-78956413D01*
X56830230Y-78976134D01*
X56833425Y-78978612D01*
X56842447Y-78986318D01*
X56874679Y-79016586D01*
X56881628Y-79020406D01*
X56892432Y-79026346D01*
X56908956Y-79037199D01*
X56924959Y-79049613D01*
X56965543Y-79067176D01*
X56976173Y-79072383D01*
X57014940Y-79093695D01*
X57022617Y-79095666D01*
X57022622Y-79095668D01*
X57034558Y-79098732D01*
X57053266Y-79105137D01*
X57071855Y-79113181D01*
X57079680Y-79114420D01*
X57079682Y-79114421D01*
X57115519Y-79120097D01*
X57127140Y-79122504D01*
X57160630Y-79131102D01*
X57169970Y-79133500D01*
X57190231Y-79133500D01*
X57209940Y-79135051D01*
X57229943Y-79138219D01*
X57237835Y-79137473D01*
X57243062Y-79136979D01*
X57273954Y-79134059D01*
X57285811Y-79133500D01*
X77171233Y-79133500D01*
X77182416Y-79134027D01*
X77189909Y-79135702D01*
X77197835Y-79135453D01*
X77197836Y-79135453D01*
X77257986Y-79133562D01*
X77261945Y-79133500D01*
X85295562Y-79133500D01*
X85363683Y-79153502D01*
X85381814Y-79167650D01*
X85420159Y-79203658D01*
X85423002Y-79206413D01*
X85442723Y-79226134D01*
X85445918Y-79228612D01*
X85454940Y-79236318D01*
X85487172Y-79266586D01*
X85498351Y-79272732D01*
X85504925Y-79276346D01*
X85521449Y-79287199D01*
X85537452Y-79299613D01*
X85578036Y-79317176D01*
X85588666Y-79322383D01*
X85627433Y-79343695D01*
X85635110Y-79345666D01*
X85635115Y-79345668D01*
X85647051Y-79348732D01*
X85665759Y-79355137D01*
X85684348Y-79363181D01*
X85692173Y-79364420D01*
X85692175Y-79364421D01*
X85728012Y-79370097D01*
X85739633Y-79372504D01*
X85774782Y-79381528D01*
X85782463Y-79383500D01*
X85802724Y-79383500D01*
X85822433Y-79385051D01*
X85842436Y-79388219D01*
X85850328Y-79387473D01*
X85855555Y-79386979D01*
X85886447Y-79384059D01*
X85898304Y-79383500D01*
X108428207Y-79383500D01*
X108451816Y-79385732D01*
X108452119Y-79385790D01*
X108452123Y-79385790D01*
X108459906Y-79387275D01*
X108515951Y-79383749D01*
X108523862Y-79383500D01*
X108539856Y-79383500D01*
X108555730Y-79381494D01*
X108563590Y-79380752D01*
X108591049Y-79379024D01*
X108611737Y-79377723D01*
X108611738Y-79377723D01*
X108619650Y-79377225D01*
X108627191Y-79374775D01*
X108627487Y-79374679D01*
X108650631Y-79369506D01*
X108650935Y-79369468D01*
X108650940Y-79369467D01*
X108658797Y-79368474D01*
X108666162Y-79365558D01*
X108666166Y-79365557D01*
X108711011Y-79347801D01*
X108718430Y-79345129D01*
X108771875Y-79327764D01*
X108778572Y-79323514D01*
X108778831Y-79323350D01*
X108799958Y-79312585D01*
X108800246Y-79312471D01*
X108800251Y-79312468D01*
X108807617Y-79309552D01*
X108814025Y-79304896D01*
X108814031Y-79304893D01*
X108853052Y-79276542D01*
X108859589Y-79272099D01*
X108907018Y-79242000D01*
X108912659Y-79235993D01*
X108930446Y-79220312D01*
X108930691Y-79220134D01*
X108930693Y-79220132D01*
X108937107Y-79215472D01*
X108942162Y-79209362D01*
X108972903Y-79172204D01*
X108978134Y-79166270D01*
X109011158Y-79131102D01*
X109011160Y-79131099D01*
X109016586Y-79125321D01*
X109020558Y-79118097D01*
X109033881Y-79098494D01*
X109034080Y-79098254D01*
X109034084Y-79098247D01*
X109039133Y-79092144D01*
X109063047Y-79041324D01*
X109066629Y-79034292D01*
X109093695Y-78985060D01*
X109095665Y-78977385D01*
X109095668Y-78977379D01*
X109095744Y-78977081D01*
X109103776Y-78954772D01*
X109103906Y-78954497D01*
X109103909Y-78954489D01*
X109107283Y-78947318D01*
X109117806Y-78892151D01*
X109119532Y-78884429D01*
X109124445Y-78865298D01*
X109133500Y-78830030D01*
X109133500Y-78821793D01*
X109135732Y-78798184D01*
X109135790Y-78797881D01*
X109135790Y-78797877D01*
X109137275Y-78790094D01*
X109133749Y-78734049D01*
X109133500Y-78726138D01*
X109133500Y-67828767D01*
X109134027Y-67817584D01*
X109135702Y-67810091D01*
X109135202Y-67794166D01*
X109133562Y-67742014D01*
X109133500Y-67738055D01*
X109133500Y-64328763D01*
X109134027Y-64317579D01*
X109135701Y-64310091D01*
X109133562Y-64242032D01*
X109133500Y-64238075D01*
X109133500Y-64210144D01*
X109132994Y-64206138D01*
X109132061Y-64194292D01*
X109130922Y-64158037D01*
X109130673Y-64150110D01*
X109125022Y-64130658D01*
X109121014Y-64111306D01*
X109119468Y-64099068D01*
X109119467Y-64099066D01*
X109118474Y-64091203D01*
X109102194Y-64050086D01*
X109098359Y-64038885D01*
X109086018Y-63996406D01*
X109081985Y-63989587D01*
X109081983Y-63989582D01*
X109075707Y-63978971D01*
X109067010Y-63961221D01*
X109059552Y-63942383D01*
X109049806Y-63928968D01*
X109033572Y-63906625D01*
X109027053Y-63896701D01*
X109008578Y-63865460D01*
X109008574Y-63865455D01*
X109004542Y-63858637D01*
X108990218Y-63844313D01*
X108977376Y-63829278D01*
X108976739Y-63828401D01*
X108965472Y-63812893D01*
X108931406Y-63784711D01*
X108922627Y-63776722D01*
X108678652Y-63532747D01*
X108671112Y-63524461D01*
X108667000Y-63517982D01*
X108660642Y-63512011D01*
X108617349Y-63471357D01*
X108614507Y-63468602D01*
X108594770Y-63448865D01*
X108591573Y-63446385D01*
X108582551Y-63438680D01*
X108568827Y-63425792D01*
X108550321Y-63408414D01*
X108543375Y-63404595D01*
X108543372Y-63404593D01*
X108532566Y-63398652D01*
X108516047Y-63387801D01*
X108514656Y-63386722D01*
X108500041Y-63375386D01*
X108492772Y-63372241D01*
X108492768Y-63372238D01*
X108459463Y-63357826D01*
X108448813Y-63352609D01*
X108410060Y-63331305D01*
X108390437Y-63326267D01*
X108371734Y-63319863D01*
X108360420Y-63314967D01*
X108360419Y-63314967D01*
X108353145Y-63311819D01*
X108345322Y-63310580D01*
X108345312Y-63310577D01*
X108309476Y-63304901D01*
X108297856Y-63302495D01*
X108262711Y-63293472D01*
X108262710Y-63293472D01*
X108255030Y-63291500D01*
X108234776Y-63291500D01*
X108215065Y-63289949D01*
X108202886Y-63288020D01*
X108195057Y-63286780D01*
X108187165Y-63287526D01*
X108151039Y-63290941D01*
X108139181Y-63291500D01*
X107009500Y-63291500D01*
X106941379Y-63271498D01*
X106894886Y-63217842D01*
X106883500Y-63165500D01*
X106883500Y-63026866D01*
X106876745Y-62964684D01*
X106825615Y-62828295D01*
X106738261Y-62711739D01*
X106621705Y-62624385D01*
X106485316Y-62573255D01*
X106423134Y-62566500D01*
X104626866Y-62566500D01*
X104564684Y-62573255D01*
X104428295Y-62624385D01*
X104311739Y-62711739D01*
X104224385Y-62828295D01*
X104173255Y-62964684D01*
X104166500Y-63026866D01*
X104166500Y-63140500D01*
X104146498Y-63208621D01*
X104092842Y-63255114D01*
X104040500Y-63266500D01*
X102234500Y-63266500D01*
X102166379Y-63246498D01*
X102119886Y-63192842D01*
X102108500Y-63140500D01*
X102108500Y-63001866D01*
X102101745Y-62939684D01*
X102050615Y-62803295D01*
X101963261Y-62686739D01*
X101846705Y-62599385D01*
X101710316Y-62548255D01*
X101648134Y-62541500D01*
X99851866Y-62541500D01*
X99789684Y-62548255D01*
X99653295Y-62599385D01*
X99536739Y-62686739D01*
X99449385Y-62803295D01*
X99398255Y-62939684D01*
X99391500Y-63001866D01*
X99391500Y-63140500D01*
X99371498Y-63208621D01*
X99317842Y-63255114D01*
X99265500Y-63266500D01*
X98627094Y-63266500D01*
X98558973Y-63246498D01*
X98537999Y-63229595D01*
X96720405Y-61412000D01*
X96686379Y-61349688D01*
X96683500Y-61322905D01*
X96683500Y-60749600D01*
X96683163Y-60746350D01*
X96673238Y-60650692D01*
X96673237Y-60650688D01*
X96672526Y-60643834D01*
X96666475Y-60625695D01*
X96618868Y-60483002D01*
X96616550Y-60476054D01*
X96523478Y-60325652D01*
X96398303Y-60200695D01*
X96392072Y-60196854D01*
X96253968Y-60111725D01*
X96253966Y-60111724D01*
X96247738Y-60107885D01*
X96087254Y-60054655D01*
X96086389Y-60054368D01*
X96086387Y-60054368D01*
X96079861Y-60052203D01*
X96073025Y-60051503D01*
X96073022Y-60051502D01*
X96029969Y-60047091D01*
X95975400Y-60041500D01*
X95349600Y-60041500D01*
X95346354Y-60041837D01*
X95346350Y-60041837D01*
X95250692Y-60051762D01*
X95250688Y-60051763D01*
X95243834Y-60052474D01*
X95237298Y-60054655D01*
X95237296Y-60054655D01*
X95115334Y-60095345D01*
X95076054Y-60108450D01*
X94925652Y-60201522D01*
X94920479Y-60206704D01*
X94839216Y-60288109D01*
X94776934Y-60322188D01*
X94706114Y-60317185D01*
X94661025Y-60288264D01*
X94578483Y-60205866D01*
X94573303Y-60200695D01*
X94567072Y-60196854D01*
X94428968Y-60111725D01*
X94428966Y-60111724D01*
X94422738Y-60107885D01*
X94262254Y-60054655D01*
X94261389Y-60054368D01*
X94261387Y-60054368D01*
X94254861Y-60052203D01*
X94248025Y-60051503D01*
X94248022Y-60051502D01*
X94204969Y-60047091D01*
X94150400Y-60041500D01*
X93577094Y-60041500D01*
X93508973Y-60021498D01*
X93487999Y-60004595D01*
X92010886Y-58527481D01*
X91976860Y-58465169D01*
X91981925Y-58394353D01*
X92010807Y-58349369D01*
X92044133Y-58315984D01*
X92049305Y-58310803D01*
X92088932Y-58246517D01*
X92138275Y-58166468D01*
X92138276Y-58166466D01*
X92142115Y-58160238D01*
X92173302Y-58066213D01*
X92195632Y-57998889D01*
X92195632Y-57998887D01*
X92197797Y-57992361D01*
X92199323Y-57977474D01*
X92205552Y-57916671D01*
X92208500Y-57887900D01*
X92208500Y-57262100D01*
X92208045Y-57257712D01*
X92198238Y-57163192D01*
X92198237Y-57163188D01*
X92197526Y-57156334D01*
X92141550Y-56988554D01*
X92048478Y-56838152D01*
X91961891Y-56751716D01*
X91927812Y-56689434D01*
X91932815Y-56618614D01*
X91961736Y-56573525D01*
X92044134Y-56490983D01*
X92049305Y-56485803D01*
X92053533Y-56478944D01*
X92138275Y-56341468D01*
X92138276Y-56341466D01*
X92142115Y-56335238D01*
X92197797Y-56167361D01*
X92208500Y-56062900D01*
X92208500Y-55437100D01*
X92198821Y-55343814D01*
X92198238Y-55338192D01*
X92198237Y-55338188D01*
X92197526Y-55331334D01*
X92194804Y-55323173D01*
X92143868Y-55170502D01*
X92141550Y-55163554D01*
X92048478Y-55013152D01*
X91923303Y-54888195D01*
X91917072Y-54884354D01*
X91778968Y-54799225D01*
X91778966Y-54799224D01*
X91772738Y-54795385D01*
X91612254Y-54742155D01*
X91611389Y-54741868D01*
X91611387Y-54741868D01*
X91604861Y-54739703D01*
X91598025Y-54739003D01*
X91598022Y-54739002D01*
X91554969Y-54734591D01*
X91500400Y-54729000D01*
X90499600Y-54729000D01*
X90496354Y-54729337D01*
X90496350Y-54729337D01*
X90400692Y-54739262D01*
X90400688Y-54739263D01*
X90393834Y-54739974D01*
X90387298Y-54742155D01*
X90387296Y-54742155D01*
X90274497Y-54779788D01*
X90226054Y-54795950D01*
X90075652Y-54889022D01*
X89950695Y-55014197D01*
X89946853Y-55020429D01*
X89946852Y-55020431D01*
X89924546Y-55056617D01*
X89871774Y-55104110D01*
X89817287Y-55116500D01*
X89578767Y-55116500D01*
X89567584Y-55115973D01*
X89560091Y-55114298D01*
X89552165Y-55114547D01*
X89552164Y-55114547D01*
X89492014Y-55116438D01*
X89488055Y-55116500D01*
X89460144Y-55116500D01*
X89456210Y-55116997D01*
X89456209Y-55116997D01*
X89456144Y-55117005D01*
X89444307Y-55117938D01*
X89412049Y-55118952D01*
X89408030Y-55119078D01*
X89400111Y-55119327D01*
X89380657Y-55124979D01*
X89361300Y-55128987D01*
X89349070Y-55130532D01*
X89349069Y-55130532D01*
X89341203Y-55131526D01*
X89333832Y-55134445D01*
X89333830Y-55134445D01*
X89300088Y-55147804D01*
X89288858Y-55151649D01*
X89254017Y-55161771D01*
X89254016Y-55161771D01*
X89246407Y-55163982D01*
X89239588Y-55168015D01*
X89239583Y-55168017D01*
X89228972Y-55174293D01*
X89211224Y-55182988D01*
X89192383Y-55190448D01*
X89185967Y-55195110D01*
X89185966Y-55195110D01*
X89156613Y-55216436D01*
X89146693Y-55222952D01*
X89115465Y-55241420D01*
X89115462Y-55241422D01*
X89108638Y-55245458D01*
X89094317Y-55259779D01*
X89079284Y-55272619D01*
X89062893Y-55284528D01*
X89054217Y-55295016D01*
X89034702Y-55318605D01*
X89026712Y-55327384D01*
X86828459Y-57525636D01*
X86766147Y-57559662D01*
X86709951Y-57559060D01*
X86657104Y-57546373D01*
X86491524Y-57506620D01*
X86491518Y-57506619D01*
X86486711Y-57505465D01*
X86250000Y-57486835D01*
X86013289Y-57505465D01*
X86008482Y-57506619D01*
X86008476Y-57506620D01*
X85896248Y-57533564D01*
X85782406Y-57560895D01*
X85777835Y-57562788D01*
X85777833Y-57562789D01*
X85567611Y-57649865D01*
X85567607Y-57649867D01*
X85563037Y-57651760D01*
X85558817Y-57654346D01*
X85364798Y-57773241D01*
X85364792Y-57773245D01*
X85360584Y-57775824D01*
X85275542Y-57848457D01*
X85195674Y-57916671D01*
X85180031Y-57930031D01*
X85025824Y-58110584D01*
X85023245Y-58114792D01*
X85023241Y-58114798D01*
X84939990Y-58250652D01*
X84901760Y-58313037D01*
X84899867Y-58317607D01*
X84899865Y-58317611D01*
X84812935Y-58527481D01*
X84810895Y-58532406D01*
X84801836Y-58570139D01*
X84765830Y-58720117D01*
X84755465Y-58763289D01*
X84736835Y-59000000D01*
X84755465Y-59236711D01*
X84756619Y-59241518D01*
X84756620Y-59241524D01*
X84809060Y-59459951D01*
X84805513Y-59530859D01*
X84775636Y-59578460D01*
X82833250Y-61520845D01*
X82770938Y-61554871D01*
X82744155Y-61557750D01*
X81299010Y-61557750D01*
X81207725Y-61568797D01*
X81200201Y-61571776D01*
X81200197Y-61571777D01*
X81073116Y-61622092D01*
X81073114Y-61622093D01*
X81065133Y-61625253D01*
X81058295Y-61630443D01*
X81058292Y-61630445D01*
X80955327Y-61708600D01*
X80942975Y-61717975D01*
X80937784Y-61724814D01*
X80859863Y-61827472D01*
X80802745Y-61869639D01*
X80731897Y-61874232D01*
X80669813Y-61839793D01*
X80636204Y-61777256D01*
X80633500Y-61751293D01*
X80633500Y-56828767D01*
X80634027Y-56817584D01*
X80635702Y-56810091D01*
X80634455Y-56770405D01*
X80633562Y-56742014D01*
X80633500Y-56738055D01*
X80633500Y-56710144D01*
X80632995Y-56706144D01*
X80632062Y-56694301D01*
X80631491Y-56676117D01*
X80630673Y-56650110D01*
X80625022Y-56630658D01*
X80621014Y-56611306D01*
X80619467Y-56599063D01*
X80618474Y-56591203D01*
X80615556Y-56583832D01*
X80602200Y-56550097D01*
X80598355Y-56538870D01*
X80597721Y-56536687D01*
X80586018Y-56496407D01*
X80581984Y-56489585D01*
X80581981Y-56489579D01*
X80575706Y-56478968D01*
X80567010Y-56461218D01*
X80562472Y-56449756D01*
X80562469Y-56449751D01*
X80559552Y-56442383D01*
X80541230Y-56417165D01*
X80517374Y-56350302D01*
X80521461Y-56310500D01*
X80543543Y-56228087D01*
X80563498Y-56000000D01*
X80543543Y-55771913D01*
X80487508Y-55562789D01*
X80485707Y-55556067D01*
X80485706Y-55556065D01*
X80484284Y-55550757D01*
X80458751Y-55496000D01*
X80389849Y-55348238D01*
X80389846Y-55348233D01*
X80387523Y-55343251D01*
X80303779Y-55223652D01*
X80259357Y-55160211D01*
X80259355Y-55160208D01*
X80256198Y-55155700D01*
X80094300Y-54993802D01*
X80089792Y-54990645D01*
X80089789Y-54990643D01*
X79985178Y-54917394D01*
X79906749Y-54862477D01*
X79901767Y-54860154D01*
X79901762Y-54860151D01*
X79704225Y-54768039D01*
X79704224Y-54768039D01*
X79699243Y-54765716D01*
X79693935Y-54764294D01*
X79693933Y-54764293D01*
X79483402Y-54707881D01*
X79483400Y-54707881D01*
X79478087Y-54706457D01*
X79250000Y-54686502D01*
X79021913Y-54706457D01*
X79016600Y-54707881D01*
X79016598Y-54707881D01*
X78806067Y-54764293D01*
X78806065Y-54764294D01*
X78800757Y-54765716D01*
X78795776Y-54768039D01*
X78795775Y-54768039D01*
X78598238Y-54860151D01*
X78598233Y-54860154D01*
X78593251Y-54862477D01*
X78514822Y-54917394D01*
X78410211Y-54990643D01*
X78410208Y-54990645D01*
X78405700Y-54993802D01*
X78243802Y-55155700D01*
X78240645Y-55160208D01*
X78240643Y-55160211D01*
X78196221Y-55223652D01*
X78112477Y-55343251D01*
X78110154Y-55348233D01*
X78109118Y-55350027D01*
X78057734Y-55399019D01*
X77988021Y-55412454D01*
X77922110Y-55386066D01*
X77890882Y-55350027D01*
X77889846Y-55348233D01*
X77887523Y-55343251D01*
X77803779Y-55223652D01*
X77759357Y-55160211D01*
X77759355Y-55160208D01*
X77756198Y-55155700D01*
X77594300Y-54993802D01*
X77589792Y-54990645D01*
X77589789Y-54990643D01*
X77485178Y-54917394D01*
X77406749Y-54862477D01*
X77401767Y-54860154D01*
X77401762Y-54860151D01*
X77204225Y-54768039D01*
X77204224Y-54768039D01*
X77199243Y-54765716D01*
X77193935Y-54764294D01*
X77193933Y-54764293D01*
X76983402Y-54707881D01*
X76983400Y-54707881D01*
X76978087Y-54706457D01*
X76750000Y-54686502D01*
X76521913Y-54706457D01*
X76516600Y-54707881D01*
X76516598Y-54707881D01*
X76306067Y-54764293D01*
X76306065Y-54764294D01*
X76300757Y-54765716D01*
X76295776Y-54768039D01*
X76295775Y-54768039D01*
X76098238Y-54860151D01*
X76098233Y-54860154D01*
X76093251Y-54862477D01*
X76014822Y-54917394D01*
X75910211Y-54990643D01*
X75910208Y-54990645D01*
X75905700Y-54993802D01*
X75743802Y-55155700D01*
X75740645Y-55160208D01*
X75740643Y-55160211D01*
X75696221Y-55223652D01*
X75612477Y-55343251D01*
X75610154Y-55348233D01*
X75610151Y-55348238D01*
X75541249Y-55496000D01*
X75515716Y-55550757D01*
X75514294Y-55556065D01*
X75514293Y-55556067D01*
X75512492Y-55562789D01*
X75456457Y-55771913D01*
X75436502Y-56000000D01*
X75436981Y-56005475D01*
X75456457Y-56228087D01*
X75454202Y-56228284D01*
X75447394Y-56289205D01*
X75402615Y-56344299D01*
X75331188Y-56366500D01*
X73701566Y-56366500D01*
X73633445Y-56346498D01*
X73594133Y-56306335D01*
X73476759Y-56114798D01*
X73476755Y-56114792D01*
X73474176Y-56110584D01*
X73319969Y-55930031D01*
X73139416Y-55775824D01*
X73135208Y-55773245D01*
X73135202Y-55773241D01*
X72941183Y-55654346D01*
X72936963Y-55651760D01*
X72932393Y-55649867D01*
X72932389Y-55649865D01*
X72722167Y-55562789D01*
X72722165Y-55562788D01*
X72717594Y-55560895D01*
X72637391Y-55541640D01*
X72491524Y-55506620D01*
X72491518Y-55506619D01*
X72486711Y-55505465D01*
X72250000Y-55486835D01*
X72013289Y-55505465D01*
X72008482Y-55506619D01*
X72008476Y-55506620D01*
X71845385Y-55545775D01*
X71790049Y-55559060D01*
X71719142Y-55555513D01*
X71671541Y-55525636D01*
X71503652Y-55357747D01*
X71496112Y-55349461D01*
X71492000Y-55342982D01*
X71442348Y-55296356D01*
X71439507Y-55293602D01*
X71419770Y-55273865D01*
X71416573Y-55271385D01*
X71407551Y-55263680D01*
X71394122Y-55251069D01*
X71375321Y-55233414D01*
X71368375Y-55229595D01*
X71368372Y-55229593D01*
X71357566Y-55223652D01*
X71341047Y-55212801D01*
X71340583Y-55212441D01*
X71325041Y-55200386D01*
X71317772Y-55197241D01*
X71317768Y-55197238D01*
X71284463Y-55182826D01*
X71273813Y-55177609D01*
X71235060Y-55156305D01*
X71215437Y-55151267D01*
X71196734Y-55144863D01*
X71185420Y-55139967D01*
X71185419Y-55139967D01*
X71178145Y-55136819D01*
X71170322Y-55135580D01*
X71170312Y-55135577D01*
X71134476Y-55129901D01*
X71122856Y-55127495D01*
X71087711Y-55118472D01*
X71087710Y-55118472D01*
X71080030Y-55116500D01*
X71059776Y-55116500D01*
X71040065Y-55114949D01*
X71027886Y-55113020D01*
X71020057Y-55111780D01*
X70990786Y-55114547D01*
X70976039Y-55115941D01*
X70964181Y-55116500D01*
X69445499Y-55116500D01*
X69377378Y-55096498D01*
X69338356Y-55056805D01*
X69332605Y-55047512D01*
X69332601Y-55047507D01*
X69328752Y-55041287D01*
X69207702Y-54920448D01*
X69201471Y-54916607D01*
X69068331Y-54834538D01*
X69068329Y-54834537D01*
X69062101Y-54830698D01*
X68899757Y-54776851D01*
X68892920Y-54776151D01*
X68892918Y-54776150D01*
X68851599Y-54771917D01*
X68798732Y-54766500D01*
X68251268Y-54766500D01*
X68248022Y-54766837D01*
X68248018Y-54766837D01*
X68218730Y-54769876D01*
X68148981Y-54777113D01*
X68140963Y-54779788D01*
X67993676Y-54828927D01*
X67993674Y-54828928D01*
X67986732Y-54831244D01*
X67841287Y-54921248D01*
X67836114Y-54926430D01*
X67830377Y-54930977D01*
X67828945Y-54929170D01*
X67776425Y-54957902D01*
X67705605Y-54952892D01*
X67669147Y-54929501D01*
X67668317Y-54930552D01*
X67651160Y-54917002D01*
X67518120Y-54834996D01*
X67504939Y-54828849D01*
X67356186Y-54779509D01*
X67342810Y-54776642D01*
X67251903Y-54767328D01*
X67246874Y-54767071D01*
X67231876Y-54771475D01*
X67230671Y-54772865D01*
X67229000Y-54780548D01*
X67229000Y-55878000D01*
X67208998Y-55946121D01*
X67155342Y-55992614D01*
X67103000Y-56004000D01*
X66035115Y-56004000D01*
X66019876Y-56008475D01*
X66018671Y-56009865D01*
X66017000Y-56017548D01*
X66017000Y-56045438D01*
X66017337Y-56051953D01*
X66026894Y-56144057D01*
X66029788Y-56157456D01*
X66079381Y-56306107D01*
X66085555Y-56319286D01*
X66167788Y-56452173D01*
X66176824Y-56463574D01*
X66287429Y-56573986D01*
X66298840Y-56582998D01*
X66431880Y-56665004D01*
X66445061Y-56671151D01*
X66552281Y-56706715D01*
X66610641Y-56747146D01*
X66637877Y-56812711D01*
X66634907Y-56846553D01*
X66636818Y-56846856D01*
X66629901Y-56890524D01*
X66627495Y-56902144D01*
X66616500Y-56944970D01*
X66616500Y-56965224D01*
X66614949Y-56984934D01*
X66611780Y-57004943D01*
X66612526Y-57012835D01*
X66615941Y-57048961D01*
X66616500Y-57060819D01*
X66616500Y-57848550D01*
X66596498Y-57916671D01*
X66542842Y-57963164D01*
X66503504Y-57973877D01*
X66495865Y-57974669D01*
X66475692Y-57976762D01*
X66475688Y-57976763D01*
X66468834Y-57977474D01*
X66462298Y-57979655D01*
X66462296Y-57979655D01*
X66400704Y-58000204D01*
X66301054Y-58033450D01*
X66150652Y-58126522D01*
X66025695Y-58251697D01*
X66021855Y-58257927D01*
X66021854Y-58257928D01*
X65965017Y-58350135D01*
X65932885Y-58402262D01*
X65877203Y-58570139D01*
X65876503Y-58576975D01*
X65876502Y-58576978D01*
X65872306Y-58617931D01*
X65866500Y-58674600D01*
X65866500Y-59400400D01*
X65866837Y-59403646D01*
X65866837Y-59403650D01*
X65875755Y-59489596D01*
X65877474Y-59506166D01*
X65879655Y-59512702D01*
X65879655Y-59512704D01*
X65918036Y-59627745D01*
X65933450Y-59673946D01*
X66026522Y-59824348D01*
X66151697Y-59949305D01*
X66157927Y-59953145D01*
X66157928Y-59953146D01*
X66295090Y-60037694D01*
X66302262Y-60042115D01*
X66374916Y-60066213D01*
X66463611Y-60095632D01*
X66463613Y-60095632D01*
X66470139Y-60097797D01*
X66476975Y-60098497D01*
X66476978Y-60098498D01*
X66520031Y-60102909D01*
X66574600Y-60108500D01*
X67925400Y-60108500D01*
X67928646Y-60108163D01*
X67928650Y-60108163D01*
X68024308Y-60098238D01*
X68024312Y-60098237D01*
X68031166Y-60097526D01*
X68037702Y-60095345D01*
X68037704Y-60095345D01*
X68169806Y-60051272D01*
X68198946Y-60041550D01*
X68349348Y-59948478D01*
X68474305Y-59823303D01*
X68494443Y-59790634D01*
X68563275Y-59678968D01*
X68563276Y-59678966D01*
X68567115Y-59672738D01*
X68614174Y-59530859D01*
X68620632Y-59511389D01*
X68620632Y-59511387D01*
X68622797Y-59504861D01*
X68633500Y-59400400D01*
X68633500Y-58674600D01*
X68633163Y-58671350D01*
X68623238Y-58575692D01*
X68623237Y-58575688D01*
X68622526Y-58568834D01*
X68609442Y-58529615D01*
X68568868Y-58408002D01*
X68566550Y-58401054D01*
X68473478Y-58250652D01*
X68348303Y-58125695D01*
X68323789Y-58110584D01*
X68203968Y-58036725D01*
X68203966Y-58036724D01*
X68197738Y-58032885D01*
X68079496Y-57993666D01*
X68036389Y-57979368D01*
X68036387Y-57979368D01*
X68029861Y-57977203D01*
X68023023Y-57976502D01*
X68023021Y-57976502D01*
X67996658Y-57973801D01*
X67930930Y-57946960D01*
X67890148Y-57888845D01*
X67883500Y-57848457D01*
X67883500Y-57339594D01*
X67903502Y-57271473D01*
X67920405Y-57250499D01*
X68400499Y-56770405D01*
X68462811Y-56736379D01*
X68489594Y-56733500D01*
X68798732Y-56733500D01*
X68801978Y-56733163D01*
X68801982Y-56733163D01*
X68836083Y-56729625D01*
X68901019Y-56722887D01*
X68951009Y-56706209D01*
X69056324Y-56671073D01*
X69056326Y-56671072D01*
X69063268Y-56668756D01*
X69208713Y-56578752D01*
X69214172Y-56573284D01*
X69324381Y-56462882D01*
X69329552Y-56457702D01*
X69334450Y-56449756D01*
X69338379Y-56443383D01*
X69391152Y-56395890D01*
X69445638Y-56383500D01*
X70685406Y-56383500D01*
X70753527Y-56403502D01*
X70774501Y-56420405D01*
X70775636Y-56421540D01*
X70809662Y-56483852D01*
X70809060Y-56540049D01*
X70759341Y-56747146D01*
X70755465Y-56763289D01*
X70736835Y-57000000D01*
X70755465Y-57236711D01*
X70756619Y-57241518D01*
X70756620Y-57241524D01*
X70773785Y-57313019D01*
X70810895Y-57467594D01*
X70812788Y-57472165D01*
X70812789Y-57472167D01*
X70888250Y-57654346D01*
X70901760Y-57686963D01*
X70904346Y-57691183D01*
X71023241Y-57885202D01*
X71023245Y-57885208D01*
X71025824Y-57889416D01*
X71180031Y-58069969D01*
X71360584Y-58224176D01*
X71364792Y-58226755D01*
X71364798Y-58226759D01*
X71503651Y-58311848D01*
X71563037Y-58348240D01*
X71567607Y-58350133D01*
X71567611Y-58350135D01*
X71776853Y-58436805D01*
X71782406Y-58439105D01*
X71862609Y-58458360D01*
X72008476Y-58493380D01*
X72008482Y-58493381D01*
X72013289Y-58494535D01*
X72250000Y-58513165D01*
X72486711Y-58494535D01*
X72491518Y-58493381D01*
X72491524Y-58493380D01*
X72637391Y-58458360D01*
X72717594Y-58439105D01*
X72723147Y-58436805D01*
X72932389Y-58350135D01*
X72932393Y-58350133D01*
X72936963Y-58348240D01*
X72996349Y-58311848D01*
X73135202Y-58226759D01*
X73135208Y-58226755D01*
X73139416Y-58224176D01*
X73319969Y-58069969D01*
X73474176Y-57889416D01*
X73476755Y-57885208D01*
X73476759Y-57885202D01*
X73594133Y-57693665D01*
X73646781Y-57646034D01*
X73701566Y-57633500D01*
X75671233Y-57633500D01*
X75682416Y-57634027D01*
X75689909Y-57635702D01*
X75697835Y-57635453D01*
X75697836Y-57635453D01*
X75757986Y-57633562D01*
X75761945Y-57633500D01*
X75789856Y-57633500D01*
X75793791Y-57633003D01*
X75793856Y-57632995D01*
X75805693Y-57632062D01*
X75837951Y-57631048D01*
X75841970Y-57630922D01*
X75849889Y-57630673D01*
X75869343Y-57625021D01*
X75888700Y-57621013D01*
X75900930Y-57619468D01*
X75900931Y-57619468D01*
X75908797Y-57618474D01*
X75916168Y-57615555D01*
X75916170Y-57615555D01*
X75949912Y-57602196D01*
X75961142Y-57598351D01*
X75995983Y-57588229D01*
X75995984Y-57588229D01*
X76003593Y-57586018D01*
X76010412Y-57581985D01*
X76010417Y-57581983D01*
X76021028Y-57575707D01*
X76038776Y-57567012D01*
X76057617Y-57559552D01*
X76093387Y-57533564D01*
X76103307Y-57527048D01*
X76134535Y-57508580D01*
X76134538Y-57508578D01*
X76141362Y-57504542D01*
X76155683Y-57490221D01*
X76170717Y-57477380D01*
X76180694Y-57470131D01*
X76187107Y-57465472D01*
X76215298Y-57431395D01*
X76223288Y-57422616D01*
X76336752Y-57309152D01*
X76399064Y-57275126D01*
X76458459Y-57276541D01*
X76516591Y-57292118D01*
X76516602Y-57292120D01*
X76521913Y-57293543D01*
X76750000Y-57313498D01*
X76978087Y-57293543D01*
X76983398Y-57292120D01*
X76983409Y-57292118D01*
X77041541Y-57276541D01*
X77112517Y-57278230D01*
X77163248Y-57309152D01*
X78329595Y-58475499D01*
X78363621Y-58537811D01*
X78366500Y-58564594D01*
X78366500Y-59489596D01*
X78346498Y-59557717D01*
X78292842Y-59604210D01*
X78248415Y-59615347D01*
X78242728Y-59615705D01*
X78234045Y-59616251D01*
X78226138Y-59616500D01*
X71328768Y-59616500D01*
X71317585Y-59615973D01*
X71310092Y-59614298D01*
X71302166Y-59614547D01*
X71302165Y-59614547D01*
X71242002Y-59616438D01*
X71238044Y-59616500D01*
X71210144Y-59616500D01*
X71206154Y-59617004D01*
X71194320Y-59617936D01*
X71150111Y-59619326D01*
X71142497Y-59621538D01*
X71142492Y-59621539D01*
X71130659Y-59624977D01*
X71111296Y-59628988D01*
X71091203Y-59631526D01*
X71083836Y-59634443D01*
X71083831Y-59634444D01*
X71050092Y-59647802D01*
X71038865Y-59651646D01*
X70996407Y-59663982D01*
X70989581Y-59668019D01*
X70978972Y-59674293D01*
X70961224Y-59682988D01*
X70942383Y-59690448D01*
X70935967Y-59695110D01*
X70935966Y-59695110D01*
X70906613Y-59716436D01*
X70896693Y-59722952D01*
X70865465Y-59741420D01*
X70865462Y-59741422D01*
X70858638Y-59745458D01*
X70844317Y-59759779D01*
X70829284Y-59772619D01*
X70812893Y-59784528D01*
X70807842Y-59790634D01*
X70784702Y-59818605D01*
X70776712Y-59827384D01*
X69312000Y-61292095D01*
X69249688Y-61326121D01*
X69222905Y-61329000D01*
X68638575Y-61329000D01*
X68570454Y-61308998D01*
X68531431Y-61269303D01*
X68518567Y-61248514D01*
X68473478Y-61175652D01*
X68348303Y-61050695D01*
X68197738Y-60957885D01*
X68050984Y-60909209D01*
X68036389Y-60904368D01*
X68036387Y-60904368D01*
X68029861Y-60902203D01*
X68023025Y-60901503D01*
X68023022Y-60901502D01*
X67969632Y-60896032D01*
X67925400Y-60891500D01*
X66574600Y-60891500D01*
X66571354Y-60891837D01*
X66571350Y-60891837D01*
X66468834Y-60902474D01*
X66468805Y-60902193D01*
X66451880Y-60904000D01*
X64638575Y-60904000D01*
X64570454Y-60883998D01*
X64531431Y-60844303D01*
X64510276Y-60810116D01*
X64473478Y-60750652D01*
X64348303Y-60625695D01*
X64342072Y-60621854D01*
X64203968Y-60536725D01*
X64203966Y-60536724D01*
X64197738Y-60532885D01*
X64117995Y-60506436D01*
X64036389Y-60479368D01*
X64036387Y-60479368D01*
X64029861Y-60477203D01*
X64023025Y-60476503D01*
X64023022Y-60476502D01*
X63979969Y-60472091D01*
X63925400Y-60466500D01*
X62574600Y-60466500D01*
X62571354Y-60466837D01*
X62571350Y-60466837D01*
X62475692Y-60476762D01*
X62475688Y-60476763D01*
X62468834Y-60477474D01*
X62462298Y-60479655D01*
X62462296Y-60479655D01*
X62421158Y-60493380D01*
X62301054Y-60533450D01*
X62150652Y-60626522D01*
X62025695Y-60751697D01*
X62021855Y-60757927D01*
X62021854Y-60757928D01*
X61939317Y-60891828D01*
X61932885Y-60902262D01*
X61877203Y-61070139D01*
X61866500Y-61174600D01*
X61866500Y-61900400D01*
X61866837Y-61903646D01*
X61866837Y-61903650D01*
X61875042Y-61982725D01*
X61877474Y-62006166D01*
X61879655Y-62012702D01*
X61879655Y-62012704D01*
X61901853Y-62079238D01*
X61933450Y-62173946D01*
X62026522Y-62324348D01*
X62151697Y-62449305D01*
X62157927Y-62453145D01*
X62157928Y-62453146D01*
X62295090Y-62537694D01*
X62302262Y-62542115D01*
X62355506Y-62559775D01*
X62463611Y-62595632D01*
X62463613Y-62595632D01*
X62470139Y-62597797D01*
X62476975Y-62598497D01*
X62476978Y-62598498D01*
X62520031Y-62602909D01*
X62574600Y-62608500D01*
X63925400Y-62608500D01*
X63928646Y-62608163D01*
X63928650Y-62608163D01*
X64024308Y-62598238D01*
X64024312Y-62598237D01*
X64031166Y-62597526D01*
X64037702Y-62595345D01*
X64037704Y-62595345D01*
X64181405Y-62547402D01*
X64198946Y-62541550D01*
X64349348Y-62448478D01*
X64474305Y-62323303D01*
X64478499Y-62316500D01*
X64522783Y-62244658D01*
X64531273Y-62230884D01*
X64584045Y-62183391D01*
X64638533Y-62171000D01*
X65740500Y-62171000D01*
X65808621Y-62191002D01*
X65855114Y-62244658D01*
X65866500Y-62297000D01*
X65866500Y-62325400D01*
X65866837Y-62328646D01*
X65866837Y-62328650D01*
X65876535Y-62422115D01*
X65877474Y-62431166D01*
X65879655Y-62437702D01*
X65879655Y-62437704D01*
X65916538Y-62548255D01*
X65933450Y-62598946D01*
X66026522Y-62749348D01*
X66151697Y-62874305D01*
X66157927Y-62878145D01*
X66157928Y-62878146D01*
X66291487Y-62960473D01*
X66302262Y-62967115D01*
X66318618Y-62972540D01*
X66463611Y-63020632D01*
X66463613Y-63020632D01*
X66470139Y-63022797D01*
X66476975Y-63023497D01*
X66476978Y-63023498D01*
X66509852Y-63026866D01*
X66574600Y-63033500D01*
X67902122Y-63033500D01*
X67970243Y-63053502D01*
X68016736Y-63107158D01*
X68026840Y-63177432D01*
X67997346Y-63242012D01*
X67991217Y-63248595D01*
X64887182Y-66352630D01*
X64840341Y-66379350D01*
X64841202Y-66381526D01*
X64800097Y-66397800D01*
X64788869Y-66401645D01*
X64746407Y-66413982D01*
X64739584Y-66418017D01*
X64739582Y-66418018D01*
X64728972Y-66424293D01*
X64711224Y-66432988D01*
X64692383Y-66440448D01*
X64685967Y-66445110D01*
X64685966Y-66445110D01*
X64656613Y-66466436D01*
X64646693Y-66472952D01*
X64615465Y-66491420D01*
X64615462Y-66491422D01*
X64608638Y-66495458D01*
X64594314Y-66509782D01*
X64579287Y-66522617D01*
X64562893Y-66534528D01*
X64557839Y-66540637D01*
X64557837Y-66540639D01*
X64549418Y-66550816D01*
X64490584Y-66590554D01*
X64452334Y-66596500D01*
X58426805Y-66596500D01*
X58358684Y-66576498D01*
X58321013Y-66538940D01*
X58232822Y-66402617D01*
X58232820Y-66402614D01*
X58230014Y-66398277D01*
X58079670Y-66233051D01*
X58075619Y-66229852D01*
X58075615Y-66229848D01*
X57908414Y-66097800D01*
X57908410Y-66097798D01*
X57904359Y-66094598D01*
X57863053Y-66071796D01*
X57813084Y-66021364D01*
X57798312Y-65951921D01*
X57823428Y-65885516D01*
X57850780Y-65858909D01*
X57910246Y-65816492D01*
X58029860Y-65731173D01*
X58042588Y-65718490D01*
X58111209Y-65650107D01*
X58188096Y-65573489D01*
X58224717Y-65522526D01*
X58315435Y-65396277D01*
X58318453Y-65392077D01*
X58320746Y-65387437D01*
X58322446Y-65384608D01*
X58374674Y-65336518D01*
X58430451Y-65323500D01*
X62048678Y-65323500D01*
X62116799Y-65343502D01*
X62137689Y-65360322D01*
X62151697Y-65374305D01*
X62187342Y-65396277D01*
X62295090Y-65462694D01*
X62302262Y-65467115D01*
X62373333Y-65490688D01*
X62463611Y-65520632D01*
X62463613Y-65520632D01*
X62470139Y-65522797D01*
X62476975Y-65523497D01*
X62476978Y-65523498D01*
X62520031Y-65527909D01*
X62574600Y-65533500D01*
X63925400Y-65533500D01*
X63928646Y-65533163D01*
X63928650Y-65533163D01*
X64024308Y-65523238D01*
X64024312Y-65523237D01*
X64031166Y-65522526D01*
X64037702Y-65520345D01*
X64037704Y-65520345D01*
X64184145Y-65471488D01*
X64198946Y-65466550D01*
X64349348Y-65373478D01*
X64474305Y-65248303D01*
X64478146Y-65242072D01*
X64563275Y-65103968D01*
X64563276Y-65103966D01*
X64567115Y-65097738D01*
X64595123Y-65013297D01*
X64620632Y-64936389D01*
X64620632Y-64936387D01*
X64622797Y-64929861D01*
X64633500Y-64825400D01*
X64633500Y-64099600D01*
X64630880Y-64074348D01*
X64623238Y-64000692D01*
X64623237Y-64000688D01*
X64622526Y-63993834D01*
X64617568Y-63978971D01*
X64575077Y-63851613D01*
X64566550Y-63826054D01*
X64473478Y-63675652D01*
X64348303Y-63550695D01*
X64342072Y-63546854D01*
X64203968Y-63461725D01*
X64203966Y-63461724D01*
X64197738Y-63457885D01*
X64100980Y-63425792D01*
X64036389Y-63404368D01*
X64036387Y-63404368D01*
X64029861Y-63402203D01*
X64023025Y-63401503D01*
X64023022Y-63401502D01*
X63979969Y-63397091D01*
X63925400Y-63391500D01*
X62574600Y-63391500D01*
X62571354Y-63391837D01*
X62571350Y-63391837D01*
X62475692Y-63401762D01*
X62475688Y-63401763D01*
X62468834Y-63402474D01*
X62462298Y-63404655D01*
X62462296Y-63404655D01*
X62360312Y-63438680D01*
X62301054Y-63458450D01*
X62150652Y-63551522D01*
X62025695Y-63676697D01*
X62021855Y-63682927D01*
X62021854Y-63682928D01*
X61955951Y-63789843D01*
X61932885Y-63827262D01*
X61903522Y-63915791D01*
X61885486Y-63970167D01*
X61845056Y-64028527D01*
X61779492Y-64055764D01*
X61765893Y-64056500D01*
X58426805Y-64056500D01*
X58358684Y-64036498D01*
X58321013Y-63998940D01*
X58232822Y-63862617D01*
X58232820Y-63862614D01*
X58230014Y-63858277D01*
X58226540Y-63854459D01*
X58226533Y-63854450D01*
X58082435Y-63696088D01*
X58051383Y-63632242D01*
X58059779Y-63561744D01*
X58104956Y-63506976D01*
X58131400Y-63493307D01*
X58238052Y-63453325D01*
X58253649Y-63444786D01*
X58355724Y-63368285D01*
X58368285Y-63355724D01*
X58444786Y-63253649D01*
X58453324Y-63238054D01*
X58498478Y-63117606D01*
X58502105Y-63102351D01*
X58507631Y-63051486D01*
X58508000Y-63044672D01*
X58508000Y-62422115D01*
X58503525Y-62406876D01*
X58502135Y-62405671D01*
X58494452Y-62404000D01*
X55810116Y-62404000D01*
X55794877Y-62408475D01*
X55793672Y-62409865D01*
X55792001Y-62417548D01*
X55792001Y-63044669D01*
X55792371Y-63051490D01*
X55797895Y-63102352D01*
X55801521Y-63117604D01*
X55846676Y-63238054D01*
X55855214Y-63253649D01*
X55931715Y-63355724D01*
X55944276Y-63368285D01*
X56046351Y-63444786D01*
X56061946Y-63453324D01*
X56170827Y-63494142D01*
X56227591Y-63536784D01*
X56252291Y-63603345D01*
X56237083Y-63672694D01*
X56217691Y-63699175D01*
X56094200Y-63828401D01*
X56090629Y-63832138D01*
X56087715Y-63836410D01*
X56087714Y-63836411D01*
X55975095Y-64001504D01*
X55920184Y-64046507D01*
X55871007Y-64056500D01*
X53776805Y-64056500D01*
X53708684Y-64036498D01*
X53671013Y-63998940D01*
X53582822Y-63862617D01*
X53582820Y-63862614D01*
X53580014Y-63858277D01*
X53576540Y-63854459D01*
X53576533Y-63854450D01*
X53432435Y-63696088D01*
X53401383Y-63632242D01*
X53409779Y-63561744D01*
X53454956Y-63506976D01*
X53481400Y-63493307D01*
X53588052Y-63453325D01*
X53603649Y-63444786D01*
X53705724Y-63368285D01*
X53718285Y-63355724D01*
X53794786Y-63253649D01*
X53803324Y-63238054D01*
X53848478Y-63117606D01*
X53852105Y-63102351D01*
X53857631Y-63051486D01*
X53858000Y-63044672D01*
X53858000Y-62422115D01*
X53853525Y-62406876D01*
X53852135Y-62405671D01*
X53844452Y-62404000D01*
X51160116Y-62404000D01*
X51144877Y-62408475D01*
X51143672Y-62409865D01*
X51142001Y-62417548D01*
X51142001Y-63044669D01*
X51142371Y-63051490D01*
X51147895Y-63102352D01*
X51151521Y-63117604D01*
X51196676Y-63238054D01*
X51205214Y-63253649D01*
X51281715Y-63355724D01*
X51294276Y-63368285D01*
X51396351Y-63444786D01*
X51411946Y-63453324D01*
X51520827Y-63494142D01*
X51577591Y-63536784D01*
X51602291Y-63603345D01*
X51587083Y-63672694D01*
X51567691Y-63699175D01*
X51444200Y-63828401D01*
X51440629Y-63832138D01*
X51437715Y-63836410D01*
X51437714Y-63836411D01*
X51419838Y-63862617D01*
X51314743Y-64016680D01*
X51288460Y-64073303D01*
X51223105Y-64214099D01*
X51220688Y-64219305D01*
X51160989Y-64434570D01*
X51137251Y-64656695D01*
X51137548Y-64661848D01*
X51137548Y-64661851D01*
X51148559Y-64852817D01*
X51150110Y-64879715D01*
X51151247Y-64884761D01*
X51151248Y-64884767D01*
X51161411Y-64929861D01*
X51199222Y-65097639D01*
X51241036Y-65200615D01*
X51268685Y-65268706D01*
X51283266Y-65304616D01*
X51328688Y-65378738D01*
X51397291Y-65490688D01*
X51399987Y-65495088D01*
X51546250Y-65663938D01*
X51718126Y-65806632D01*
X51743582Y-65821507D01*
X51791445Y-65849476D01*
X51840169Y-65901114D01*
X51853240Y-65970897D01*
X51826509Y-66036669D01*
X51786055Y-66070027D01*
X51773607Y-66076507D01*
X51769474Y-66079610D01*
X51769471Y-66079612D01*
X51599801Y-66207004D01*
X51594965Y-66210635D01*
X51591393Y-66214373D01*
X51451512Y-66360750D01*
X51440629Y-66372138D01*
X51437715Y-66376410D01*
X51437714Y-66376411D01*
X51412085Y-66413982D01*
X51314743Y-66556680D01*
X51283640Y-66623686D01*
X51223583Y-66753069D01*
X51220688Y-66759305D01*
X51160989Y-66974570D01*
X51137251Y-67196695D01*
X51150110Y-67419715D01*
X51151247Y-67424761D01*
X51151248Y-67424767D01*
X51174299Y-67527048D01*
X51199222Y-67637639D01*
X51250913Y-67764940D01*
X51276662Y-67828351D01*
X51283266Y-67844616D01*
X51324736Y-67912289D01*
X51397291Y-68030688D01*
X51399987Y-68035088D01*
X51546250Y-68203938D01*
X51718126Y-68346632D01*
X51788595Y-68387811D01*
X51791445Y-68389476D01*
X51840169Y-68441114D01*
X51853240Y-68510897D01*
X51826509Y-68576669D01*
X51786055Y-68610027D01*
X51773607Y-68616507D01*
X51769474Y-68619610D01*
X51769471Y-68619612D01*
X51599100Y-68747530D01*
X51594965Y-68750635D01*
X51585617Y-68760417D01*
X51446798Y-68905683D01*
X51440629Y-68912138D01*
X51437715Y-68916410D01*
X51437714Y-68916411D01*
X51420151Y-68942158D01*
X51314743Y-69096680D01*
X51287092Y-69156250D01*
X51223583Y-69293069D01*
X51220688Y-69299305D01*
X51160989Y-69514570D01*
X51137251Y-69736695D01*
X51137548Y-69741848D01*
X51137548Y-69741851D01*
X51148771Y-69936488D01*
X51150110Y-69959715D01*
X51151247Y-69964761D01*
X51151248Y-69964767D01*
X51164636Y-70024171D01*
X51199222Y-70177639D01*
X51253522Y-70311364D01*
X51280783Y-70378500D01*
X51283266Y-70384616D01*
X51305243Y-70420479D01*
X51397291Y-70570688D01*
X51399987Y-70575088D01*
X51546250Y-70743938D01*
X51718126Y-70886632D01*
X51743582Y-70901507D01*
X51791445Y-70929476D01*
X51840169Y-70981114D01*
X51853240Y-71050897D01*
X51826509Y-71116669D01*
X51786055Y-71150027D01*
X51773607Y-71156507D01*
X51769474Y-71159610D01*
X51769471Y-71159612D01*
X51599100Y-71287530D01*
X51594965Y-71290635D01*
X51440629Y-71452138D01*
X51314743Y-71636680D01*
X51276011Y-71720121D01*
X51222901Y-71834538D01*
X51220688Y-71839305D01*
X51160989Y-72054570D01*
X51160440Y-72059707D01*
X51159900Y-72064757D01*
X51137251Y-72276695D01*
X51137548Y-72281848D01*
X51137548Y-72281851D01*
X51146244Y-72432662D01*
X51150110Y-72499715D01*
X51151247Y-72504761D01*
X51151248Y-72504767D01*
X51166287Y-72571498D01*
X51199222Y-72717639D01*
X51253522Y-72851364D01*
X51277174Y-72909612D01*
X51283266Y-72924616D01*
X51326713Y-72995515D01*
X51397291Y-73110688D01*
X51399987Y-73115088D01*
X51546250Y-73283938D01*
X51649073Y-73369303D01*
X51709395Y-73419383D01*
X51718126Y-73426632D01*
X51744270Y-73441909D01*
X51791445Y-73469476D01*
X51840169Y-73521114D01*
X51853240Y-73590897D01*
X51826509Y-73656669D01*
X51786055Y-73690027D01*
X51773607Y-73696507D01*
X51769474Y-73699610D01*
X51769471Y-73699612D01*
X51651411Y-73788254D01*
X51594965Y-73830635D01*
X51440629Y-73992138D01*
X51437715Y-73996410D01*
X51437714Y-73996411D01*
X51423993Y-74016525D01*
X51314743Y-74176680D01*
X51289767Y-74230487D01*
X51223583Y-74373069D01*
X51220688Y-74379305D01*
X51160989Y-74594570D01*
X51137251Y-74816695D01*
X48000000Y-74816695D01*
X48000000Y-61877885D01*
X51142000Y-61877885D01*
X51146475Y-61893124D01*
X51147865Y-61894329D01*
X51155548Y-61896000D01*
X52227885Y-61896000D01*
X52243124Y-61891525D01*
X52244329Y-61890135D01*
X52246000Y-61882452D01*
X52246000Y-61877885D01*
X52754000Y-61877885D01*
X52758475Y-61893124D01*
X52759865Y-61894329D01*
X52767548Y-61896000D01*
X53839884Y-61896000D01*
X53855123Y-61891525D01*
X53856328Y-61890135D01*
X53857999Y-61882452D01*
X53857999Y-61877885D01*
X55792000Y-61877885D01*
X55796475Y-61893124D01*
X55797865Y-61894329D01*
X55805548Y-61896000D01*
X56877885Y-61896000D01*
X56893124Y-61891525D01*
X56894329Y-61890135D01*
X56896000Y-61882452D01*
X56896000Y-61877885D01*
X57404000Y-61877885D01*
X57408475Y-61893124D01*
X57409865Y-61894329D01*
X57417548Y-61896000D01*
X58489884Y-61896000D01*
X58505123Y-61891525D01*
X58506328Y-61890135D01*
X58507999Y-61882452D01*
X58507999Y-61255331D01*
X58507629Y-61248510D01*
X58502105Y-61197648D01*
X58498479Y-61182396D01*
X58453324Y-61061946D01*
X58444786Y-61046351D01*
X58368285Y-60944276D01*
X58355724Y-60931715D01*
X58253649Y-60855214D01*
X58238054Y-60846676D01*
X58117606Y-60801522D01*
X58102351Y-60797895D01*
X58051486Y-60792369D01*
X58044672Y-60792000D01*
X57422115Y-60792000D01*
X57406876Y-60796475D01*
X57405671Y-60797865D01*
X57404000Y-60805548D01*
X57404000Y-61877885D01*
X56896000Y-61877885D01*
X56896000Y-60810116D01*
X56891525Y-60794877D01*
X56890135Y-60793672D01*
X56882452Y-60792001D01*
X56255331Y-60792001D01*
X56248510Y-60792371D01*
X56197648Y-60797895D01*
X56182396Y-60801521D01*
X56061946Y-60846676D01*
X56046351Y-60855214D01*
X55944276Y-60931715D01*
X55931715Y-60944276D01*
X55855214Y-61046351D01*
X55846676Y-61061946D01*
X55801522Y-61182394D01*
X55797895Y-61197649D01*
X55792369Y-61248514D01*
X55792000Y-61255328D01*
X55792000Y-61877885D01*
X53857999Y-61877885D01*
X53857999Y-61255331D01*
X53857629Y-61248510D01*
X53852105Y-61197648D01*
X53848479Y-61182396D01*
X53803324Y-61061946D01*
X53794786Y-61046351D01*
X53718285Y-60944276D01*
X53705724Y-60931715D01*
X53603649Y-60855214D01*
X53588054Y-60846676D01*
X53467606Y-60801522D01*
X53452351Y-60797895D01*
X53401486Y-60792369D01*
X53394672Y-60792000D01*
X52772115Y-60792000D01*
X52756876Y-60796475D01*
X52755671Y-60797865D01*
X52754000Y-60805548D01*
X52754000Y-61877885D01*
X52246000Y-61877885D01*
X52246000Y-60810116D01*
X52241525Y-60794877D01*
X52240135Y-60793672D01*
X52232452Y-60792001D01*
X51605331Y-60792001D01*
X51598510Y-60792371D01*
X51547648Y-60797895D01*
X51532396Y-60801521D01*
X51411946Y-60846676D01*
X51396351Y-60855214D01*
X51294276Y-60931715D01*
X51281715Y-60944276D01*
X51205214Y-61046351D01*
X51196676Y-61061946D01*
X51151522Y-61182394D01*
X51147895Y-61197649D01*
X51142369Y-61248514D01*
X51142000Y-61255328D01*
X51142000Y-61877885D01*
X48000000Y-61877885D01*
X48000000Y-55477885D01*
X66017000Y-55477885D01*
X66021475Y-55493124D01*
X66022865Y-55494329D01*
X66030548Y-55496000D01*
X66702885Y-55496000D01*
X66718124Y-55491525D01*
X66719329Y-55490135D01*
X66721000Y-55482452D01*
X66721000Y-54785115D01*
X66716525Y-54769876D01*
X66715135Y-54768671D01*
X66707452Y-54767000D01*
X66704562Y-54767000D01*
X66698047Y-54767337D01*
X66605943Y-54776894D01*
X66592544Y-54779788D01*
X66443893Y-54829381D01*
X66430714Y-54835555D01*
X66297827Y-54917788D01*
X66286426Y-54926824D01*
X66176014Y-55037429D01*
X66167002Y-55048840D01*
X66084996Y-55181880D01*
X66078849Y-55195061D01*
X66029509Y-55343814D01*
X66026642Y-55357190D01*
X66017328Y-55448097D01*
X66017000Y-55454514D01*
X66017000Y-55477885D01*
X48000000Y-55477885D01*
X48000000Y-51134500D01*
X48020002Y-51066379D01*
X48073658Y-51019886D01*
X48126000Y-51008500D01*
X109615500Y-51008500D01*
X109683621Y-51028502D01*
G37*
%TD.AperFunction*%
%TA.AperFunction,Conductor*%
G36*
X79842012Y-63652289D02*
G01*
X79848595Y-63658418D01*
X80748183Y-64558006D01*
X80782209Y-64620318D01*
X80784175Y-64662237D01*
X80782750Y-64674010D01*
X80782750Y-65068490D01*
X80786857Y-65102425D01*
X80791845Y-65143642D01*
X80793797Y-65159775D01*
X80796252Y-65165976D01*
X80796252Y-65226524D01*
X80793797Y-65232725D01*
X80792825Y-65240759D01*
X80792824Y-65240762D01*
X80791495Y-65251745D01*
X80782750Y-65324010D01*
X80782750Y-65718490D01*
X80783206Y-65722255D01*
X80792111Y-65795840D01*
X80793797Y-65809775D01*
X80796513Y-65816635D01*
X80796513Y-65878290D01*
X80793314Y-65890887D01*
X80786370Y-65948265D01*
X80788766Y-65962639D01*
X80818338Y-65970964D01*
X80818030Y-65972060D01*
X80866365Y-65986252D01*
X80898605Y-66016070D01*
X80942975Y-66074525D01*
X80998342Y-66116550D01*
X81042262Y-66149887D01*
X81084429Y-66207004D01*
X81089022Y-66277852D01*
X81054583Y-66339937D01*
X80992046Y-66373546D01*
X80966083Y-66376250D01*
X80802309Y-66376250D01*
X80788327Y-66380355D01*
X80786284Y-66393521D01*
X80793314Y-66451615D01*
X80797267Y-66467180D01*
X80847533Y-66594137D01*
X80855883Y-66608956D01*
X80938145Y-66717332D01*
X80950168Y-66729355D01*
X81058544Y-66811617D01*
X81073363Y-66819967D01*
X81200320Y-66870233D01*
X81215885Y-66874186D01*
X81295285Y-66883794D01*
X81302839Y-66884250D01*
X81853135Y-66884250D01*
X81868374Y-66879775D01*
X81869579Y-66878385D01*
X81871250Y-66870702D01*
X81871250Y-66376250D01*
X81871802Y-66376250D01*
X81871803Y-66325250D01*
X81910188Y-66265525D01*
X81974769Y-66236032D01*
X81992699Y-66234750D01*
X82155250Y-66234750D01*
X82223371Y-66254752D01*
X82269864Y-66308408D01*
X82281250Y-66360750D01*
X82281250Y-66866135D01*
X82285725Y-66881374D01*
X82287115Y-66882579D01*
X82294798Y-66884250D01*
X82849661Y-66884250D01*
X82857215Y-66883794D01*
X82936615Y-66874186D01*
X82952180Y-66870233D01*
X83079137Y-66819967D01*
X83093956Y-66811617D01*
X83184320Y-66743027D01*
X83250674Y-66717774D01*
X83320147Y-66732402D01*
X83370683Y-66782269D01*
X83386500Y-66843390D01*
X83386500Y-68608217D01*
X83366498Y-68676338D01*
X83366384Y-68676499D01*
X83363512Y-68679371D01*
X83359477Y-68686193D01*
X83359476Y-68686195D01*
X83284141Y-68813580D01*
X83280106Y-68820403D01*
X83277895Y-68828014D01*
X83277894Y-68828016D01*
X83269203Y-68857931D01*
X83234394Y-68977746D01*
X83233890Y-68984151D01*
X83233889Y-68984156D01*
X83231984Y-69008365D01*
X83231500Y-69014516D01*
X83231500Y-69485484D01*
X83231693Y-69487932D01*
X83231693Y-69487940D01*
X83233544Y-69511453D01*
X83234394Y-69522254D01*
X83257709Y-69602505D01*
X83271624Y-69650400D01*
X83280106Y-69679597D01*
X83284141Y-69686419D01*
X83284141Y-69686420D01*
X83313874Y-69736695D01*
X83363512Y-69820629D01*
X83362644Y-69821143D01*
X83386006Y-69880635D01*
X83386500Y-69891783D01*
X83386500Y-71585658D01*
X83366498Y-71653779D01*
X83312842Y-71700272D01*
X83265689Y-71711500D01*
X83264516Y-71711500D01*
X83262064Y-71711693D01*
X83234156Y-71713889D01*
X83234151Y-71713890D01*
X83227746Y-71714394D01*
X83137888Y-71740500D01*
X83078016Y-71757894D01*
X83078014Y-71757895D01*
X83070403Y-71760106D01*
X83063581Y-71764141D01*
X83063580Y-71764141D01*
X82954934Y-71828394D01*
X82929371Y-71843512D01*
X82813512Y-71959371D01*
X82809478Y-71966192D01*
X82746455Y-72072759D01*
X82730106Y-72100403D01*
X82727895Y-72108014D01*
X82727894Y-72108016D01*
X82724581Y-72119419D01*
X82684394Y-72257746D01*
X82683890Y-72264151D01*
X82683889Y-72264156D01*
X82681693Y-72292060D01*
X82681500Y-72294516D01*
X82681500Y-72705484D01*
X82681693Y-72707932D01*
X82681693Y-72707940D01*
X82682457Y-72717639D01*
X82684394Y-72742254D01*
X82705280Y-72814144D01*
X82727803Y-72891669D01*
X82730106Y-72899597D01*
X82734143Y-72906423D01*
X82740015Y-72916353D01*
X82757474Y-72985170D01*
X82740016Y-73044628D01*
X82734605Y-73053778D01*
X82728357Y-73068216D01*
X82693381Y-73188605D01*
X82693421Y-73202705D01*
X82700691Y-73206000D01*
X82978621Y-73206000D01*
X83042760Y-73223546D01*
X83070403Y-73239894D01*
X83078014Y-73242105D01*
X83078016Y-73242106D01*
X83103319Y-73249457D01*
X83227746Y-73285606D01*
X83234151Y-73286110D01*
X83234156Y-73286111D01*
X83262060Y-73288307D01*
X83262068Y-73288307D01*
X83264516Y-73288500D01*
X83347336Y-73288500D01*
X83415457Y-73308502D01*
X83436431Y-73325405D01*
X83717095Y-73606069D01*
X83751121Y-73668381D01*
X83754000Y-73695164D01*
X83754000Y-74228424D01*
X83758344Y-74243219D01*
X83768775Y-74245063D01*
X83778359Y-74243312D01*
X83921784Y-74201643D01*
X83936220Y-74195396D01*
X84063494Y-74120127D01*
X84070138Y-74114973D01*
X84136223Y-74089025D01*
X84205846Y-74102923D01*
X84236462Y-74125436D01*
X85390788Y-75279762D01*
X85424814Y-75342074D01*
X85419749Y-75412889D01*
X85408954Y-75434970D01*
X85404547Y-75442120D01*
X85387966Y-75469020D01*
X85382885Y-75477262D01*
X85380579Y-75484213D01*
X85380579Y-75484214D01*
X85338942Y-75609748D01*
X85327203Y-75645139D01*
X85326503Y-75651975D01*
X85326502Y-75651978D01*
X85325784Y-75658990D01*
X85316500Y-75749600D01*
X85316500Y-76750400D01*
X85316837Y-76753646D01*
X85316837Y-76753650D01*
X85325901Y-76841002D01*
X85327474Y-76856166D01*
X85329655Y-76862702D01*
X85329655Y-76862704D01*
X85344934Y-76908500D01*
X85383450Y-77023946D01*
X85476522Y-77174348D01*
X85481704Y-77179521D01*
X85513975Y-77211736D01*
X85601697Y-77299305D01*
X85607927Y-77303145D01*
X85607928Y-77303146D01*
X85745674Y-77388054D01*
X85752262Y-77392115D01*
X85787766Y-77403891D01*
X85913611Y-77445632D01*
X85913613Y-77445632D01*
X85920139Y-77447797D01*
X85926975Y-77448497D01*
X85926978Y-77448498D01*
X85970031Y-77452909D01*
X86024600Y-77458500D01*
X86650400Y-77458500D01*
X86653646Y-77458163D01*
X86653650Y-77458163D01*
X86749308Y-77448238D01*
X86749312Y-77448237D01*
X86756166Y-77447526D01*
X86762702Y-77445345D01*
X86762704Y-77445345D01*
X86908495Y-77396705D01*
X86923946Y-77391550D01*
X87074348Y-77298478D01*
X87160784Y-77211891D01*
X87223066Y-77177812D01*
X87293886Y-77182815D01*
X87338975Y-77211736D01*
X87383645Y-77256328D01*
X87426697Y-77299305D01*
X87432927Y-77303145D01*
X87432928Y-77303146D01*
X87570674Y-77388054D01*
X87577262Y-77392115D01*
X87612766Y-77403891D01*
X87738611Y-77445632D01*
X87738613Y-77445632D01*
X87745139Y-77447797D01*
X87751975Y-77448497D01*
X87751978Y-77448498D01*
X87795031Y-77452909D01*
X87849600Y-77458500D01*
X88475400Y-77458500D01*
X88478646Y-77458163D01*
X88478650Y-77458163D01*
X88574308Y-77448238D01*
X88574312Y-77448237D01*
X88581166Y-77447526D01*
X88587702Y-77445345D01*
X88587704Y-77445345D01*
X88733495Y-77396705D01*
X88748946Y-77391550D01*
X88899348Y-77298478D01*
X88942628Y-77255123D01*
X89002976Y-77194669D01*
X91292001Y-77194669D01*
X91292371Y-77201490D01*
X91297895Y-77252352D01*
X91301521Y-77267604D01*
X91346676Y-77388054D01*
X91355214Y-77403649D01*
X91431715Y-77505724D01*
X91444276Y-77518285D01*
X91546351Y-77594786D01*
X91561946Y-77603324D01*
X91682394Y-77648478D01*
X91697649Y-77652105D01*
X91748514Y-77657631D01*
X91755328Y-77658000D01*
X92327885Y-77658000D01*
X92343124Y-77653525D01*
X92344329Y-77652135D01*
X92346000Y-77644452D01*
X92346000Y-76522115D01*
X92341525Y-76506876D01*
X92340135Y-76505671D01*
X92332452Y-76504000D01*
X91310116Y-76504000D01*
X91294877Y-76508475D01*
X91293672Y-76509865D01*
X91292001Y-76517548D01*
X91292001Y-77194669D01*
X89002976Y-77194669D01*
X89019134Y-77178483D01*
X89024305Y-77173303D01*
X89028146Y-77167072D01*
X89113275Y-77028968D01*
X89113276Y-77028966D01*
X89117115Y-77022738D01*
X89163518Y-76882837D01*
X89170632Y-76861389D01*
X89170632Y-76861387D01*
X89172797Y-76854861D01*
X89173924Y-76843868D01*
X89179829Y-76786232D01*
X89183500Y-76750400D01*
X89183500Y-75749600D01*
X89182177Y-75736851D01*
X89173238Y-75650692D01*
X89173237Y-75650688D01*
X89172526Y-75643834D01*
X89143962Y-75558216D01*
X89118868Y-75483002D01*
X89116550Y-75476054D01*
X89023478Y-75325652D01*
X88898303Y-75200695D01*
X88892072Y-75196854D01*
X88830884Y-75159137D01*
X88783390Y-75106364D01*
X88771000Y-75051877D01*
X88771000Y-74734500D01*
X88791002Y-74666379D01*
X88844658Y-74619886D01*
X88897000Y-74608500D01*
X91635603Y-74608500D01*
X91703724Y-74628502D01*
X91750217Y-74682158D01*
X91760321Y-74752432D01*
X91730827Y-74817012D01*
X91679833Y-74852482D01*
X91561946Y-74896676D01*
X91546351Y-74905214D01*
X91444276Y-74981715D01*
X91431715Y-74994276D01*
X91355214Y-75096351D01*
X91346676Y-75111946D01*
X91301522Y-75232394D01*
X91297895Y-75247649D01*
X91292369Y-75298514D01*
X91292000Y-75305328D01*
X91292000Y-75977885D01*
X91296475Y-75993124D01*
X91297865Y-75994329D01*
X91305548Y-75996000D01*
X92728000Y-75996000D01*
X92796121Y-76016002D01*
X92842614Y-76069658D01*
X92854000Y-76122000D01*
X92854000Y-77639884D01*
X92858475Y-77655123D01*
X92859865Y-77656328D01*
X92867548Y-77657999D01*
X93444669Y-77657999D01*
X93451490Y-77657629D01*
X93502352Y-77652105D01*
X93517604Y-77648479D01*
X93638054Y-77603324D01*
X93653649Y-77594786D01*
X93755724Y-77518285D01*
X93768285Y-77505724D01*
X93844786Y-77403649D01*
X93853324Y-77388054D01*
X93881751Y-77312226D01*
X93924393Y-77255462D01*
X93990954Y-77230762D01*
X94060303Y-77245970D01*
X94110421Y-77296256D01*
X94117715Y-77312226D01*
X94149385Y-77396705D01*
X94236739Y-77513261D01*
X94353295Y-77600615D01*
X94489684Y-77651745D01*
X94551866Y-77658500D01*
X96248134Y-77658500D01*
X96310316Y-77651745D01*
X96446705Y-77600615D01*
X96563261Y-77513261D01*
X96650615Y-77396705D01*
X96701745Y-77260316D01*
X96708500Y-77198134D01*
X96708500Y-75854239D01*
X96728502Y-75786118D01*
X96745405Y-75765144D01*
X97805144Y-74705405D01*
X97867456Y-74671379D01*
X97894239Y-74668500D01*
X99458954Y-74668500D01*
X99527075Y-74688502D01*
X99566387Y-74728665D01*
X99581707Y-74753665D01*
X99649987Y-74865088D01*
X99796250Y-75033938D01*
X99968126Y-75176632D01*
X100041404Y-75219452D01*
X100041955Y-75219774D01*
X100090679Y-75271412D01*
X100103750Y-75341195D01*
X100077019Y-75406967D01*
X100036562Y-75440327D01*
X100028457Y-75444546D01*
X100019738Y-75450036D01*
X99849433Y-75577905D01*
X99841726Y-75584748D01*
X99694590Y-75738717D01*
X99688104Y-75746727D01*
X99568098Y-75922649D01*
X99563000Y-75931623D01*
X99473338Y-76124783D01*
X99469775Y-76134470D01*
X99414389Y-76334183D01*
X99415912Y-76342607D01*
X99428292Y-76346000D01*
X102068344Y-76346000D01*
X102081875Y-76342027D01*
X102083180Y-76332947D01*
X102041214Y-76165875D01*
X102037894Y-76156124D01*
X101952972Y-75960814D01*
X101948105Y-75951739D01*
X101832426Y-75772926D01*
X101826136Y-75764757D01*
X101682806Y-75607240D01*
X101675273Y-75600215D01*
X101508139Y-75468222D01*
X101499556Y-75462520D01*
X101462602Y-75442120D01*
X101412631Y-75391687D01*
X101397859Y-75322245D01*
X101422975Y-75255839D01*
X101450327Y-75229232D01*
X101515303Y-75182885D01*
X101629860Y-75101173D01*
X101636540Y-75094517D01*
X101744237Y-74987195D01*
X101788096Y-74943489D01*
X101792316Y-74937617D01*
X101915435Y-74766277D01*
X101918453Y-74762077D01*
X101920746Y-74757437D01*
X101922446Y-74754608D01*
X101974674Y-74706518D01*
X102030451Y-74693500D01*
X104233954Y-74693500D01*
X104302075Y-74713502D01*
X104341387Y-74753665D01*
X104424987Y-74890088D01*
X104571250Y-75058938D01*
X104743126Y-75201632D01*
X104816551Y-75244538D01*
X104816955Y-75244774D01*
X104865679Y-75296412D01*
X104878750Y-75366195D01*
X104852019Y-75431967D01*
X104811562Y-75465327D01*
X104803457Y-75469546D01*
X104794738Y-75475036D01*
X104624433Y-75602905D01*
X104616726Y-75609748D01*
X104469590Y-75763717D01*
X104463104Y-75771727D01*
X104343098Y-75947649D01*
X104338000Y-75956623D01*
X104248338Y-76149783D01*
X104244775Y-76159470D01*
X104189389Y-76359183D01*
X104190912Y-76367607D01*
X104203292Y-76371000D01*
X106843344Y-76371000D01*
X106856875Y-76367027D01*
X106858180Y-76357947D01*
X106816214Y-76190875D01*
X106812894Y-76181124D01*
X106727972Y-75985814D01*
X106723105Y-75976739D01*
X106607426Y-75797926D01*
X106601136Y-75789757D01*
X106457806Y-75632240D01*
X106450273Y-75625215D01*
X106283139Y-75493222D01*
X106274556Y-75487520D01*
X106237602Y-75467120D01*
X106187631Y-75416687D01*
X106172859Y-75347245D01*
X106197975Y-75280839D01*
X106225327Y-75254232D01*
X106274087Y-75219452D01*
X106404860Y-75126173D01*
X106408951Y-75122097D01*
X106497418Y-75033938D01*
X106563096Y-74968489D01*
X106567349Y-74962571D01*
X106690435Y-74791277D01*
X106693453Y-74787077D01*
X106699636Y-74774568D01*
X106790136Y-74591453D01*
X106790137Y-74591451D01*
X106792430Y-74586811D01*
X106855475Y-74379305D01*
X106855865Y-74378023D01*
X106855865Y-74378021D01*
X106857370Y-74373069D01*
X106886529Y-74151590D01*
X106887424Y-74114973D01*
X106888074Y-74088365D01*
X106888074Y-74088361D01*
X106888156Y-74085000D01*
X106869852Y-73862361D01*
X106815431Y-73645702D01*
X106726354Y-73440840D01*
X106651676Y-73325405D01*
X106607822Y-73257617D01*
X106607820Y-73257614D01*
X106605014Y-73253277D01*
X106454670Y-73088051D01*
X106450619Y-73084852D01*
X106450615Y-73084848D01*
X106283414Y-72952800D01*
X106283410Y-72952798D01*
X106279359Y-72949598D01*
X106238053Y-72926796D01*
X106188084Y-72876364D01*
X106173312Y-72806921D01*
X106198428Y-72740516D01*
X106225780Y-72713909D01*
X106274053Y-72679476D01*
X106404860Y-72586173D01*
X106419587Y-72571498D01*
X106540237Y-72451268D01*
X106563096Y-72428489D01*
X106606266Y-72368412D01*
X106690435Y-72251277D01*
X106693453Y-72247077D01*
X106697611Y-72238665D01*
X106790136Y-72051453D01*
X106790137Y-72051451D01*
X106792430Y-72046811D01*
X106839125Y-71893120D01*
X106855865Y-71838023D01*
X106855865Y-71838021D01*
X106857370Y-71833069D01*
X106886529Y-71611590D01*
X106887304Y-71579861D01*
X106888074Y-71548365D01*
X106888074Y-71548361D01*
X106888156Y-71545000D01*
X106869852Y-71322361D01*
X106815431Y-71105702D01*
X106726354Y-70900840D01*
X106626986Y-70747240D01*
X106607822Y-70717617D01*
X106607820Y-70717614D01*
X106605014Y-70713277D01*
X106454670Y-70548051D01*
X106450619Y-70544852D01*
X106450615Y-70544848D01*
X106283414Y-70412800D01*
X106283410Y-70412798D01*
X106279359Y-70409598D01*
X106238053Y-70386796D01*
X106188084Y-70336364D01*
X106173312Y-70266921D01*
X106198428Y-70200516D01*
X106225780Y-70173909D01*
X106269603Y-70142650D01*
X106404860Y-70046173D01*
X106446248Y-70004930D01*
X106514929Y-69936488D01*
X106563096Y-69888489D01*
X106566637Y-69883562D01*
X106690435Y-69711277D01*
X106693453Y-69707077D01*
X106697611Y-69698665D01*
X106790136Y-69511453D01*
X106790137Y-69511451D01*
X106792430Y-69506811D01*
X106851763Y-69311523D01*
X106855865Y-69298023D01*
X106855865Y-69298021D01*
X106857370Y-69293069D01*
X106886529Y-69071590D01*
X106887863Y-69016986D01*
X106888074Y-69008365D01*
X106888074Y-69008361D01*
X106888156Y-69005000D01*
X106869852Y-68782361D01*
X106815431Y-68565702D01*
X106764797Y-68449252D01*
X106755977Y-68378807D01*
X106786644Y-68314775D01*
X106847060Y-68277487D01*
X106880347Y-68273011D01*
X107740500Y-68273011D01*
X107808621Y-68293013D01*
X107855114Y-68346669D01*
X107866500Y-68399011D01*
X107866500Y-77990500D01*
X107846498Y-78058621D01*
X107792842Y-78105114D01*
X107740500Y-78116500D01*
X106111025Y-78116500D01*
X106042904Y-78096498D01*
X105996411Y-78042842D01*
X105986307Y-77972568D01*
X106015801Y-77907988D01*
X106055592Y-77877349D01*
X106218095Y-77797739D01*
X106226945Y-77792464D01*
X106400328Y-77668792D01*
X106408200Y-77662139D01*
X106559052Y-77511812D01*
X106565730Y-77503965D01*
X106690003Y-77331020D01*
X106695313Y-77322183D01*
X106789670Y-77131267D01*
X106793469Y-77121672D01*
X106855377Y-76917910D01*
X106857555Y-76907837D01*
X106858986Y-76896962D01*
X106856775Y-76882778D01*
X106843617Y-76879000D01*
X104208225Y-76879000D01*
X104194694Y-76882973D01*
X104193257Y-76892966D01*
X104223565Y-77027446D01*
X104226645Y-77037275D01*
X104306770Y-77234603D01*
X104311413Y-77243794D01*
X104422694Y-77425388D01*
X104428777Y-77433699D01*
X104568213Y-77594667D01*
X104575580Y-77601883D01*
X104739434Y-77737916D01*
X104747881Y-77743831D01*
X104931756Y-77851279D01*
X104941042Y-77855729D01*
X104985722Y-77872790D01*
X105042225Y-77915777D01*
X105066518Y-77982488D01*
X105050888Y-78051743D01*
X105000297Y-78101554D01*
X104940773Y-78116500D01*
X101279719Y-78116500D01*
X101211598Y-78096498D01*
X101165105Y-78042842D01*
X101155001Y-77972568D01*
X101184495Y-77907988D01*
X101237951Y-77873412D01*
X101237430Y-77872082D01*
X101251842Y-77866433D01*
X101443095Y-77772739D01*
X101451945Y-77767464D01*
X101625328Y-77643792D01*
X101633200Y-77637139D01*
X101784052Y-77486812D01*
X101790730Y-77478965D01*
X101915003Y-77306020D01*
X101920313Y-77297183D01*
X102014670Y-77106267D01*
X102018469Y-77096672D01*
X102080377Y-76892910D01*
X102082555Y-76882837D01*
X102083986Y-76871962D01*
X102081775Y-76857778D01*
X102068617Y-76854000D01*
X99433225Y-76854000D01*
X99419694Y-76857973D01*
X99418257Y-76867966D01*
X99448565Y-77002446D01*
X99451645Y-77012275D01*
X99531770Y-77209603D01*
X99536413Y-77218794D01*
X99647694Y-77400388D01*
X99653777Y-77408699D01*
X99793213Y-77569667D01*
X99800580Y-77576883D01*
X99964434Y-77712916D01*
X99972881Y-77718831D01*
X100156756Y-77826279D01*
X100166042Y-77830729D01*
X100276191Y-77872790D01*
X100332694Y-77915777D01*
X100356987Y-77982488D01*
X100341357Y-78051743D01*
X100290766Y-78101554D01*
X100231242Y-78116500D01*
X86179424Y-78116500D01*
X86111303Y-78096498D01*
X86093171Y-78082350D01*
X86054842Y-78046357D01*
X86052000Y-78043602D01*
X86032263Y-78023865D01*
X86029066Y-78021385D01*
X86020044Y-78013680D01*
X85993593Y-77988841D01*
X85987814Y-77983414D01*
X85980868Y-77979595D01*
X85980865Y-77979593D01*
X85970059Y-77973652D01*
X85953540Y-77962801D01*
X85953076Y-77962441D01*
X85937534Y-77950386D01*
X85930265Y-77947241D01*
X85930261Y-77947238D01*
X85896956Y-77932826D01*
X85886306Y-77927609D01*
X85847553Y-77906305D01*
X85827930Y-77901267D01*
X85809227Y-77894863D01*
X85797913Y-77889967D01*
X85797912Y-77889967D01*
X85790638Y-77886819D01*
X85782815Y-77885580D01*
X85782805Y-77885577D01*
X85746969Y-77879901D01*
X85735349Y-77877495D01*
X85700204Y-77868472D01*
X85700203Y-77868472D01*
X85692523Y-77866500D01*
X85672269Y-77866500D01*
X85652558Y-77864949D01*
X85640379Y-77863020D01*
X85632550Y-77861780D01*
X85624658Y-77862526D01*
X85588532Y-77865941D01*
X85576674Y-77866500D01*
X78068719Y-77866500D01*
X78000598Y-77846498D01*
X77979283Y-77828187D01*
X77978972Y-77827730D01*
X77973031Y-77822492D01*
X77973028Y-77822489D01*
X77936853Y-77790597D01*
X77931083Y-77785178D01*
X77920405Y-77774500D01*
X77886379Y-77712188D01*
X77883500Y-77685405D01*
X77883500Y-74935828D01*
X77903502Y-74867707D01*
X77957158Y-74821214D01*
X78027432Y-74811110D01*
X78092012Y-74840604D01*
X78116644Y-74869525D01*
X78167788Y-74952173D01*
X78176824Y-74963574D01*
X78287429Y-75073986D01*
X78298840Y-75082998D01*
X78431880Y-75165004D01*
X78445061Y-75171151D01*
X78593814Y-75220491D01*
X78607190Y-75223358D01*
X78698097Y-75232672D01*
X78704513Y-75233000D01*
X78727885Y-75233000D01*
X78743124Y-75228525D01*
X78744329Y-75227135D01*
X78746000Y-75219452D01*
X78746000Y-75214885D01*
X79254000Y-75214885D01*
X79258475Y-75230124D01*
X79259865Y-75231329D01*
X79267548Y-75233000D01*
X79295438Y-75233000D01*
X79301953Y-75232663D01*
X79394057Y-75223106D01*
X79407456Y-75220212D01*
X79556107Y-75170619D01*
X79569286Y-75164445D01*
X79702173Y-75082212D01*
X79713574Y-75073176D01*
X79823986Y-74962571D01*
X79832998Y-74951160D01*
X79915004Y-74818120D01*
X79921151Y-74804939D01*
X79970491Y-74656186D01*
X79973358Y-74642810D01*
X79982672Y-74551903D01*
X79982929Y-74546874D01*
X79978525Y-74531876D01*
X79977135Y-74530671D01*
X79969452Y-74529000D01*
X79272115Y-74529000D01*
X79256876Y-74533475D01*
X79255671Y-74534865D01*
X79254000Y-74542548D01*
X79254000Y-75214885D01*
X78746000Y-75214885D01*
X78746000Y-74147000D01*
X78766002Y-74078879D01*
X78819658Y-74032386D01*
X78872000Y-74021000D01*
X79964885Y-74021000D01*
X79980124Y-74016525D01*
X79981329Y-74015135D01*
X79983000Y-74007452D01*
X79983000Y-74004562D01*
X79982663Y-73998047D01*
X79973106Y-73905943D01*
X79970212Y-73892544D01*
X79920619Y-73743893D01*
X79914445Y-73730714D01*
X79911448Y-73725871D01*
X82691776Y-73725871D01*
X82728357Y-73851784D01*
X82734604Y-73866220D01*
X82809876Y-73993499D01*
X82819516Y-74005926D01*
X82924074Y-74110484D01*
X82936501Y-74120124D01*
X83063780Y-74195396D01*
X83078216Y-74201643D01*
X83221641Y-74243312D01*
X83229609Y-74244768D01*
X83243031Y-74241948D01*
X83246000Y-74230487D01*
X83246000Y-73732115D01*
X83241525Y-73716876D01*
X83240135Y-73715671D01*
X83232452Y-73714000D01*
X82706442Y-73714000D01*
X82692911Y-73717973D01*
X82691776Y-73725871D01*
X79911448Y-73725871D01*
X79832212Y-73597827D01*
X79818629Y-73580689D01*
X79820559Y-73579159D01*
X79792097Y-73527120D01*
X79797113Y-73456301D01*
X79820799Y-73419383D01*
X79819843Y-73418628D01*
X79824381Y-73412882D01*
X79829552Y-73407702D01*
X79842111Y-73387328D01*
X79915462Y-73268331D01*
X79915463Y-73268329D01*
X79919302Y-73262101D01*
X79973149Y-73099757D01*
X79974349Y-73088051D01*
X79978093Y-73051502D01*
X79983500Y-72998732D01*
X79983500Y-72451268D01*
X79981823Y-72435100D01*
X79979625Y-72413917D01*
X79972887Y-72348981D01*
X79954716Y-72294516D01*
X79921073Y-72193676D01*
X79921072Y-72193674D01*
X79918756Y-72186732D01*
X79898192Y-72153500D01*
X79832606Y-72047515D01*
X79828752Y-72041287D01*
X79707702Y-71920448D01*
X79673472Y-71899348D01*
X79568331Y-71834538D01*
X79568329Y-71834537D01*
X79562101Y-71830698D01*
X79399757Y-71776851D01*
X79392920Y-71776151D01*
X79392918Y-71776150D01*
X79342661Y-71771001D01*
X79298732Y-71766500D01*
X78701268Y-71766500D01*
X78698022Y-71766837D01*
X78698018Y-71766837D01*
X78663917Y-71770375D01*
X78598981Y-71777113D01*
X78592440Y-71779295D01*
X78592441Y-71779295D01*
X78443676Y-71828927D01*
X78443674Y-71828928D01*
X78436732Y-71831244D01*
X78430508Y-71835096D01*
X78430507Y-71835096D01*
X78370221Y-71872402D01*
X78291287Y-71921248D01*
X78286114Y-71926430D01*
X78268394Y-71944181D01*
X78170448Y-72042298D01*
X78168986Y-72044670D01*
X78112588Y-72084655D01*
X78071624Y-72091500D01*
X78009500Y-72091500D01*
X77941379Y-72071498D01*
X77894886Y-72017842D01*
X77883500Y-71965500D01*
X77883500Y-71451566D01*
X77903502Y-71383445D01*
X77943665Y-71344133D01*
X78135202Y-71226759D01*
X78135208Y-71226755D01*
X78139416Y-71224176D01*
X78319969Y-71069969D01*
X78474176Y-70889416D01*
X78476755Y-70885208D01*
X78476759Y-70885202D01*
X78595654Y-70691183D01*
X78598240Y-70686963D01*
X78604939Y-70670792D01*
X78687211Y-70472167D01*
X78687212Y-70472165D01*
X78689105Y-70467594D01*
X78719984Y-70338975D01*
X78743380Y-70241524D01*
X78743381Y-70241518D01*
X78744535Y-70236711D01*
X78763165Y-70000000D01*
X78744535Y-69763289D01*
X78742436Y-69754542D01*
X78702940Y-69590033D01*
X78689105Y-69532406D01*
X78683845Y-69519707D01*
X78600135Y-69317611D01*
X78600133Y-69317607D01*
X78598240Y-69313037D01*
X78552549Y-69238476D01*
X78476759Y-69114798D01*
X78476755Y-69114792D01*
X78474176Y-69110584D01*
X78340440Y-68954000D01*
X78323177Y-68933787D01*
X78319969Y-68930031D01*
X78139416Y-68775824D01*
X78135208Y-68773245D01*
X78135202Y-68773241D01*
X77941183Y-68654346D01*
X77936963Y-68651760D01*
X77932393Y-68649867D01*
X77932389Y-68649865D01*
X77722167Y-68562789D01*
X77722165Y-68562788D01*
X77717594Y-68560895D01*
X77613449Y-68535892D01*
X77491524Y-68506620D01*
X77491518Y-68506619D01*
X77486711Y-68505465D01*
X77250000Y-68486835D01*
X77013289Y-68505465D01*
X77008482Y-68506619D01*
X77008476Y-68506620D01*
X76886551Y-68535892D01*
X76782406Y-68560895D01*
X76777835Y-68562788D01*
X76777833Y-68562789D01*
X76567611Y-68649865D01*
X76567607Y-68649867D01*
X76563037Y-68651760D01*
X76558817Y-68654346D01*
X76364798Y-68773241D01*
X76364792Y-68773245D01*
X76360584Y-68775824D01*
X76180031Y-68930031D01*
X76176823Y-68933787D01*
X76159560Y-68954000D01*
X76025824Y-69110584D01*
X76023245Y-69114792D01*
X76023241Y-69114798D01*
X75905867Y-69306335D01*
X75853219Y-69353966D01*
X75798434Y-69366500D01*
X75314595Y-69366500D01*
X75246474Y-69346498D01*
X75225500Y-69329595D01*
X74170405Y-68274500D01*
X74136379Y-68212188D01*
X74133500Y-68185405D01*
X74133500Y-67064595D01*
X74153502Y-66996474D01*
X74170405Y-66975499D01*
X74831030Y-66314875D01*
X74893342Y-66280850D01*
X74964158Y-66285915D01*
X75020993Y-66328462D01*
X75045212Y-66388834D01*
X75052810Y-66451615D01*
X75053797Y-66459775D01*
X75056776Y-66467299D01*
X75056777Y-66467303D01*
X75107092Y-66594384D01*
X75110253Y-66602367D01*
X75115443Y-66609205D01*
X75115445Y-66609208D01*
X75143836Y-66646612D01*
X75202975Y-66724525D01*
X75209814Y-66729716D01*
X75318292Y-66812055D01*
X75318295Y-66812057D01*
X75325133Y-66817247D01*
X75333114Y-66820407D01*
X75333116Y-66820408D01*
X75460197Y-66870723D01*
X75460201Y-66870724D01*
X75467725Y-66873703D01*
X75559010Y-66884750D01*
X77113490Y-66884750D01*
X77204775Y-66873703D01*
X77212299Y-66870724D01*
X77212303Y-66870723D01*
X77339384Y-66820408D01*
X77339386Y-66820407D01*
X77347367Y-66817247D01*
X77354205Y-66812057D01*
X77354208Y-66812055D01*
X77462686Y-66729716D01*
X77469525Y-66724525D01*
X77518225Y-66660365D01*
X77532337Y-66644693D01*
X77535866Y-66641379D01*
X77542276Y-66636722D01*
X77570467Y-66602645D01*
X77578457Y-66593866D01*
X79392247Y-64780076D01*
X79400537Y-64772532D01*
X79407018Y-64768419D01*
X79453659Y-64718751D01*
X79456413Y-64715910D01*
X79476135Y-64696188D01*
X79478619Y-64692986D01*
X79486317Y-64683974D01*
X79511161Y-64657517D01*
X79516586Y-64651740D01*
X79526347Y-64633985D01*
X79537198Y-64617466D01*
X79549614Y-64601460D01*
X79552764Y-64594181D01*
X79567174Y-64560882D01*
X79572391Y-64550232D01*
X79593695Y-64511479D01*
X79596335Y-64501199D01*
X79598733Y-64491857D01*
X79605137Y-64473153D01*
X79610033Y-64461839D01*
X79610033Y-64461838D01*
X79613181Y-64454564D01*
X79614420Y-64446741D01*
X79614423Y-64446731D01*
X79620099Y-64410895D01*
X79622505Y-64399275D01*
X79631528Y-64364130D01*
X79631528Y-64364129D01*
X79633500Y-64356449D01*
X79633500Y-64336195D01*
X79635051Y-64316484D01*
X79636980Y-64304305D01*
X79638220Y-64296476D01*
X79634059Y-64252457D01*
X79633500Y-64240600D01*
X79633500Y-63747513D01*
X79653502Y-63679392D01*
X79707158Y-63632899D01*
X79777432Y-63622795D01*
X79842012Y-63652289D01*
G37*
%TD.AperFunction*%
%TA.AperFunction,Conductor*%
G36*
X61783882Y-70398502D02*
G01*
X61804856Y-70415405D01*
X62948185Y-71558734D01*
X62959052Y-71571125D01*
X62978513Y-71596487D01*
X63010425Y-71620974D01*
X63010428Y-71620977D01*
X63067344Y-71664650D01*
X63105625Y-71694024D01*
X63253650Y-71755338D01*
X63372615Y-71771000D01*
X63372620Y-71771000D01*
X63372629Y-71771001D01*
X63404312Y-71775172D01*
X63412500Y-71776250D01*
X63444193Y-71772078D01*
X63460636Y-71771000D01*
X63801895Y-71771000D01*
X63870016Y-71791002D01*
X63909039Y-71830697D01*
X63909469Y-71831392D01*
X63951522Y-71899348D01*
X63956704Y-71904521D01*
X63968811Y-71916607D01*
X64076697Y-72024305D01*
X64082927Y-72028145D01*
X64082928Y-72028146D01*
X64215517Y-72109875D01*
X64227262Y-72117115D01*
X64296557Y-72140099D01*
X64388611Y-72170632D01*
X64388613Y-72170632D01*
X64395139Y-72172797D01*
X64401975Y-72173497D01*
X64401978Y-72173498D01*
X64445031Y-72177909D01*
X64499600Y-72183500D01*
X65014565Y-72183500D01*
X65082686Y-72203502D01*
X65129179Y-72257158D01*
X65139283Y-72327432D01*
X65109789Y-72392012D01*
X65103740Y-72398516D01*
X65025695Y-72476697D01*
X65021855Y-72482927D01*
X65021854Y-72482928D01*
X64968727Y-72569116D01*
X64915955Y-72616609D01*
X64861467Y-72629000D01*
X64138575Y-72629000D01*
X64070454Y-72608998D01*
X64031431Y-72569303D01*
X64031316Y-72569116D01*
X63973478Y-72475652D01*
X63848303Y-72350695D01*
X63827004Y-72337566D01*
X63703968Y-72261725D01*
X63703966Y-72261724D01*
X63697738Y-72257885D01*
X63589780Y-72222077D01*
X63536389Y-72204368D01*
X63536387Y-72204368D01*
X63529861Y-72202203D01*
X63523025Y-72201503D01*
X63523022Y-72201502D01*
X63479969Y-72197091D01*
X63425400Y-72191500D01*
X62074600Y-72191500D01*
X62071354Y-72191837D01*
X62071350Y-72191837D01*
X61975692Y-72201762D01*
X61975688Y-72201763D01*
X61968834Y-72202474D01*
X61962298Y-72204655D01*
X61962296Y-72204655D01*
X61909411Y-72222299D01*
X61801054Y-72258450D01*
X61650652Y-72351522D01*
X61645479Y-72356704D01*
X61595134Y-72407137D01*
X61525695Y-72476697D01*
X61521855Y-72482927D01*
X61521854Y-72482928D01*
X61439452Y-72616609D01*
X61432885Y-72627262D01*
X61413015Y-72687168D01*
X61395321Y-72740516D01*
X61377203Y-72795139D01*
X61376503Y-72801975D01*
X61376502Y-72801978D01*
X61372439Y-72841638D01*
X61366500Y-72899600D01*
X61366500Y-73625400D01*
X61366837Y-73628646D01*
X61366837Y-73628650D01*
X61375693Y-73714000D01*
X61377474Y-73731166D01*
X61379655Y-73737702D01*
X61379655Y-73737704D01*
X61396520Y-73788254D01*
X61433450Y-73898946D01*
X61526522Y-74049348D01*
X61651697Y-74174305D01*
X61657927Y-74178145D01*
X61657928Y-74178146D01*
X61795090Y-74262694D01*
X61802262Y-74267115D01*
X61882005Y-74293564D01*
X61963611Y-74320632D01*
X61963613Y-74320632D01*
X61970139Y-74322797D01*
X61976975Y-74323497D01*
X61976978Y-74323498D01*
X62020031Y-74327909D01*
X62074600Y-74333500D01*
X63425400Y-74333500D01*
X63428646Y-74333163D01*
X63428650Y-74333163D01*
X63524308Y-74323238D01*
X63524312Y-74323237D01*
X63531166Y-74322526D01*
X63537702Y-74320345D01*
X63537704Y-74320345D01*
X63669806Y-74276272D01*
X63698946Y-74266550D01*
X63849348Y-74173478D01*
X63974305Y-74048303D01*
X63984117Y-74032386D01*
X64031273Y-73955884D01*
X64084045Y-73908391D01*
X64138533Y-73896000D01*
X64861425Y-73896000D01*
X64929546Y-73916002D01*
X64968568Y-73955696D01*
X65026522Y-74049348D01*
X65151697Y-74174305D01*
X65157927Y-74178145D01*
X65157928Y-74178146D01*
X65295090Y-74262694D01*
X65302262Y-74267115D01*
X65382005Y-74293564D01*
X65463611Y-74320632D01*
X65463613Y-74320632D01*
X65470139Y-74322797D01*
X65476975Y-74323497D01*
X65476978Y-74323498D01*
X65520031Y-74327909D01*
X65574600Y-74333500D01*
X66925400Y-74333500D01*
X66928646Y-74333163D01*
X66928650Y-74333163D01*
X67024308Y-74323238D01*
X67024312Y-74323237D01*
X67031166Y-74322526D01*
X67037702Y-74320345D01*
X67037704Y-74320345D01*
X67169806Y-74276272D01*
X67198946Y-74266550D01*
X67349348Y-74173478D01*
X67474305Y-74048303D01*
X67478146Y-74042072D01*
X67554389Y-73918384D01*
X67607162Y-73870890D01*
X67661649Y-73858500D01*
X69265500Y-73858500D01*
X69333621Y-73878502D01*
X69380114Y-73932158D01*
X69391500Y-73984500D01*
X69391500Y-74123134D01*
X69398255Y-74185316D01*
X69449385Y-74321705D01*
X69536739Y-74438261D01*
X69653295Y-74525615D01*
X69661704Y-74528767D01*
X69661705Y-74528768D01*
X69770451Y-74569535D01*
X69827216Y-74612176D01*
X69851916Y-74678738D01*
X69836709Y-74748087D01*
X69817316Y-74774568D01*
X69703194Y-74893990D01*
X69690629Y-74907138D01*
X69687715Y-74911410D01*
X69687714Y-74911411D01*
X69639756Y-74981715D01*
X69564743Y-75091680D01*
X69537369Y-75150652D01*
X69472994Y-75289338D01*
X69470688Y-75294305D01*
X69410989Y-75509570D01*
X69387251Y-75731695D01*
X69387548Y-75736848D01*
X69387548Y-75736851D01*
X69392608Y-75824600D01*
X69400110Y-75954715D01*
X69401247Y-75959761D01*
X69401248Y-75959767D01*
X69417234Y-76030699D01*
X69449222Y-76172639D01*
X69479022Y-76246028D01*
X69530163Y-76371973D01*
X69533266Y-76379616D01*
X69572212Y-76443171D01*
X69639892Y-76553614D01*
X69649987Y-76570088D01*
X69796250Y-76738938D01*
X69968126Y-76881632D01*
X70161000Y-76994338D01*
X70165825Y-76996180D01*
X70165826Y-76996181D01*
X70207972Y-77012275D01*
X70369692Y-77074030D01*
X70374760Y-77075061D01*
X70374763Y-77075062D01*
X70453470Y-77091075D01*
X70588597Y-77118567D01*
X70593772Y-77118757D01*
X70593774Y-77118757D01*
X70806673Y-77126564D01*
X70806677Y-77126564D01*
X70811837Y-77126753D01*
X70816957Y-77126097D01*
X70816959Y-77126097D01*
X71028288Y-77099025D01*
X71028289Y-77099025D01*
X71033416Y-77098368D01*
X71050322Y-77093296D01*
X71242429Y-77035661D01*
X71242434Y-77035659D01*
X71247384Y-77034174D01*
X71447994Y-76935896D01*
X71629860Y-76806173D01*
X71643443Y-76792638D01*
X71762678Y-76673818D01*
X71788096Y-76648489D01*
X71847594Y-76565689D01*
X71915435Y-76471277D01*
X71918453Y-76467077D01*
X71920746Y-76462437D01*
X71922446Y-76459608D01*
X71974674Y-76411518D01*
X72030451Y-76398500D01*
X72993929Y-76398500D01*
X73062050Y-76418502D01*
X73107148Y-76470042D01*
X73108450Y-76473946D01*
X73112304Y-76480174D01*
X73112305Y-76480176D01*
X73167945Y-76570088D01*
X73201522Y-76624348D01*
X73326697Y-76749305D01*
X73332927Y-76753145D01*
X73332928Y-76753146D01*
X73470090Y-76837694D01*
X73477262Y-76842115D01*
X73519625Y-76856166D01*
X73638611Y-76895632D01*
X73638613Y-76895632D01*
X73645139Y-76897797D01*
X73651975Y-76898497D01*
X73651978Y-76898498D01*
X73695031Y-76902909D01*
X73749600Y-76908500D01*
X74750400Y-76908500D01*
X74753646Y-76908163D01*
X74753650Y-76908163D01*
X74849308Y-76898238D01*
X74849312Y-76898237D01*
X74856166Y-76897526D01*
X74862702Y-76895345D01*
X74862704Y-76895345D01*
X74994806Y-76851272D01*
X75023946Y-76841550D01*
X75174348Y-76748478D01*
X75299305Y-76623303D01*
X75303146Y-76617072D01*
X75388275Y-76478968D01*
X75388276Y-76478966D01*
X75392115Y-76472738D01*
X75435470Y-76342027D01*
X75445632Y-76311389D01*
X75445632Y-76311387D01*
X75447797Y-76304861D01*
X75458500Y-76200400D01*
X75458500Y-75574600D01*
X75458163Y-75571350D01*
X75448238Y-75475692D01*
X75448237Y-75475688D01*
X75447526Y-75468834D01*
X75441255Y-75450036D01*
X75393868Y-75308002D01*
X75391550Y-75301054D01*
X75298478Y-75150652D01*
X75211891Y-75064216D01*
X75177812Y-75001934D01*
X75182815Y-74931114D01*
X75211736Y-74886025D01*
X75294134Y-74803483D01*
X75299305Y-74798303D01*
X75306225Y-74787077D01*
X75325454Y-74755883D01*
X75378226Y-74708390D01*
X75432713Y-74696000D01*
X76358733Y-74696000D01*
X76369916Y-74696527D01*
X76377409Y-74698202D01*
X76385335Y-74697953D01*
X76385336Y-74697953D01*
X76445486Y-74696062D01*
X76449445Y-74696000D01*
X76477356Y-74696000D01*
X76481281Y-74695504D01*
X76482588Y-74695422D01*
X76551830Y-74711107D01*
X76601601Y-74761737D01*
X76616500Y-74821173D01*
X76616500Y-77740500D01*
X76596498Y-77808621D01*
X76542842Y-77855114D01*
X76490500Y-77866500D01*
X57909500Y-77866500D01*
X57841379Y-77846498D01*
X57794886Y-77792842D01*
X57783500Y-77740500D01*
X57783500Y-76130427D01*
X57803502Y-76062306D01*
X57844618Y-76022550D01*
X57847994Y-76020896D01*
X58029860Y-75891173D01*
X58093350Y-75827905D01*
X58156330Y-75765144D01*
X58188096Y-75733489D01*
X58193626Y-75725794D01*
X58315435Y-75556277D01*
X58318453Y-75552077D01*
X58321337Y-75546243D01*
X58415136Y-75356453D01*
X58415137Y-75356451D01*
X58417430Y-75351811D01*
X58463058Y-75201632D01*
X58480865Y-75143023D01*
X58480865Y-75143021D01*
X58482370Y-75138069D01*
X58511529Y-74916590D01*
X58511851Y-74903401D01*
X58513074Y-74853365D01*
X58513074Y-74853361D01*
X58513156Y-74850000D01*
X58494852Y-74627361D01*
X58440431Y-74410702D01*
X58351354Y-74205840D01*
X58295298Y-74119190D01*
X58232822Y-74022617D01*
X58232820Y-74022614D01*
X58230014Y-74018277D01*
X58079670Y-73853051D01*
X58075619Y-73849852D01*
X58075615Y-73849848D01*
X57908414Y-73717800D01*
X57908410Y-73717798D01*
X57904359Y-73714598D01*
X57863053Y-73691796D01*
X57813084Y-73641364D01*
X57798312Y-73571921D01*
X57823428Y-73505516D01*
X57850780Y-73478909D01*
X57910246Y-73436492D01*
X58029860Y-73351173D01*
X58055471Y-73325652D01*
X58119244Y-73262101D01*
X58188096Y-73193489D01*
X58191606Y-73188605D01*
X58315435Y-73016277D01*
X58318453Y-73012077D01*
X58320746Y-73007437D01*
X58322446Y-73004608D01*
X58374674Y-72956518D01*
X58430451Y-72943500D01*
X59240500Y-72943500D01*
X59308621Y-72963502D01*
X59355114Y-73017158D01*
X59366500Y-73069500D01*
X59366500Y-75896233D01*
X59365973Y-75907416D01*
X59364298Y-75914909D01*
X59364547Y-75922835D01*
X59364547Y-75922836D01*
X59366438Y-75982986D01*
X59366500Y-75986945D01*
X59366500Y-76014856D01*
X59366997Y-76018790D01*
X59366997Y-76018791D01*
X59367005Y-76018856D01*
X59367938Y-76030693D01*
X59369327Y-76074889D01*
X59374978Y-76094339D01*
X59378987Y-76113700D01*
X59380496Y-76125641D01*
X59381526Y-76133797D01*
X59384445Y-76141168D01*
X59384445Y-76141170D01*
X59397804Y-76174912D01*
X59401649Y-76186142D01*
X59413982Y-76228593D01*
X59418015Y-76235412D01*
X59418017Y-76235417D01*
X59424293Y-76246028D01*
X59432988Y-76263776D01*
X59440448Y-76282617D01*
X59445110Y-76289033D01*
X59445110Y-76289034D01*
X59466436Y-76318387D01*
X59472952Y-76328307D01*
X59495458Y-76366362D01*
X59509779Y-76380683D01*
X59522619Y-76395716D01*
X59534528Y-76412107D01*
X59568605Y-76440298D01*
X59577384Y-76448288D01*
X59708843Y-76579747D01*
X59716387Y-76588037D01*
X59720500Y-76594518D01*
X59726277Y-76599943D01*
X59770167Y-76641158D01*
X59773009Y-76643913D01*
X59792730Y-76663634D01*
X59795925Y-76666112D01*
X59804947Y-76673818D01*
X59837179Y-76704086D01*
X59844128Y-76707906D01*
X59854932Y-76713846D01*
X59871456Y-76724699D01*
X59887459Y-76737113D01*
X59928043Y-76754676D01*
X59938673Y-76759883D01*
X59977440Y-76781195D01*
X59985117Y-76783166D01*
X59985122Y-76783168D01*
X59997058Y-76786232D01*
X60015766Y-76792637D01*
X60034355Y-76800681D01*
X60042180Y-76801920D01*
X60042182Y-76801921D01*
X60078019Y-76807597D01*
X60089640Y-76810004D01*
X60124789Y-76819028D01*
X60132470Y-76821000D01*
X60152731Y-76821000D01*
X60172440Y-76822551D01*
X60192443Y-76825719D01*
X60200335Y-76824973D01*
X60205562Y-76824479D01*
X60236454Y-76821559D01*
X60248311Y-76821000D01*
X61361425Y-76821000D01*
X61429546Y-76841002D01*
X61468568Y-76880696D01*
X61526522Y-76974348D01*
X61651697Y-77099305D01*
X61657927Y-77103145D01*
X61657928Y-77103146D01*
X61795288Y-77187816D01*
X61802262Y-77192115D01*
X61810107Y-77194717D01*
X61963611Y-77245632D01*
X61963613Y-77245632D01*
X61970139Y-77247797D01*
X61976975Y-77248497D01*
X61976978Y-77248498D01*
X62020031Y-77252909D01*
X62074600Y-77258500D01*
X63425400Y-77258500D01*
X63428646Y-77258163D01*
X63428650Y-77258163D01*
X63524308Y-77248238D01*
X63524312Y-77248237D01*
X63531166Y-77247526D01*
X63537702Y-77245345D01*
X63537704Y-77245345D01*
X63689597Y-77194669D01*
X63698946Y-77191550D01*
X63849348Y-77098478D01*
X63974305Y-76973303D01*
X64014250Y-76908500D01*
X64063275Y-76828968D01*
X64063276Y-76828966D01*
X64067115Y-76822738D01*
X64122797Y-76654861D01*
X64126031Y-76623303D01*
X64131933Y-76565689D01*
X64133500Y-76550400D01*
X64133500Y-76547095D01*
X64867001Y-76547095D01*
X64867338Y-76553614D01*
X64877257Y-76649206D01*
X64880149Y-76662600D01*
X64931588Y-76816784D01*
X64937761Y-76829962D01*
X65023063Y-76967807D01*
X65032099Y-76979208D01*
X65146829Y-77093739D01*
X65158240Y-77102751D01*
X65296243Y-77187816D01*
X65309424Y-77193963D01*
X65463710Y-77245138D01*
X65477086Y-77248005D01*
X65571438Y-77257672D01*
X65577854Y-77258000D01*
X65977885Y-77258000D01*
X65993124Y-77253525D01*
X65994329Y-77252135D01*
X65996000Y-77244452D01*
X65996000Y-77239884D01*
X66504000Y-77239884D01*
X66508475Y-77255123D01*
X66509865Y-77256328D01*
X66517548Y-77257999D01*
X66922095Y-77257999D01*
X66928614Y-77257662D01*
X67024206Y-77247743D01*
X67037600Y-77244851D01*
X67191784Y-77193412D01*
X67204962Y-77187239D01*
X67342807Y-77101937D01*
X67354208Y-77092901D01*
X67468739Y-76978171D01*
X67477751Y-76966760D01*
X67562816Y-76828757D01*
X67568963Y-76815576D01*
X67620138Y-76661290D01*
X67623005Y-76647914D01*
X67632672Y-76553562D01*
X67633000Y-76547146D01*
X67633000Y-76459615D01*
X67628525Y-76444376D01*
X67627135Y-76443171D01*
X67619452Y-76441500D01*
X66522115Y-76441500D01*
X66506876Y-76445975D01*
X66505671Y-76447365D01*
X66504000Y-76455048D01*
X66504000Y-77239884D01*
X65996000Y-77239884D01*
X65996000Y-76459615D01*
X65991525Y-76444376D01*
X65990135Y-76443171D01*
X65982452Y-76441500D01*
X64885116Y-76441500D01*
X64869877Y-76445975D01*
X64868672Y-76447365D01*
X64867001Y-76455048D01*
X64867001Y-76547095D01*
X64133500Y-76547095D01*
X64133500Y-75915385D01*
X64867000Y-75915385D01*
X64871475Y-75930624D01*
X64872865Y-75931829D01*
X64880548Y-75933500D01*
X65977885Y-75933500D01*
X65993124Y-75929025D01*
X65994329Y-75927635D01*
X65996000Y-75919952D01*
X65996000Y-75915385D01*
X66504000Y-75915385D01*
X66508475Y-75930624D01*
X66509865Y-75931829D01*
X66517548Y-75933500D01*
X67614884Y-75933500D01*
X67630123Y-75929025D01*
X67631328Y-75927635D01*
X67632999Y-75919952D01*
X67632999Y-75827905D01*
X67632662Y-75821386D01*
X67622743Y-75725794D01*
X67619851Y-75712400D01*
X67568412Y-75558216D01*
X67562239Y-75545038D01*
X67476937Y-75407193D01*
X67467901Y-75395792D01*
X67353171Y-75281261D01*
X67341760Y-75272249D01*
X67203757Y-75187184D01*
X67190576Y-75181037D01*
X67036290Y-75129862D01*
X67022914Y-75126995D01*
X66928562Y-75117328D01*
X66922145Y-75117000D01*
X66522115Y-75117000D01*
X66506876Y-75121475D01*
X66505671Y-75122865D01*
X66504000Y-75130548D01*
X66504000Y-75915385D01*
X65996000Y-75915385D01*
X65996000Y-75135116D01*
X65991525Y-75119877D01*
X65990135Y-75118672D01*
X65982452Y-75117001D01*
X65577905Y-75117001D01*
X65571386Y-75117338D01*
X65475794Y-75127257D01*
X65462400Y-75130149D01*
X65308216Y-75181588D01*
X65295038Y-75187761D01*
X65157193Y-75273063D01*
X65145792Y-75282099D01*
X65031261Y-75396829D01*
X65022249Y-75408240D01*
X64937184Y-75546243D01*
X64931037Y-75559424D01*
X64879862Y-75713710D01*
X64876995Y-75727086D01*
X64867328Y-75821438D01*
X64867000Y-75827855D01*
X64867000Y-75915385D01*
X64133500Y-75915385D01*
X64133500Y-75824600D01*
X64131160Y-75802049D01*
X64123238Y-75725692D01*
X64123237Y-75725688D01*
X64122526Y-75718834D01*
X64102561Y-75658990D01*
X64068868Y-75558002D01*
X64066550Y-75551054D01*
X63973478Y-75400652D01*
X63848303Y-75275695D01*
X63798140Y-75244774D01*
X63703968Y-75186725D01*
X63703966Y-75186724D01*
X63697738Y-75182885D01*
X63577557Y-75143023D01*
X63536389Y-75129368D01*
X63536387Y-75129368D01*
X63529861Y-75127203D01*
X63523025Y-75126503D01*
X63523022Y-75126502D01*
X63479969Y-75122091D01*
X63425400Y-75116500D01*
X62074600Y-75116500D01*
X62071354Y-75116837D01*
X62071350Y-75116837D01*
X61975692Y-75126762D01*
X61975688Y-75126763D01*
X61968834Y-75127474D01*
X61962298Y-75129655D01*
X61962296Y-75129655D01*
X61858019Y-75164445D01*
X61801054Y-75183450D01*
X61650652Y-75276522D01*
X61525695Y-75401697D01*
X61521855Y-75407927D01*
X61521854Y-75407928D01*
X61507036Y-75431967D01*
X61479861Y-75476054D01*
X61468727Y-75494116D01*
X61415955Y-75541609D01*
X61361467Y-75554000D01*
X60759500Y-75554000D01*
X60691379Y-75533998D01*
X60644886Y-75480342D01*
X60633500Y-75428000D01*
X60633500Y-72713763D01*
X60634027Y-72702579D01*
X60635701Y-72695091D01*
X60633562Y-72627032D01*
X60633500Y-72623075D01*
X60633500Y-72595144D01*
X60632994Y-72591138D01*
X60632061Y-72579292D01*
X60630922Y-72543037D01*
X60630673Y-72535110D01*
X60625022Y-72515658D01*
X60621014Y-72496306D01*
X60619468Y-72484068D01*
X60619467Y-72484066D01*
X60618474Y-72476203D01*
X60602194Y-72435086D01*
X60598359Y-72423885D01*
X60586018Y-72381406D01*
X60581985Y-72374587D01*
X60581983Y-72374582D01*
X60575707Y-72363971D01*
X60567010Y-72346221D01*
X60559552Y-72327383D01*
X60543320Y-72305041D01*
X60537467Y-72296986D01*
X60533571Y-72291623D01*
X60527053Y-72281701D01*
X60508578Y-72250460D01*
X60508574Y-72250455D01*
X60504542Y-72243637D01*
X60490218Y-72229313D01*
X60477376Y-72214278D01*
X60476931Y-72213665D01*
X60465472Y-72197893D01*
X60431406Y-72169711D01*
X60422627Y-72161722D01*
X60178652Y-71917747D01*
X60171112Y-71909461D01*
X60167000Y-71902982D01*
X60117348Y-71856356D01*
X60114507Y-71853602D01*
X60094770Y-71833865D01*
X60091573Y-71831385D01*
X60082551Y-71823680D01*
X60056100Y-71798841D01*
X60050321Y-71793414D01*
X60043375Y-71789595D01*
X60043372Y-71789593D01*
X60032566Y-71783652D01*
X60016047Y-71772801D01*
X60013722Y-71770998D01*
X60000041Y-71760386D01*
X59992772Y-71757241D01*
X59992768Y-71757238D01*
X59959463Y-71742826D01*
X59948813Y-71737609D01*
X59910060Y-71716305D01*
X59900651Y-71713889D01*
X59895654Y-71712606D01*
X59890437Y-71711267D01*
X59871734Y-71704863D01*
X59860420Y-71699967D01*
X59860419Y-71699967D01*
X59853145Y-71696819D01*
X59845322Y-71695580D01*
X59845312Y-71695577D01*
X59809476Y-71689901D01*
X59797856Y-71687495D01*
X59762711Y-71678472D01*
X59762710Y-71678472D01*
X59755030Y-71676500D01*
X59734776Y-71676500D01*
X59715065Y-71674949D01*
X59702886Y-71673020D01*
X59695057Y-71671780D01*
X59687165Y-71672526D01*
X59651039Y-71675941D01*
X59639181Y-71676500D01*
X58426805Y-71676500D01*
X58358684Y-71656498D01*
X58321013Y-71618940D01*
X58232822Y-71482617D01*
X58232820Y-71482614D01*
X58230014Y-71478277D01*
X58079670Y-71313051D01*
X58075619Y-71309852D01*
X58075615Y-71309848D01*
X57908414Y-71177800D01*
X57908410Y-71177798D01*
X57904359Y-71174598D01*
X57863053Y-71151796D01*
X57813084Y-71101364D01*
X57798312Y-71031921D01*
X57823428Y-70965516D01*
X57850780Y-70938909D01*
X57920167Y-70889416D01*
X58029860Y-70811173D01*
X58045161Y-70795926D01*
X58111209Y-70730107D01*
X58188096Y-70653489D01*
X58202460Y-70633500D01*
X58315435Y-70476277D01*
X58318453Y-70472077D01*
X58327897Y-70452969D01*
X58330019Y-70448675D01*
X58378132Y-70396467D01*
X58442977Y-70378500D01*
X61715761Y-70378500D01*
X61783882Y-70398502D01*
G37*
%TD.AperFunction*%
%TA.AperFunction,Conductor*%
G36*
X85822012Y-66832652D02*
G01*
X85828595Y-66838781D01*
X86882061Y-67892247D01*
X86889605Y-67900537D01*
X86893718Y-67907018D01*
X86899495Y-67912443D01*
X86943385Y-67953658D01*
X86946227Y-67956413D01*
X86965949Y-67976135D01*
X86969073Y-67978558D01*
X86969077Y-67978562D01*
X86969142Y-67978612D01*
X86978163Y-67986317D01*
X87010397Y-68016586D01*
X87017345Y-68020405D01*
X87017347Y-68020407D01*
X87028150Y-68026346D01*
X87044677Y-68037202D01*
X87054416Y-68044757D01*
X87054418Y-68044758D01*
X87060678Y-68049614D01*
X87101258Y-68067174D01*
X87111906Y-68072391D01*
X87114064Y-68073577D01*
X87150658Y-68093695D01*
X87158334Y-68095666D01*
X87158337Y-68095667D01*
X87170280Y-68098733D01*
X87188985Y-68105137D01*
X87207573Y-68113181D01*
X87215396Y-68114420D01*
X87215406Y-68114423D01*
X87251242Y-68120099D01*
X87262862Y-68122505D01*
X87298007Y-68131528D01*
X87305688Y-68133500D01*
X87325942Y-68133500D01*
X87345652Y-68135051D01*
X87365661Y-68138220D01*
X87373553Y-68137474D01*
X87409679Y-68134059D01*
X87421537Y-68133500D01*
X93435406Y-68133500D01*
X93503527Y-68153502D01*
X93524501Y-68170405D01*
X97266343Y-71912247D01*
X97273887Y-71920537D01*
X97278000Y-71927018D01*
X97283777Y-71932443D01*
X97327667Y-71973658D01*
X97330509Y-71976413D01*
X97350231Y-71996135D01*
X97353355Y-71998558D01*
X97353359Y-71998562D01*
X97353424Y-71998612D01*
X97362445Y-72006317D01*
X97394679Y-72036586D01*
X97401627Y-72040405D01*
X97401629Y-72040407D01*
X97412432Y-72046346D01*
X97428959Y-72057202D01*
X97438698Y-72064757D01*
X97438700Y-72064758D01*
X97444960Y-72069614D01*
X97485540Y-72087174D01*
X97496188Y-72092391D01*
X97534940Y-72113695D01*
X97542616Y-72115666D01*
X97542619Y-72115667D01*
X97554562Y-72118733D01*
X97573267Y-72125137D01*
X97591855Y-72133181D01*
X97599678Y-72134420D01*
X97599688Y-72134423D01*
X97635524Y-72140099D01*
X97647144Y-72142505D01*
X97677553Y-72150312D01*
X97689970Y-72153500D01*
X97710224Y-72153500D01*
X97729934Y-72155051D01*
X97749943Y-72158220D01*
X97757835Y-72157474D01*
X97793961Y-72154059D01*
X97805819Y-72153500D01*
X99474274Y-72153500D01*
X99542395Y-72173502D01*
X99581707Y-72213665D01*
X99649987Y-72325088D01*
X99796250Y-72493938D01*
X99968126Y-72636632D01*
X100005253Y-72658327D01*
X100041445Y-72679476D01*
X100090169Y-72731114D01*
X100103240Y-72800897D01*
X100076509Y-72866669D01*
X100036055Y-72900027D01*
X100023607Y-72906507D01*
X100019474Y-72909610D01*
X100019471Y-72909612D01*
X99849100Y-73037530D01*
X99844965Y-73040635D01*
X99819894Y-73066870D01*
X99694901Y-73197668D01*
X99690629Y-73202138D01*
X99564743Y-73386680D01*
X99563945Y-73388400D01*
X99513589Y-73437088D01*
X99455074Y-73451500D01*
X97820955Y-73451500D01*
X97772737Y-73441909D01*
X97688851Y-73407162D01*
X97680664Y-73406084D01*
X97680663Y-73406084D01*
X97669458Y-73404609D01*
X97638262Y-73400502D01*
X97569885Y-73391500D01*
X97569882Y-73391500D01*
X97569874Y-73391499D01*
X97538189Y-73387328D01*
X97530000Y-73386250D01*
X97498307Y-73390422D01*
X97481864Y-73391500D01*
X88298144Y-73391500D01*
X88281698Y-73390422D01*
X88258188Y-73387327D01*
X88250000Y-73386249D01*
X88210099Y-73391502D01*
X88104290Y-73405432D01*
X88091149Y-73407162D01*
X88083520Y-73410322D01*
X88080242Y-73411680D01*
X87943124Y-73468476D01*
X87906638Y-73496473D01*
X87847937Y-73541515D01*
X87847921Y-73541529D01*
X87822566Y-73560984D01*
X87822563Y-73560987D01*
X87816013Y-73566013D01*
X87810983Y-73572568D01*
X87796548Y-73591379D01*
X87785681Y-73603770D01*
X87766266Y-73623185D01*
X87753875Y-73634052D01*
X87728513Y-73653513D01*
X87704026Y-73685425D01*
X87704023Y-73685428D01*
X87704017Y-73685436D01*
X87657236Y-73746402D01*
X87630976Y-73780624D01*
X87569662Y-73928649D01*
X87569662Y-73928650D01*
X87567914Y-73941926D01*
X87558365Y-74014457D01*
X87554000Y-74047615D01*
X87554000Y-74047620D01*
X87548750Y-74087500D01*
X87549828Y-74095688D01*
X87552922Y-74119190D01*
X87554000Y-74135636D01*
X87554000Y-75051895D01*
X87533998Y-75120016D01*
X87494303Y-75159039D01*
X87425652Y-75201522D01*
X87345216Y-75282099D01*
X87339216Y-75288109D01*
X87276934Y-75322188D01*
X87206114Y-75317185D01*
X87161025Y-75288264D01*
X87078483Y-75205866D01*
X87073303Y-75200695D01*
X87050640Y-75186725D01*
X87015401Y-75165004D01*
X86974333Y-75139689D01*
X86925266Y-75082994D01*
X86923518Y-75076976D01*
X86919485Y-75070157D01*
X86919483Y-75070152D01*
X86913207Y-75059541D01*
X86904510Y-75041791D01*
X86897052Y-75022953D01*
X86871071Y-74987193D01*
X86864553Y-74977271D01*
X86846078Y-74946030D01*
X86846074Y-74946025D01*
X86842042Y-74939207D01*
X86827718Y-74924883D01*
X86814876Y-74909848D01*
X86812907Y-74907138D01*
X86802972Y-74893463D01*
X86768906Y-74865281D01*
X86760127Y-74857292D01*
X84488465Y-72585630D01*
X84454439Y-72523318D01*
X84459504Y-72452503D01*
X84488465Y-72407440D01*
X84496135Y-72399770D01*
X84498615Y-72396573D01*
X84506320Y-72387551D01*
X84529548Y-72362816D01*
X84536586Y-72355321D01*
X84540405Y-72348375D01*
X84540407Y-72348372D01*
X84546348Y-72337566D01*
X84557199Y-72321047D01*
X84564758Y-72311301D01*
X84569614Y-72305041D01*
X84572759Y-72297772D01*
X84572762Y-72297768D01*
X84587174Y-72264463D01*
X84592391Y-72253813D01*
X84613695Y-72215060D01*
X84618733Y-72195437D01*
X84625137Y-72176734D01*
X84630033Y-72165420D01*
X84630033Y-72165419D01*
X84633181Y-72158145D01*
X84634420Y-72150322D01*
X84634423Y-72150312D01*
X84640099Y-72114476D01*
X84642505Y-72102856D01*
X84651528Y-72067711D01*
X84651528Y-72067710D01*
X84653500Y-72060030D01*
X84653500Y-72039776D01*
X84655051Y-72020065D01*
X84655199Y-72019134D01*
X84658220Y-72000057D01*
X84654059Y-71956038D01*
X84653500Y-71944181D01*
X84653500Y-71722095D01*
X90542001Y-71722095D01*
X90542338Y-71728614D01*
X90552257Y-71824206D01*
X90555149Y-71837600D01*
X90606588Y-71991784D01*
X90612761Y-72004962D01*
X90698063Y-72142807D01*
X90707099Y-72154208D01*
X90821829Y-72268739D01*
X90833240Y-72277751D01*
X90971243Y-72362816D01*
X90984424Y-72368963D01*
X91138710Y-72420138D01*
X91152086Y-72423005D01*
X91246438Y-72432672D01*
X91252854Y-72433000D01*
X91477885Y-72433000D01*
X91493124Y-72428525D01*
X91494329Y-72427135D01*
X91496000Y-72419452D01*
X91496000Y-72414884D01*
X92004000Y-72414884D01*
X92008475Y-72430123D01*
X92009865Y-72431328D01*
X92017548Y-72432999D01*
X92247095Y-72432999D01*
X92253614Y-72432662D01*
X92349206Y-72422743D01*
X92362600Y-72419851D01*
X92516784Y-72368412D01*
X92529962Y-72362239D01*
X92667807Y-72276937D01*
X92679208Y-72267901D01*
X92793739Y-72153171D01*
X92802751Y-72141760D01*
X92887816Y-72003757D01*
X92893963Y-71990576D01*
X92945138Y-71836290D01*
X92948005Y-71822914D01*
X92957672Y-71728562D01*
X92958000Y-71722146D01*
X92958000Y-71684615D01*
X92953525Y-71669376D01*
X92952135Y-71668171D01*
X92944452Y-71666500D01*
X92022115Y-71666500D01*
X92006876Y-71670975D01*
X92005671Y-71672365D01*
X92004000Y-71680048D01*
X92004000Y-72414884D01*
X91496000Y-72414884D01*
X91496000Y-71684615D01*
X91491525Y-71669376D01*
X91490135Y-71668171D01*
X91482452Y-71666500D01*
X90560116Y-71666500D01*
X90544877Y-71670975D01*
X90543672Y-71672365D01*
X90542001Y-71680048D01*
X90542001Y-71722095D01*
X84653500Y-71722095D01*
X84653500Y-70515871D01*
X86941776Y-70515871D01*
X86978357Y-70641784D01*
X86984604Y-70656220D01*
X87059876Y-70783499D01*
X87069516Y-70795926D01*
X87174074Y-70900484D01*
X87186501Y-70910124D01*
X87313780Y-70985396D01*
X87328216Y-70991643D01*
X87471641Y-71033312D01*
X87479609Y-71034768D01*
X87493031Y-71031948D01*
X87496000Y-71020487D01*
X87496000Y-70522115D01*
X87491525Y-70506876D01*
X87490135Y-70505671D01*
X87482452Y-70504000D01*
X86956442Y-70504000D01*
X86942911Y-70507973D01*
X86941776Y-70515871D01*
X84653500Y-70515871D01*
X84653500Y-70194500D01*
X84673502Y-70126379D01*
X84727158Y-70079886D01*
X84779500Y-70068500D01*
X85185484Y-70068500D01*
X85187932Y-70068307D01*
X85187940Y-70068307D01*
X85215844Y-70066111D01*
X85215849Y-70066110D01*
X85222254Y-70065606D01*
X85337563Y-70032106D01*
X85371984Y-70022106D01*
X85371986Y-70022105D01*
X85379597Y-70019894D01*
X85405017Y-70004861D01*
X85513808Y-69940522D01*
X85520629Y-69936488D01*
X85536712Y-69920405D01*
X85599024Y-69886379D01*
X85625807Y-69883500D01*
X86817469Y-69883500D01*
X86885590Y-69903502D01*
X86932083Y-69957158D01*
X86938637Y-69987080D01*
X86941799Y-69991970D01*
X86950691Y-69996000D01*
X87228621Y-69996000D01*
X87292760Y-70013546D01*
X87305657Y-70021173D01*
X87320403Y-70029894D01*
X87328014Y-70032105D01*
X87328016Y-70032106D01*
X87359078Y-70041130D01*
X87477746Y-70075606D01*
X87484151Y-70076110D01*
X87484156Y-70076111D01*
X87512060Y-70078307D01*
X87512068Y-70078307D01*
X87514516Y-70078500D01*
X87597713Y-70078500D01*
X87669914Y-70101959D01*
X87672179Y-70104086D01*
X87679123Y-70107904D01*
X87679124Y-70107904D01*
X87689932Y-70113846D01*
X87706459Y-70124702D01*
X87716198Y-70132257D01*
X87716200Y-70132258D01*
X87722460Y-70137114D01*
X87763040Y-70154674D01*
X87773688Y-70159891D01*
X87799187Y-70173909D01*
X87812440Y-70181195D01*
X87820116Y-70183166D01*
X87820119Y-70183167D01*
X87832062Y-70186233D01*
X87850767Y-70192637D01*
X87869355Y-70200681D01*
X87877184Y-70201921D01*
X87877187Y-70201922D01*
X87897714Y-70205174D01*
X87961866Y-70235587D01*
X87999391Y-70295857D01*
X88004000Y-70329622D01*
X88004000Y-71018424D01*
X88008344Y-71033219D01*
X88018775Y-71035063D01*
X88028359Y-71033312D01*
X88171784Y-70991643D01*
X88186220Y-70985396D01*
X88313499Y-70910124D01*
X88325926Y-70900484D01*
X88430484Y-70795926D01*
X88440124Y-70783499D01*
X88515396Y-70656220D01*
X88521643Y-70641784D01*
X88563312Y-70498359D01*
X88565614Y-70485756D01*
X88567807Y-70457898D01*
X88568000Y-70452969D01*
X88568000Y-70347000D01*
X88588002Y-70278879D01*
X88641658Y-70232386D01*
X88694000Y-70221000D01*
X90567366Y-70221000D01*
X90635487Y-70241002D01*
X90674509Y-70280696D01*
X90701522Y-70324348D01*
X90706704Y-70329521D01*
X90788463Y-70411138D01*
X90822542Y-70473421D01*
X90817539Y-70544241D01*
X90788618Y-70589329D01*
X90706261Y-70671829D01*
X90697249Y-70683240D01*
X90612184Y-70821243D01*
X90606037Y-70834424D01*
X90554862Y-70988710D01*
X90551995Y-71002086D01*
X90542328Y-71096438D01*
X90542000Y-71102855D01*
X90542000Y-71140385D01*
X90546475Y-71155624D01*
X90547865Y-71156829D01*
X90555548Y-71158500D01*
X92939884Y-71158500D01*
X92955123Y-71154025D01*
X92956328Y-71152635D01*
X92957999Y-71144952D01*
X92957999Y-71102905D01*
X92957662Y-71096386D01*
X92947743Y-71000794D01*
X92944851Y-70987400D01*
X92893412Y-70833216D01*
X92887239Y-70820038D01*
X92801937Y-70682193D01*
X92792901Y-70670792D01*
X92711538Y-70589570D01*
X92677459Y-70527287D01*
X92682462Y-70456467D01*
X92711383Y-70411380D01*
X92794130Y-70328488D01*
X92794134Y-70328483D01*
X92799305Y-70323303D01*
X92820846Y-70288357D01*
X92888275Y-70178968D01*
X92888276Y-70178966D01*
X92892115Y-70172738D01*
X92933100Y-70049171D01*
X92945632Y-70011389D01*
X92945632Y-70011387D01*
X92947797Y-70004861D01*
X92958500Y-69900400D01*
X92958500Y-69274600D01*
X92948718Y-69180322D01*
X92948238Y-69175692D01*
X92948237Y-69175688D01*
X92947526Y-69168834D01*
X92943688Y-69157328D01*
X92893868Y-69008002D01*
X92891550Y-69001054D01*
X92798478Y-68850652D01*
X92673303Y-68725695D01*
X92640429Y-68705431D01*
X92528968Y-68636725D01*
X92528966Y-68636724D01*
X92522738Y-68632885D01*
X92413034Y-68596498D01*
X92361389Y-68579368D01*
X92361387Y-68579368D01*
X92354861Y-68577203D01*
X92348025Y-68576503D01*
X92348022Y-68576502D01*
X92304969Y-68572091D01*
X92250400Y-68566500D01*
X91249600Y-68566500D01*
X91246354Y-68566837D01*
X91246350Y-68566837D01*
X91150692Y-68576762D01*
X91150688Y-68576763D01*
X91143834Y-68577474D01*
X91137298Y-68579655D01*
X91137296Y-68579655D01*
X91051686Y-68608217D01*
X90976054Y-68633450D01*
X90825652Y-68726522D01*
X90820479Y-68731704D01*
X90773230Y-68779035D01*
X90700695Y-68851697D01*
X90696853Y-68857929D01*
X90696852Y-68857931D01*
X90674546Y-68894117D01*
X90621774Y-68941610D01*
X90567287Y-68954000D01*
X88629099Y-68954000D01*
X88560978Y-68933998D01*
X88522603Y-68888801D01*
X88519894Y-68890403D01*
X88440522Y-68756192D01*
X88436488Y-68749371D01*
X88320629Y-68633512D01*
X88280918Y-68610027D01*
X88186420Y-68554141D01*
X88186418Y-68554140D01*
X88179597Y-68550106D01*
X88171986Y-68547895D01*
X88171984Y-68547894D01*
X88098819Y-68526638D01*
X88022254Y-68504394D01*
X88015849Y-68503890D01*
X88015844Y-68503889D01*
X87987940Y-68501693D01*
X87987932Y-68501693D01*
X87985484Y-68501500D01*
X87514516Y-68501500D01*
X87512068Y-68501693D01*
X87512060Y-68501693D01*
X87484156Y-68503889D01*
X87484151Y-68503890D01*
X87477746Y-68504394D01*
X87401181Y-68526638D01*
X87328016Y-68547894D01*
X87328014Y-68547895D01*
X87320403Y-68550106D01*
X87237804Y-68598955D01*
X87173668Y-68616500D01*
X85739500Y-68616500D01*
X85671379Y-68596498D01*
X85624886Y-68542842D01*
X85613500Y-68490500D01*
X85613500Y-66927876D01*
X85633502Y-66859755D01*
X85687158Y-66813262D01*
X85757432Y-66803158D01*
X85822012Y-66832652D01*
G37*
%TD.AperFunction*%
%TA.AperFunction,Conductor*%
G36*
X74984871Y-62924752D02*
G01*
X75031364Y-62978408D01*
X75042750Y-63030750D01*
X75042750Y-63118490D01*
X75053797Y-63209775D01*
X75056513Y-63216635D01*
X75056513Y-63278290D01*
X75053314Y-63290887D01*
X75043706Y-63370285D01*
X75043250Y-63377839D01*
X75043250Y-63461750D01*
X75023248Y-63529871D01*
X74969592Y-63576364D01*
X74917250Y-63587750D01*
X72521833Y-63587750D01*
X72510649Y-63587223D01*
X72503161Y-63585549D01*
X72495238Y-63585798D01*
X72435103Y-63587688D01*
X72431145Y-63587750D01*
X72403214Y-63587750D01*
X72399299Y-63588245D01*
X72399295Y-63588245D01*
X72399237Y-63588253D01*
X72399208Y-63588256D01*
X72387366Y-63589189D01*
X72343180Y-63590577D01*
X72325814Y-63595622D01*
X72323728Y-63596228D01*
X72304376Y-63600236D01*
X72297305Y-63601130D01*
X72284273Y-63602776D01*
X72276904Y-63605693D01*
X72276902Y-63605694D01*
X72243167Y-63619050D01*
X72231939Y-63622895D01*
X72189477Y-63635232D01*
X72182655Y-63639266D01*
X72182649Y-63639269D01*
X72172038Y-63645544D01*
X72154288Y-63654240D01*
X72142826Y-63658778D01*
X72142821Y-63658781D01*
X72135453Y-63661698D01*
X72123367Y-63670479D01*
X72099695Y-63687677D01*
X72089777Y-63694193D01*
X72071089Y-63705245D01*
X72051707Y-63716708D01*
X72037383Y-63731032D01*
X72022351Y-63743871D01*
X72005963Y-63755778D01*
X71994326Y-63769845D01*
X71977782Y-63789843D01*
X71969792Y-63798623D01*
X68682002Y-67086413D01*
X68619690Y-67120439D01*
X68548875Y-67115374D01*
X68492039Y-67072827D01*
X68484454Y-67061457D01*
X68440128Y-66986506D01*
X68430484Y-66974074D01*
X68325926Y-66869516D01*
X68313499Y-66859876D01*
X68186220Y-66784604D01*
X68171784Y-66778357D01*
X68028359Y-66736688D01*
X68020391Y-66735232D01*
X68006969Y-66738052D01*
X68004000Y-66749513D01*
X68004000Y-67565500D01*
X67983998Y-67633621D01*
X67930342Y-67680114D01*
X67878000Y-67691500D01*
X67514516Y-67691500D01*
X67512068Y-67691693D01*
X67512060Y-67691693D01*
X67484156Y-67693889D01*
X67484151Y-67693890D01*
X67477746Y-67694394D01*
X67386205Y-67720989D01*
X67328016Y-67737894D01*
X67328014Y-67737895D01*
X67320403Y-67740106D01*
X67313581Y-67744141D01*
X67313580Y-67744141D01*
X67292760Y-67756454D01*
X67228621Y-67774000D01*
X66956442Y-67774000D01*
X66942911Y-67777973D01*
X66941776Y-67785871D01*
X66978357Y-67911784D01*
X66984605Y-67926222D01*
X66990016Y-67935372D01*
X67007474Y-68004188D01*
X66990015Y-68063647D01*
X66986536Y-68069531D01*
X66980106Y-68080403D01*
X66977895Y-68088014D01*
X66977894Y-68088016D01*
X66974064Y-68101199D01*
X66934394Y-68237746D01*
X66933890Y-68244151D01*
X66933889Y-68244156D01*
X66932600Y-68260538D01*
X66931500Y-68274516D01*
X66931500Y-68490500D01*
X66911498Y-68558621D01*
X66857842Y-68605114D01*
X66805500Y-68616500D01*
X66116480Y-68616500D01*
X66048359Y-68596498D01*
X66027462Y-68579673D01*
X66027157Y-68579368D01*
X65923303Y-68475695D01*
X65893742Y-68457473D01*
X65778968Y-68386725D01*
X65778966Y-68386724D01*
X65772738Y-68382885D01*
X65630901Y-68335840D01*
X65611389Y-68329368D01*
X65611387Y-68329368D01*
X65604861Y-68327203D01*
X65598025Y-68326503D01*
X65598022Y-68326502D01*
X65554969Y-68322091D01*
X65500400Y-68316500D01*
X64499600Y-68316500D01*
X64496354Y-68316837D01*
X64496350Y-68316837D01*
X64400692Y-68326762D01*
X64400688Y-68326763D01*
X64393834Y-68327474D01*
X64387298Y-68329655D01*
X64387296Y-68329655D01*
X64293824Y-68360840D01*
X64226054Y-68383450D01*
X64075652Y-68476522D01*
X64070479Y-68481704D01*
X64050525Y-68501693D01*
X63950695Y-68601697D01*
X63946855Y-68607927D01*
X63946854Y-68607928D01*
X63863123Y-68743765D01*
X63857885Y-68752262D01*
X63802203Y-68920139D01*
X63801503Y-68926975D01*
X63801502Y-68926978D01*
X63800003Y-68941610D01*
X63791500Y-69024600D01*
X63791500Y-69650400D01*
X63791837Y-69653646D01*
X63791837Y-69653650D01*
X63800989Y-69741851D01*
X63802474Y-69756166D01*
X63804655Y-69762702D01*
X63804655Y-69762704D01*
X63824152Y-69821143D01*
X63858450Y-69923946D01*
X63951522Y-70074348D01*
X63998889Y-70121632D01*
X64038109Y-70160784D01*
X64072188Y-70223066D01*
X64067185Y-70293886D01*
X64038264Y-70338975D01*
X63985824Y-70391507D01*
X63950695Y-70426697D01*
X63946855Y-70432927D01*
X63946854Y-70432928D01*
X63909137Y-70494116D01*
X63856364Y-70541610D01*
X63801877Y-70554000D01*
X63716739Y-70554000D01*
X63648618Y-70533998D01*
X63627644Y-70517095D01*
X62484315Y-69373766D01*
X62473448Y-69361375D01*
X62459013Y-69342563D01*
X62453987Y-69336013D01*
X62422075Y-69311526D01*
X62422072Y-69311523D01*
X62333429Y-69243504D01*
X62333427Y-69243503D01*
X62326876Y-69238476D01*
X62178851Y-69177162D01*
X62170664Y-69176084D01*
X62170663Y-69176084D01*
X62159458Y-69174609D01*
X62128262Y-69170502D01*
X62059885Y-69161500D01*
X62059882Y-69161500D01*
X62059874Y-69161499D01*
X62028189Y-69157328D01*
X62020000Y-69156250D01*
X61988307Y-69160422D01*
X61971864Y-69161500D01*
X58442978Y-69161500D01*
X58374857Y-69141498D01*
X58337186Y-69103940D01*
X58332490Y-69096680D01*
X58266596Y-68994824D01*
X58232822Y-68942617D01*
X58232820Y-68942614D01*
X58230014Y-68938277D01*
X58079670Y-68773051D01*
X58075619Y-68769852D01*
X58075615Y-68769848D01*
X57908414Y-68637800D01*
X57908410Y-68637798D01*
X57904359Y-68634598D01*
X57863053Y-68611796D01*
X57813084Y-68561364D01*
X57798312Y-68491921D01*
X57823428Y-68425516D01*
X57850780Y-68398909D01*
X57916053Y-68352350D01*
X58029860Y-68271173D01*
X58054647Y-68246473D01*
X58164523Y-68136980D01*
X58188096Y-68113489D01*
X58194098Y-68105137D01*
X58315435Y-67936277D01*
X58318453Y-67932077D01*
X58320746Y-67927437D01*
X58322446Y-67924608D01*
X58374674Y-67876518D01*
X58430451Y-67863500D01*
X64691233Y-67863500D01*
X64702416Y-67864027D01*
X64709909Y-67865702D01*
X64717835Y-67865453D01*
X64717836Y-67865453D01*
X64777986Y-67863562D01*
X64781945Y-67863500D01*
X64809856Y-67863500D01*
X64813791Y-67863003D01*
X64813856Y-67862995D01*
X64825693Y-67862062D01*
X64857951Y-67861048D01*
X64861970Y-67860922D01*
X64869889Y-67860673D01*
X64889343Y-67855021D01*
X64908700Y-67851013D01*
X64920930Y-67849468D01*
X64920931Y-67849468D01*
X64928797Y-67848474D01*
X64936168Y-67845555D01*
X64936170Y-67845555D01*
X64969912Y-67832196D01*
X64981142Y-67828351D01*
X65015983Y-67818229D01*
X65015984Y-67818229D01*
X65023593Y-67816018D01*
X65030412Y-67811985D01*
X65030417Y-67811983D01*
X65041028Y-67805707D01*
X65058776Y-67797012D01*
X65077617Y-67789552D01*
X65093555Y-67777973D01*
X65113387Y-67763564D01*
X65123307Y-67757048D01*
X65154535Y-67738580D01*
X65154538Y-67738578D01*
X65161362Y-67734542D01*
X65175686Y-67720218D01*
X65190713Y-67707383D01*
X65207107Y-67695472D01*
X65235293Y-67661401D01*
X65243282Y-67652622D01*
X65248534Y-67647370D01*
X65295378Y-67620653D01*
X65294515Y-67618474D01*
X65335629Y-67602196D01*
X65346859Y-67598351D01*
X65381700Y-67588229D01*
X65381701Y-67588229D01*
X65389310Y-67586018D01*
X65396129Y-67581985D01*
X65396134Y-67581983D01*
X65406745Y-67575707D01*
X65424493Y-67567012D01*
X65443334Y-67559552D01*
X65479104Y-67533564D01*
X65489024Y-67527048D01*
X65520252Y-67508580D01*
X65520255Y-67508578D01*
X65527079Y-67504542D01*
X65541400Y-67490221D01*
X65556434Y-67477380D01*
X65572824Y-67465472D01*
X65601015Y-67431395D01*
X65609005Y-67422616D01*
X65783016Y-67248605D01*
X66943381Y-67248605D01*
X66943421Y-67262705D01*
X66950691Y-67266000D01*
X67477885Y-67266000D01*
X67493124Y-67261525D01*
X67494329Y-67260135D01*
X67496000Y-67252452D01*
X67496000Y-66751576D01*
X67491656Y-66736781D01*
X67481225Y-66734937D01*
X67471641Y-66736688D01*
X67328216Y-66778357D01*
X67313780Y-66784604D01*
X67186501Y-66859876D01*
X67174074Y-66869516D01*
X67069516Y-66974074D01*
X67059876Y-66986501D01*
X66984604Y-67113780D01*
X66978357Y-67128216D01*
X66943381Y-67248605D01*
X65783016Y-67248605D01*
X70089966Y-62941655D01*
X70152278Y-62907629D01*
X70179061Y-62904750D01*
X74916750Y-62904750D01*
X74984871Y-62924752D01*
G37*
%TD.AperFunction*%
%TD*%
M02*
