%TF.GenerationSoftware,KiCad,Pcbnew,(6.0.4-0)*%
%TF.CreationDate,2025-08-27T16:40:30+02:00*%
%TF.ProjectId,FYP_PMIC,4659505f-504d-4494-932e-6b696361645f,rev?*%
%TF.SameCoordinates,Original*%
%TF.FileFunction,Legend,Top*%
%TF.FilePolarity,Positive*%
%FSLAX46Y46*%
G04 Gerber Fmt 4.6, Leading zero omitted, Abs format (unit mm)*
G04 Created by KiCad (PCBNEW (6.0.4-0)) date 2025-08-27 16:40:30*
%MOMM*%
%LPD*%
G01*
G04 APERTURE LIST*
G04 Aperture macros list*
%AMRoundRect*
0 Rectangle with rounded corners*
0 $1 Rounding radius*
0 $2 $3 $4 $5 $6 $7 $8 $9 X,Y pos of 4 corners*
0 Add a 4 corners polygon primitive as box body*
4,1,4,$2,$3,$4,$5,$6,$7,$8,$9,$2,$3,0*
0 Add four circle primitives for the rounded corners*
1,1,$1+$1,$2,$3*
1,1,$1+$1,$4,$5*
1,1,$1+$1,$6,$7*
1,1,$1+$1,$8,$9*
0 Add four rect primitives between the rounded corners*
20,1,$1+$1,$2,$3,$4,$5,0*
20,1,$1+$1,$4,$5,$6,$7,0*
20,1,$1+$1,$6,$7,$8,$9,0*
20,1,$1+$1,$8,$9,$2,$3,0*%
G04 Aperture macros list end*
%ADD10C,0.125000*%
%ADD11C,0.150000*%
%ADD12C,0.120000*%
%ADD13C,0.127000*%
%ADD14C,0.200000*%
%ADD15RoundRect,0.140000X-0.170000X0.140000X-0.170000X-0.140000X0.170000X-0.140000X0.170000X0.140000X0*%
%ADD16RoundRect,0.140000X0.170000X-0.140000X0.170000X0.140000X-0.170000X0.140000X-0.170000X-0.140000X0*%
%ADD17RoundRect,0.250000X0.262500X0.450000X-0.262500X0.450000X-0.262500X-0.450000X0.262500X-0.450000X0*%
%ADD18RoundRect,0.250000X-0.450000X0.262500X-0.450000X-0.262500X0.450000X-0.262500X0.450000X0.262500X0*%
%ADD19RoundRect,0.225000X0.225000X0.250000X-0.225000X0.250000X-0.225000X-0.250000X0.225000X-0.250000X0*%
%ADD20C,2.000000*%
%ADD21RoundRect,0.102000X-0.800000X-0.900000X0.800000X-0.900000X0.800000X0.900000X-0.800000X0.900000X0*%
%ADD22C,1.600000*%
%ADD23R,1.700000X1.700000*%
%ADD24O,1.700000X1.700000*%
%ADD25RoundRect,0.250000X0.625000X-0.312500X0.625000X0.312500X-0.625000X0.312500X-0.625000X-0.312500X0*%
%ADD26RoundRect,0.225000X0.250000X-0.225000X0.250000X0.225000X-0.250000X0.225000X-0.250000X-0.225000X0*%
%ADD27RoundRect,0.250000X-0.262500X-0.450000X0.262500X-0.450000X0.262500X0.450000X-0.262500X0.450000X0*%
%ADD28RoundRect,0.250000X-0.625000X0.312500X-0.625000X-0.312500X0.625000X-0.312500X0.625000X0.312500X0*%
%ADD29RoundRect,0.140000X-0.140000X-0.170000X0.140000X-0.170000X0.140000X0.170000X-0.140000X0.170000X0*%
%ADD30RoundRect,0.153250X-0.733750X-0.153750X0.733750X-0.153750X0.733750X0.153750X-0.733750X0.153750X0*%
%ADD31RoundRect,0.250000X0.450000X-0.262500X0.450000X0.262500X-0.450000X0.262500X-0.450000X-0.262500X0*%
G04 APERTURE END LIST*
D10*
X48869047Y-61660000D02*
X48821428Y-61621904D01*
X48750000Y-61621904D01*
X48678571Y-61660000D01*
X48630952Y-61736190D01*
X48607142Y-61812380D01*
X48583333Y-61964761D01*
X48583333Y-62079047D01*
X48607142Y-62231428D01*
X48630952Y-62307619D01*
X48678571Y-62383809D01*
X48750000Y-62421904D01*
X48797619Y-62421904D01*
X48869047Y-62383809D01*
X48892857Y-62345714D01*
X48892857Y-62079047D01*
X48797619Y-62079047D01*
X49107142Y-62421904D02*
X49107142Y-61621904D01*
X49392857Y-62421904D01*
X49392857Y-61621904D01*
X49630952Y-62421904D02*
X49630952Y-61621904D01*
X49750000Y-61621904D01*
X49821428Y-61660000D01*
X49869047Y-61736190D01*
X49892857Y-61812380D01*
X49916666Y-61964761D01*
X49916666Y-62079047D01*
X49892857Y-62231428D01*
X49869047Y-62307619D01*
X49821428Y-62383809D01*
X49750000Y-62421904D01*
X49630952Y-62421904D01*
X48261904Y-64769333D02*
X48500000Y-64769333D01*
X48214285Y-64997904D02*
X48380952Y-64197904D01*
X48547619Y-64997904D01*
X48952380Y-64997904D02*
X48714285Y-64997904D01*
X48714285Y-64197904D01*
X49119047Y-64578857D02*
X49285714Y-64578857D01*
X49357142Y-64997904D02*
X49119047Y-64997904D01*
X49119047Y-64197904D01*
X49357142Y-64197904D01*
X49857142Y-64997904D02*
X49690476Y-64616952D01*
X49571428Y-64997904D02*
X49571428Y-64197904D01*
X49761904Y-64197904D01*
X49809523Y-64236000D01*
X49833333Y-64274095D01*
X49857142Y-64350285D01*
X49857142Y-64464571D01*
X49833333Y-64540761D01*
X49809523Y-64578857D01*
X49761904Y-64616952D01*
X49571428Y-64616952D01*
X50000000Y-64197904D02*
X50285714Y-64197904D01*
X50142857Y-64997904D02*
X50142857Y-64197904D01*
X48702380Y-66773904D02*
X48869047Y-67573904D01*
X49035714Y-66773904D01*
X49202380Y-67573904D02*
X49202380Y-66773904D01*
X49440476Y-67573904D02*
X49440476Y-66773904D01*
X49726190Y-67573904D01*
X49726190Y-66773904D01*
X48571428Y-69730857D02*
X48642857Y-69768952D01*
X48666666Y-69807047D01*
X48690476Y-69883238D01*
X48690476Y-69997523D01*
X48666666Y-70073714D01*
X48642857Y-70111809D01*
X48595238Y-70149904D01*
X48404761Y-70149904D01*
X48404761Y-69349904D01*
X48571428Y-69349904D01*
X48619047Y-69388000D01*
X48642857Y-69426095D01*
X48666666Y-69502285D01*
X48666666Y-69578476D01*
X48642857Y-69654666D01*
X48619047Y-69692761D01*
X48571428Y-69730857D01*
X48404761Y-69730857D01*
X48880952Y-69921333D02*
X49119047Y-69921333D01*
X48833333Y-70149904D02*
X49000000Y-69349904D01*
X49166666Y-70149904D01*
X49261904Y-69349904D02*
X49547619Y-69349904D01*
X49404761Y-70149904D02*
X49404761Y-69349904D01*
X49714285Y-69845142D02*
X50095238Y-69845142D01*
X49904761Y-70149904D02*
X49904761Y-69540380D01*
X49154761Y-71964000D02*
X49107142Y-71925904D01*
X49035714Y-71925904D01*
X48964285Y-71964000D01*
X48916666Y-72040190D01*
X48892857Y-72116380D01*
X48869047Y-72268761D01*
X48869047Y-72383047D01*
X48892857Y-72535428D01*
X48916666Y-72611619D01*
X48964285Y-72687809D01*
X49035714Y-72725904D01*
X49083333Y-72725904D01*
X49154761Y-72687809D01*
X49178571Y-72649714D01*
X49178571Y-72383047D01*
X49083333Y-72383047D01*
X49392857Y-72306857D02*
X49559523Y-72306857D01*
X49630952Y-72725904D02*
X49392857Y-72725904D01*
X49392857Y-71925904D01*
X49630952Y-71925904D01*
X48333333Y-74501904D02*
X48500000Y-75301904D01*
X48666666Y-74501904D01*
X48809523Y-75263809D02*
X48880952Y-75301904D01*
X49000000Y-75301904D01*
X49047619Y-75263809D01*
X49071428Y-75225714D01*
X49095238Y-75149523D01*
X49095238Y-75073333D01*
X49071428Y-74997142D01*
X49047619Y-74959047D01*
X49000000Y-74920952D01*
X48904761Y-74882857D01*
X48857142Y-74844761D01*
X48833333Y-74806666D01*
X48809523Y-74730476D01*
X48809523Y-74654285D01*
X48833333Y-74578095D01*
X48857142Y-74540000D01*
X48904761Y-74501904D01*
X49023809Y-74501904D01*
X49095238Y-74540000D01*
X49309523Y-74501904D02*
X49309523Y-75149523D01*
X49333333Y-75225714D01*
X49357142Y-75263809D01*
X49404761Y-75301904D01*
X49500000Y-75301904D01*
X49547619Y-75263809D01*
X49571428Y-75225714D01*
X49595238Y-75149523D01*
X49595238Y-74501904D01*
X49833333Y-75301904D02*
X49833333Y-74501904D01*
X50023809Y-74501904D01*
X50071428Y-74540000D01*
X50095238Y-74578095D01*
X50119047Y-74654285D01*
X50119047Y-74768571D01*
X50095238Y-74844761D01*
X50071428Y-74882857D01*
X50023809Y-74920952D01*
X49833333Y-74920952D01*
X108119047Y-63410000D02*
X108071428Y-63371904D01*
X108000000Y-63371904D01*
X107928571Y-63410000D01*
X107880952Y-63486190D01*
X107857142Y-63562380D01*
X107833333Y-63714761D01*
X107833333Y-63829047D01*
X107857142Y-63981428D01*
X107880952Y-64057619D01*
X107928571Y-64133809D01*
X108000000Y-64171904D01*
X108047619Y-64171904D01*
X108119047Y-64133809D01*
X108142857Y-64095714D01*
X108142857Y-63829047D01*
X108047619Y-63829047D01*
X108357142Y-64171904D02*
X108357142Y-63371904D01*
X108642857Y-64171904D01*
X108642857Y-63371904D01*
X108880952Y-64171904D02*
X108880952Y-63371904D01*
X109000000Y-63371904D01*
X109071428Y-63410000D01*
X109119047Y-63486190D01*
X109142857Y-63562380D01*
X109166666Y-63714761D01*
X109166666Y-63829047D01*
X109142857Y-63981428D01*
X109119047Y-64057619D01*
X109071428Y-64133809D01*
X109000000Y-64171904D01*
X108880952Y-64171904D01*
X107892857Y-66709809D02*
X107964285Y-66747904D01*
X108083333Y-66747904D01*
X108130952Y-66709809D01*
X108154761Y-66671714D01*
X108178571Y-66595523D01*
X108178571Y-66519333D01*
X108154761Y-66443142D01*
X108130952Y-66405047D01*
X108083333Y-66366952D01*
X107988095Y-66328857D01*
X107940476Y-66290761D01*
X107916666Y-66252666D01*
X107892857Y-66176476D01*
X107892857Y-66100285D01*
X107916666Y-66024095D01*
X107940476Y-65986000D01*
X107988095Y-65947904D01*
X108107142Y-65947904D01*
X108178571Y-65986000D01*
X108392857Y-66747904D02*
X108392857Y-65947904D01*
X108511904Y-65947904D01*
X108583333Y-65986000D01*
X108630952Y-66062190D01*
X108654761Y-66138380D01*
X108678571Y-66290761D01*
X108678571Y-66405047D01*
X108654761Y-66557428D01*
X108630952Y-66633619D01*
X108583333Y-66709809D01*
X108511904Y-66747904D01*
X108392857Y-66747904D01*
X108869047Y-66519333D02*
X109107142Y-66519333D01*
X108821428Y-66747904D02*
X108988095Y-65947904D01*
X109154761Y-66747904D01*
X107904761Y-69285809D02*
X107976190Y-69323904D01*
X108095238Y-69323904D01*
X108142857Y-69285809D01*
X108166666Y-69247714D01*
X108190476Y-69171523D01*
X108190476Y-69095333D01*
X108166666Y-69019142D01*
X108142857Y-68981047D01*
X108095238Y-68942952D01*
X108000000Y-68904857D01*
X107952380Y-68866761D01*
X107928571Y-68828666D01*
X107904761Y-68752476D01*
X107904761Y-68676285D01*
X107928571Y-68600095D01*
X107952380Y-68562000D01*
X108000000Y-68523904D01*
X108119047Y-68523904D01*
X108190476Y-68562000D01*
X108690476Y-69247714D02*
X108666666Y-69285809D01*
X108595238Y-69323904D01*
X108547619Y-69323904D01*
X108476190Y-69285809D01*
X108428571Y-69209619D01*
X108404761Y-69133428D01*
X108380952Y-68981047D01*
X108380952Y-68866761D01*
X108404761Y-68714380D01*
X108428571Y-68638190D01*
X108476190Y-68562000D01*
X108547619Y-68523904D01*
X108595238Y-68523904D01*
X108666666Y-68562000D01*
X108690476Y-68600095D01*
X109142857Y-69323904D02*
X108904761Y-69323904D01*
X108904761Y-68523904D01*
X107845238Y-71099904D02*
X108011904Y-71899904D01*
X108178571Y-71099904D01*
X108345238Y-71480857D02*
X108511904Y-71480857D01*
X108583333Y-71899904D02*
X108345238Y-71899904D01*
X108345238Y-71099904D01*
X108583333Y-71099904D01*
X108797619Y-71899904D02*
X108797619Y-71099904D01*
X109083333Y-71899904D01*
X109083333Y-71099904D01*
X107821428Y-74056857D02*
X107892857Y-74094952D01*
X107916666Y-74133047D01*
X107940476Y-74209238D01*
X107940476Y-74323523D01*
X107916666Y-74399714D01*
X107892857Y-74437809D01*
X107845238Y-74475904D01*
X107654761Y-74475904D01*
X107654761Y-73675904D01*
X107821428Y-73675904D01*
X107869047Y-73714000D01*
X107892857Y-73752095D01*
X107916666Y-73828285D01*
X107916666Y-73904476D01*
X107892857Y-73980666D01*
X107869047Y-74018761D01*
X107821428Y-74056857D01*
X107654761Y-74056857D01*
X108130952Y-74247333D02*
X108369047Y-74247333D01*
X108083333Y-74475904D02*
X108250000Y-73675904D01*
X108416666Y-74475904D01*
X108511904Y-73675904D02*
X108797619Y-73675904D01*
X108654761Y-74475904D02*
X108654761Y-73675904D01*
X108964285Y-74171142D02*
X109345238Y-74171142D01*
X107583333Y-76251904D02*
X107750000Y-77051904D01*
X107916666Y-76251904D01*
X108059523Y-77013809D02*
X108130952Y-77051904D01*
X108250000Y-77051904D01*
X108297619Y-77013809D01*
X108321428Y-76975714D01*
X108345238Y-76899523D01*
X108345238Y-76823333D01*
X108321428Y-76747142D01*
X108297619Y-76709047D01*
X108250000Y-76670952D01*
X108154761Y-76632857D01*
X108107142Y-76594761D01*
X108083333Y-76556666D01*
X108059523Y-76480476D01*
X108059523Y-76404285D01*
X108083333Y-76328095D01*
X108107142Y-76290000D01*
X108154761Y-76251904D01*
X108273809Y-76251904D01*
X108345238Y-76290000D01*
X108559523Y-76251904D02*
X108559523Y-76899523D01*
X108583333Y-76975714D01*
X108607142Y-77013809D01*
X108654761Y-77051904D01*
X108750000Y-77051904D01*
X108797619Y-77013809D01*
X108821428Y-76975714D01*
X108845238Y-76899523D01*
X108845238Y-76251904D01*
X109083333Y-77051904D02*
X109083333Y-76251904D01*
X109273809Y-76251904D01*
X109321428Y-76290000D01*
X109345238Y-76328095D01*
X109369047Y-76404285D01*
X109369047Y-76518571D01*
X109345238Y-76594761D01*
X109321428Y-76632857D01*
X109273809Y-76670952D01*
X109083333Y-76670952D01*
D11*
X49226190Y-81446428D02*
X49369047Y-81482142D01*
X49416666Y-81517857D01*
X49464285Y-81589285D01*
X49464285Y-81696428D01*
X49416666Y-81767857D01*
X49369047Y-81803571D01*
X49273809Y-81839285D01*
X48892857Y-81839285D01*
X48892857Y-81089285D01*
X49226190Y-81089285D01*
X49321428Y-81125000D01*
X49369047Y-81160714D01*
X49416666Y-81232142D01*
X49416666Y-81303571D01*
X49369047Y-81375000D01*
X49321428Y-81410714D01*
X49226190Y-81446428D01*
X48892857Y-81446428D01*
X50559523Y-81910714D02*
X50464285Y-81875000D01*
X50369047Y-81803571D01*
X50226190Y-81696428D01*
X50130952Y-81660714D01*
X50035714Y-81660714D01*
X50083333Y-81839285D02*
X49988095Y-81803571D01*
X49892857Y-81732142D01*
X49845238Y-81589285D01*
X49845238Y-81339285D01*
X49892857Y-81196428D01*
X49988095Y-81125000D01*
X50083333Y-81089285D01*
X50273809Y-81089285D01*
X50369047Y-81125000D01*
X50464285Y-81196428D01*
X50511904Y-81339285D01*
X50511904Y-81589285D01*
X50464285Y-81732142D01*
X50369047Y-81803571D01*
X50273809Y-81839285D01*
X50083333Y-81839285D01*
X50845238Y-81089285D02*
X51464285Y-81089285D01*
X51130952Y-81375000D01*
X51273809Y-81375000D01*
X51369047Y-81410714D01*
X51416666Y-81446428D01*
X51464285Y-81517857D01*
X51464285Y-81696428D01*
X51416666Y-81767857D01*
X51369047Y-81803571D01*
X51273809Y-81839285D01*
X50988095Y-81839285D01*
X50892857Y-81803571D01*
X50845238Y-81767857D01*
X52369047Y-81089285D02*
X51892857Y-81089285D01*
X51845238Y-81446428D01*
X51892857Y-81410714D01*
X51988095Y-81375000D01*
X52226190Y-81375000D01*
X52321428Y-81410714D01*
X52369047Y-81446428D01*
X52416666Y-81517857D01*
X52416666Y-81696428D01*
X52369047Y-81767857D01*
X52321428Y-81803571D01*
X52226190Y-81839285D01*
X51988095Y-81839285D01*
X51892857Y-81803571D01*
X51845238Y-81767857D01*
X53369047Y-81839285D02*
X52797619Y-81839285D01*
X53083333Y-81839285D02*
X53083333Y-81089285D01*
X52988095Y-81196428D01*
X52892857Y-81267857D01*
X52797619Y-81303571D01*
X53988095Y-81089285D02*
X54083333Y-81089285D01*
X54178571Y-81125000D01*
X54226190Y-81160714D01*
X54273809Y-81232142D01*
X54321428Y-81375000D01*
X54321428Y-81553571D01*
X54273809Y-81696428D01*
X54226190Y-81767857D01*
X54178571Y-81803571D01*
X54083333Y-81839285D01*
X53988095Y-81839285D01*
X53892857Y-81803571D01*
X53845238Y-81767857D01*
X53797619Y-81696428D01*
X53750000Y-81553571D01*
X53750000Y-81375000D01*
X53797619Y-81232142D01*
X53845238Y-81160714D01*
X53892857Y-81125000D01*
X53988095Y-81089285D01*
X54940476Y-81089285D02*
X55035714Y-81089285D01*
X55130952Y-81125000D01*
X55178571Y-81160714D01*
X55226190Y-81232142D01*
X55273809Y-81375000D01*
X55273809Y-81553571D01*
X55226190Y-81696428D01*
X55178571Y-81767857D01*
X55130952Y-81803571D01*
X55035714Y-81839285D01*
X54940476Y-81839285D01*
X54845238Y-81803571D01*
X54797619Y-81767857D01*
X54750000Y-81696428D01*
X54702380Y-81553571D01*
X54702380Y-81375000D01*
X54750000Y-81232142D01*
X54797619Y-81160714D01*
X54845238Y-81125000D01*
X54940476Y-81089285D01*
X56464285Y-81839285D02*
X56464285Y-81089285D01*
X56845238Y-81089285D01*
X56940476Y-81125000D01*
X56988095Y-81160714D01*
X57035714Y-81232142D01*
X57035714Y-81339285D01*
X56988095Y-81410714D01*
X56940476Y-81446428D01*
X56845238Y-81482142D01*
X56464285Y-81482142D01*
X57464285Y-81839285D02*
X57464285Y-81089285D01*
X57797619Y-81625000D01*
X58130952Y-81089285D01*
X58130952Y-81839285D01*
X58607142Y-81839285D02*
X58607142Y-81089285D01*
X59654761Y-81767857D02*
X59607142Y-81803571D01*
X59464285Y-81839285D01*
X59369047Y-81839285D01*
X59226190Y-81803571D01*
X59130952Y-81732142D01*
X59083333Y-81660714D01*
X59035714Y-81517857D01*
X59035714Y-81410714D01*
X59083333Y-81267857D01*
X59130952Y-81196428D01*
X59226190Y-81125000D01*
X59369047Y-81089285D01*
X59464285Y-81089285D01*
X59607142Y-81125000D01*
X59654761Y-81160714D01*
X98142857Y-81816666D02*
X97809523Y-81483333D01*
X97571428Y-81816666D02*
X97571428Y-81116666D01*
X97952380Y-81116666D01*
X98047619Y-81150000D01*
X98095238Y-81183333D01*
X98142857Y-81250000D01*
X98142857Y-81350000D01*
X98095238Y-81416666D01*
X98047619Y-81450000D01*
X97952380Y-81483333D01*
X97571428Y-81483333D01*
X98571428Y-81750000D02*
X98619047Y-81783333D01*
X98571428Y-81816666D01*
X98523809Y-81783333D01*
X98571428Y-81750000D01*
X98571428Y-81816666D01*
X99571428Y-81150000D02*
X99476190Y-81116666D01*
X99333333Y-81116666D01*
X99190476Y-81150000D01*
X99095238Y-81216666D01*
X99047619Y-81283333D01*
X99000000Y-81416666D01*
X99000000Y-81516666D01*
X99047619Y-81650000D01*
X99095238Y-81716666D01*
X99190476Y-81783333D01*
X99333333Y-81816666D01*
X99428571Y-81816666D01*
X99571428Y-81783333D01*
X99619047Y-81750000D01*
X99619047Y-81516666D01*
X99428571Y-81516666D01*
X100047619Y-81116666D02*
X100047619Y-81683333D01*
X100095238Y-81750000D01*
X100142857Y-81783333D01*
X100238095Y-81816666D01*
X100428571Y-81816666D01*
X100523809Y-81783333D01*
X100571428Y-81750000D01*
X100619047Y-81683333D01*
X100619047Y-81116666D01*
X101095238Y-81816666D02*
X101095238Y-81116666D01*
X101523809Y-81783333D02*
X101666666Y-81816666D01*
X101904761Y-81816666D01*
X102000000Y-81783333D01*
X102047619Y-81750000D01*
X102095238Y-81683333D01*
X102095238Y-81616666D01*
X102047619Y-81550000D01*
X102000000Y-81516666D01*
X101904761Y-81483333D01*
X101714285Y-81450000D01*
X101619047Y-81416666D01*
X101571428Y-81383333D01*
X101523809Y-81316666D01*
X101523809Y-81250000D01*
X101571428Y-81183333D01*
X101619047Y-81150000D01*
X101714285Y-81116666D01*
X101952380Y-81116666D01*
X102095238Y-81150000D01*
X102523809Y-81450000D02*
X102857142Y-81450000D01*
X103000000Y-81816666D02*
X102523809Y-81816666D01*
X102523809Y-81116666D01*
X103000000Y-81116666D01*
X103428571Y-81550000D02*
X104190476Y-81550000D01*
X105000000Y-81450000D02*
X105142857Y-81483333D01*
X105190476Y-81516666D01*
X105238095Y-81583333D01*
X105238095Y-81683333D01*
X105190476Y-81750000D01*
X105142857Y-81783333D01*
X105047619Y-81816666D01*
X104666666Y-81816666D01*
X104666666Y-81116666D01*
X105000000Y-81116666D01*
X105095238Y-81150000D01*
X105142857Y-81183333D01*
X105190476Y-81250000D01*
X105190476Y-81316666D01*
X105142857Y-81383333D01*
X105095238Y-81416666D01*
X105000000Y-81450000D01*
X104666666Y-81450000D01*
X106238095Y-81816666D02*
X105904761Y-81483333D01*
X105666666Y-81816666D02*
X105666666Y-81116666D01*
X106047619Y-81116666D01*
X106142857Y-81150000D01*
X106190476Y-81183333D01*
X106238095Y-81250000D01*
X106238095Y-81350000D01*
X106190476Y-81416666D01*
X106142857Y-81450000D01*
X106047619Y-81483333D01*
X105666666Y-81483333D01*
X106857142Y-81116666D02*
X107047619Y-81116666D01*
X107142857Y-81150000D01*
X107238095Y-81216666D01*
X107285714Y-81350000D01*
X107285714Y-81583333D01*
X107238095Y-81716666D01*
X107142857Y-81783333D01*
X107047619Y-81816666D01*
X106857142Y-81816666D01*
X106761904Y-81783333D01*
X106666666Y-81716666D01*
X106619047Y-81583333D01*
X106619047Y-81350000D01*
X106666666Y-81216666D01*
X106761904Y-81150000D01*
X106857142Y-81116666D01*
X107619047Y-81116666D02*
X107857142Y-81816666D01*
X108047619Y-81316666D01*
X108238095Y-81816666D01*
X108476190Y-81116666D01*
X108857142Y-81816666D02*
X108857142Y-81116666D01*
X109428571Y-81816666D01*
X109428571Y-81116666D01*
%TO.C,C_SRP2*%
X82500000Y-76146666D02*
X82533333Y-76180000D01*
X82566666Y-76280000D01*
X82566666Y-76346666D01*
X82533333Y-76446666D01*
X82466666Y-76513333D01*
X82400000Y-76546666D01*
X82266666Y-76580000D01*
X82166666Y-76580000D01*
X82033333Y-76546666D01*
X81966666Y-76513333D01*
X81900000Y-76446666D01*
X81866666Y-76346666D01*
X81866666Y-76280000D01*
X81900000Y-76180000D01*
X81933333Y-76146666D01*
X82633333Y-76013333D02*
X82633333Y-75480000D01*
X82533333Y-75346666D02*
X82566666Y-75246666D01*
X82566666Y-75080000D01*
X82533333Y-75013333D01*
X82500000Y-74980000D01*
X82433333Y-74946666D01*
X82366666Y-74946666D01*
X82300000Y-74980000D01*
X82266666Y-75013333D01*
X82233333Y-75080000D01*
X82200000Y-75213333D01*
X82166666Y-75280000D01*
X82133333Y-75313333D01*
X82066666Y-75346666D01*
X82000000Y-75346666D01*
X81933333Y-75313333D01*
X81900000Y-75280000D01*
X81866666Y-75213333D01*
X81866666Y-75046666D01*
X81900000Y-74946666D01*
X82566666Y-74246666D02*
X82233333Y-74480000D01*
X82566666Y-74646666D02*
X81866666Y-74646666D01*
X81866666Y-74380000D01*
X81900000Y-74313333D01*
X81933333Y-74280000D01*
X82000000Y-74246666D01*
X82100000Y-74246666D01*
X82166666Y-74280000D01*
X82200000Y-74313333D01*
X82233333Y-74380000D01*
X82233333Y-74646666D01*
X82566666Y-73946666D02*
X81866666Y-73946666D01*
X81866666Y-73680000D01*
X81900000Y-73613333D01*
X81933333Y-73580000D01*
X82000000Y-73546666D01*
X82100000Y-73546666D01*
X82166666Y-73580000D01*
X82200000Y-73613333D01*
X82233333Y-73680000D01*
X82233333Y-73946666D01*
X81933333Y-73280000D02*
X81900000Y-73246666D01*
X81866666Y-73180000D01*
X81866666Y-73013333D01*
X81900000Y-72946666D01*
X81933333Y-72913333D01*
X82000000Y-72880000D01*
X82066666Y-72880000D01*
X82166666Y-72913333D01*
X82566666Y-73313333D01*
X82566666Y-72880000D01*
%TO.C,C_bat1*%
X66840000Y-69216666D02*
X66873333Y-69250000D01*
X66906666Y-69350000D01*
X66906666Y-69416666D01*
X66873333Y-69516666D01*
X66806666Y-69583333D01*
X66740000Y-69616666D01*
X66606666Y-69650000D01*
X66506666Y-69650000D01*
X66373333Y-69616666D01*
X66306666Y-69583333D01*
X66240000Y-69516666D01*
X66206666Y-69416666D01*
X66206666Y-69350000D01*
X66240000Y-69250000D01*
X66273333Y-69216666D01*
X66973333Y-69083333D02*
X66973333Y-68550000D01*
X66906666Y-68383333D02*
X66206666Y-68383333D01*
X66473333Y-68383333D02*
X66440000Y-68316666D01*
X66440000Y-68183333D01*
X66473333Y-68116666D01*
X66506666Y-68083333D01*
X66573333Y-68050000D01*
X66773333Y-68050000D01*
X66840000Y-68083333D01*
X66873333Y-68116666D01*
X66906666Y-68183333D01*
X66906666Y-68316666D01*
X66873333Y-68383333D01*
X66906666Y-67450000D02*
X66540000Y-67450000D01*
X66473333Y-67483333D01*
X66440000Y-67550000D01*
X66440000Y-67683333D01*
X66473333Y-67750000D01*
X66873333Y-67450000D02*
X66906666Y-67516666D01*
X66906666Y-67683333D01*
X66873333Y-67750000D01*
X66806666Y-67783333D01*
X66740000Y-67783333D01*
X66673333Y-67750000D01*
X66640000Y-67683333D01*
X66640000Y-67516666D01*
X66606666Y-67450000D01*
X66440000Y-67216666D02*
X66440000Y-66950000D01*
X66206666Y-67116666D02*
X66806666Y-67116666D01*
X66873333Y-67083333D01*
X66906666Y-67016666D01*
X66906666Y-66950000D01*
X66906666Y-66350000D02*
X66906666Y-66750000D01*
X66906666Y-66550000D02*
X66206666Y-66550000D01*
X66306666Y-66616666D01*
X66373333Y-66683333D01*
X66406666Y-66750000D01*
%TO.C,R_SRN1*%
X86066666Y-78566666D02*
X85833333Y-78233333D01*
X85666666Y-78566666D02*
X85666666Y-77866666D01*
X85933333Y-77866666D01*
X86000000Y-77900000D01*
X86033333Y-77933333D01*
X86066666Y-78000000D01*
X86066666Y-78100000D01*
X86033333Y-78166666D01*
X86000000Y-78200000D01*
X85933333Y-78233333D01*
X85666666Y-78233333D01*
X86200000Y-78633333D02*
X86733333Y-78633333D01*
X86866666Y-78533333D02*
X86966666Y-78566666D01*
X87133333Y-78566666D01*
X87200000Y-78533333D01*
X87233333Y-78500000D01*
X87266666Y-78433333D01*
X87266666Y-78366666D01*
X87233333Y-78300000D01*
X87200000Y-78266666D01*
X87133333Y-78233333D01*
X87000000Y-78200000D01*
X86933333Y-78166666D01*
X86900000Y-78133333D01*
X86866666Y-78066666D01*
X86866666Y-78000000D01*
X86900000Y-77933333D01*
X86933333Y-77900000D01*
X87000000Y-77866666D01*
X87166666Y-77866666D01*
X87266666Y-77900000D01*
X87966666Y-78566666D02*
X87733333Y-78233333D01*
X87566666Y-78566666D02*
X87566666Y-77866666D01*
X87833333Y-77866666D01*
X87900000Y-77900000D01*
X87933333Y-77933333D01*
X87966666Y-78000000D01*
X87966666Y-78100000D01*
X87933333Y-78166666D01*
X87900000Y-78200000D01*
X87833333Y-78233333D01*
X87566666Y-78233333D01*
X88266666Y-78566666D02*
X88266666Y-77866666D01*
X88666666Y-78566666D01*
X88666666Y-77866666D01*
X89366666Y-78566666D02*
X88966666Y-78566666D01*
X89166666Y-78566666D02*
X89166666Y-77866666D01*
X89100000Y-77966666D01*
X89033333Y-78033333D01*
X88966666Y-78066666D01*
%TO.C,R_ge_in1*%
X76066666Y-76225000D02*
X75733333Y-76458333D01*
X76066666Y-76625000D02*
X75366666Y-76625000D01*
X75366666Y-76358333D01*
X75400000Y-76291666D01*
X75433333Y-76258333D01*
X75500000Y-76225000D01*
X75600000Y-76225000D01*
X75666666Y-76258333D01*
X75700000Y-76291666D01*
X75733333Y-76358333D01*
X75733333Y-76625000D01*
X76133333Y-76091666D02*
X76133333Y-75558333D01*
X75600000Y-75091666D02*
X76166666Y-75091666D01*
X76233333Y-75125000D01*
X76266666Y-75158333D01*
X76300000Y-75225000D01*
X76300000Y-75325000D01*
X76266666Y-75391666D01*
X76033333Y-75091666D02*
X76066666Y-75158333D01*
X76066666Y-75291666D01*
X76033333Y-75358333D01*
X76000000Y-75391666D01*
X75933333Y-75425000D01*
X75733333Y-75425000D01*
X75666666Y-75391666D01*
X75633333Y-75358333D01*
X75600000Y-75291666D01*
X75600000Y-75158333D01*
X75633333Y-75091666D01*
X76033333Y-74491666D02*
X76066666Y-74558333D01*
X76066666Y-74691666D01*
X76033333Y-74758333D01*
X75966666Y-74791666D01*
X75700000Y-74791666D01*
X75633333Y-74758333D01*
X75600000Y-74691666D01*
X75600000Y-74558333D01*
X75633333Y-74491666D01*
X75700000Y-74458333D01*
X75766666Y-74458333D01*
X75833333Y-74791666D01*
X76133333Y-74325000D02*
X76133333Y-73791666D01*
X76066666Y-73625000D02*
X75600000Y-73625000D01*
X75366666Y-73625000D02*
X75400000Y-73658333D01*
X75433333Y-73625000D01*
X75400000Y-73591666D01*
X75366666Y-73625000D01*
X75433333Y-73625000D01*
X75600000Y-73291666D02*
X76066666Y-73291666D01*
X75666666Y-73291666D02*
X75633333Y-73258333D01*
X75600000Y-73191666D01*
X75600000Y-73091666D01*
X75633333Y-73025000D01*
X75700000Y-72991666D01*
X76066666Y-72991666D01*
X76066666Y-72291666D02*
X76066666Y-72691666D01*
X76066666Y-72491666D02*
X75366666Y-72491666D01*
X75466666Y-72558333D01*
X75533333Y-72625000D01*
X75566666Y-72691666D01*
%TO.C,C_reg1*%
X66533333Y-57430000D02*
X66500000Y-57463333D01*
X66400000Y-57496666D01*
X66333333Y-57496666D01*
X66233333Y-57463333D01*
X66166666Y-57396666D01*
X66133333Y-57330000D01*
X66100000Y-57196666D01*
X66100000Y-57096666D01*
X66133333Y-56963333D01*
X66166666Y-56896666D01*
X66233333Y-56830000D01*
X66333333Y-56796666D01*
X66400000Y-56796666D01*
X66500000Y-56830000D01*
X66533333Y-56863333D01*
X66666666Y-57563333D02*
X67200000Y-57563333D01*
X67366666Y-57496666D02*
X67366666Y-57030000D01*
X67366666Y-57163333D02*
X67400000Y-57096666D01*
X67433333Y-57063333D01*
X67500000Y-57030000D01*
X67566666Y-57030000D01*
X68066666Y-57463333D02*
X68000000Y-57496666D01*
X67866666Y-57496666D01*
X67800000Y-57463333D01*
X67766666Y-57396666D01*
X67766666Y-57130000D01*
X67800000Y-57063333D01*
X67866666Y-57030000D01*
X68000000Y-57030000D01*
X68066666Y-57063333D01*
X68100000Y-57130000D01*
X68100000Y-57196666D01*
X67766666Y-57263333D01*
X68700000Y-57030000D02*
X68700000Y-57596666D01*
X68666666Y-57663333D01*
X68633333Y-57696666D01*
X68566666Y-57730000D01*
X68466666Y-57730000D01*
X68400000Y-57696666D01*
X68700000Y-57463333D02*
X68633333Y-57496666D01*
X68500000Y-57496666D01*
X68433333Y-57463333D01*
X68400000Y-57430000D01*
X68366666Y-57363333D01*
X68366666Y-57163333D01*
X68400000Y-57096666D01*
X68433333Y-57063333D01*
X68500000Y-57030000D01*
X68633333Y-57030000D01*
X68700000Y-57063333D01*
X69400000Y-57496666D02*
X69000000Y-57496666D01*
X69200000Y-57496666D02*
X69200000Y-56796666D01*
X69133333Y-56896666D01*
X69066666Y-56963333D01*
X69000000Y-56996666D01*
%TO.C,TP_SCL1*%
X84133333Y-60866666D02*
X84533333Y-60866666D01*
X84333333Y-61566666D02*
X84333333Y-60866666D01*
X84766666Y-61566666D02*
X84766666Y-60866666D01*
X85033333Y-60866666D01*
X85100000Y-60900000D01*
X85133333Y-60933333D01*
X85166666Y-61000000D01*
X85166666Y-61100000D01*
X85133333Y-61166666D01*
X85100000Y-61200000D01*
X85033333Y-61233333D01*
X84766666Y-61233333D01*
X85300000Y-61633333D02*
X85833333Y-61633333D01*
X85966666Y-61533333D02*
X86066666Y-61566666D01*
X86233333Y-61566666D01*
X86300000Y-61533333D01*
X86333333Y-61500000D01*
X86366666Y-61433333D01*
X86366666Y-61366666D01*
X86333333Y-61300000D01*
X86300000Y-61266666D01*
X86233333Y-61233333D01*
X86100000Y-61200000D01*
X86033333Y-61166666D01*
X86000000Y-61133333D01*
X85966666Y-61066666D01*
X85966666Y-61000000D01*
X86000000Y-60933333D01*
X86033333Y-60900000D01*
X86100000Y-60866666D01*
X86266666Y-60866666D01*
X86366666Y-60900000D01*
X87066666Y-61500000D02*
X87033333Y-61533333D01*
X86933333Y-61566666D01*
X86866666Y-61566666D01*
X86766666Y-61533333D01*
X86700000Y-61466666D01*
X86666666Y-61400000D01*
X86633333Y-61266666D01*
X86633333Y-61166666D01*
X86666666Y-61033333D01*
X86700000Y-60966666D01*
X86766666Y-60900000D01*
X86866666Y-60866666D01*
X86933333Y-60866666D01*
X87033333Y-60900000D01*
X87066666Y-60933333D01*
X87700000Y-61566666D02*
X87366666Y-61566666D01*
X87366666Y-60866666D01*
X88300000Y-61566666D02*
X87900000Y-61566666D01*
X88100000Y-61566666D02*
X88100000Y-60866666D01*
X88033333Y-60966666D01*
X87966666Y-61033333D01*
X87900000Y-61066666D01*
%TO.C,R_CRS1*%
X93475159Y-78784964D02*
X93265186Y-78485001D01*
X93115205Y-78784964D02*
X93115205Y-78155043D01*
X93355174Y-78155043D01*
X93415167Y-78185039D01*
X93445163Y-78215035D01*
X93475159Y-78275028D01*
X93475159Y-78365016D01*
X93445163Y-78425009D01*
X93415167Y-78455005D01*
X93355174Y-78485001D01*
X93115205Y-78485001D01*
X93595144Y-78844956D02*
X94075084Y-78844956D01*
X94585020Y-78724971D02*
X94555024Y-78754968D01*
X94465035Y-78784964D01*
X94405043Y-78784964D01*
X94315054Y-78754968D01*
X94255062Y-78694975D01*
X94225065Y-78634983D01*
X94195069Y-78514998D01*
X94195069Y-78425009D01*
X94225065Y-78305024D01*
X94255062Y-78245031D01*
X94315054Y-78185039D01*
X94405043Y-78155043D01*
X94465035Y-78155043D01*
X94555024Y-78185039D01*
X94585020Y-78215035D01*
X95214941Y-78784964D02*
X95004968Y-78485001D01*
X94854986Y-78784964D02*
X94854986Y-78155043D01*
X95094956Y-78155043D01*
X95154949Y-78185039D01*
X95184945Y-78215035D01*
X95214941Y-78275028D01*
X95214941Y-78365016D01*
X95184945Y-78425009D01*
X95154949Y-78455005D01*
X95094956Y-78485001D01*
X94854986Y-78485001D01*
X95454911Y-78754968D02*
X95544900Y-78784964D01*
X95694881Y-78784964D01*
X95754873Y-78754968D01*
X95784870Y-78724971D01*
X95814866Y-78664979D01*
X95814866Y-78604986D01*
X95784870Y-78544994D01*
X95754873Y-78514998D01*
X95694881Y-78485001D01*
X95574896Y-78455005D01*
X95514904Y-78425009D01*
X95484907Y-78395013D01*
X95454911Y-78335020D01*
X95454911Y-78275028D01*
X95484907Y-78215035D01*
X95514904Y-78185039D01*
X95574896Y-78155043D01*
X95724877Y-78155043D01*
X95814866Y-78185039D01*
X96414791Y-78784964D02*
X96054836Y-78784964D01*
X96234813Y-78784964D02*
X96234813Y-78155043D01*
X96174821Y-78245031D01*
X96114828Y-78305024D01*
X96054836Y-78335020D01*
%TO.C,R_bat1*%
X63566666Y-71239602D02*
X63233333Y-71472936D01*
X63566666Y-71639602D02*
X62866666Y-71639602D01*
X62866666Y-71372936D01*
X62900000Y-71306269D01*
X62933333Y-71272936D01*
X63000000Y-71239602D01*
X63100000Y-71239602D01*
X63166666Y-71272936D01*
X63200000Y-71306269D01*
X63233333Y-71372936D01*
X63233333Y-71639602D01*
X63633333Y-71106269D02*
X63633333Y-70572936D01*
X63566666Y-70406269D02*
X62866666Y-70406269D01*
X63133333Y-70406269D02*
X63100000Y-70339602D01*
X63100000Y-70206269D01*
X63133333Y-70139602D01*
X63166666Y-70106269D01*
X63233333Y-70072936D01*
X63433333Y-70072936D01*
X63500000Y-70106269D01*
X63533333Y-70139602D01*
X63566666Y-70206269D01*
X63566666Y-70339602D01*
X63533333Y-70406269D01*
X63566666Y-69472936D02*
X63200000Y-69472936D01*
X63133333Y-69506269D01*
X63100000Y-69572936D01*
X63100000Y-69706269D01*
X63133333Y-69772936D01*
X63533333Y-69472936D02*
X63566666Y-69539602D01*
X63566666Y-69706269D01*
X63533333Y-69772936D01*
X63466666Y-69806269D01*
X63400000Y-69806269D01*
X63333333Y-69772936D01*
X63300000Y-69706269D01*
X63300000Y-69539602D01*
X63266666Y-69472936D01*
X63100000Y-69239602D02*
X63100000Y-68972936D01*
X62866666Y-69139602D02*
X63466666Y-69139602D01*
X63533333Y-69106269D01*
X63566666Y-69039602D01*
X63566666Y-68972936D01*
X63566666Y-68372936D02*
X63566666Y-68772936D01*
X63566666Y-68572936D02*
X62866666Y-68572936D01*
X62966666Y-68639602D01*
X63033333Y-68706269D01*
X63066666Y-68772936D01*
%TO.C,TH_TS1*%
X76233333Y-53116666D02*
X76633333Y-53116666D01*
X76433333Y-53816666D02*
X76433333Y-53116666D01*
X76866666Y-53816666D02*
X76866666Y-53116666D01*
X76866666Y-53450000D02*
X77266666Y-53450000D01*
X77266666Y-53816666D02*
X77266666Y-53116666D01*
X77433333Y-53883333D02*
X77966666Y-53883333D01*
X78033333Y-53116666D02*
X78433333Y-53116666D01*
X78233333Y-53816666D02*
X78233333Y-53116666D01*
X78633333Y-53783333D02*
X78733333Y-53816666D01*
X78900000Y-53816666D01*
X78966666Y-53783333D01*
X79000000Y-53750000D01*
X79033333Y-53683333D01*
X79033333Y-53616666D01*
X79000000Y-53550000D01*
X78966666Y-53516666D01*
X78900000Y-53483333D01*
X78766666Y-53450000D01*
X78700000Y-53416666D01*
X78666666Y-53383333D01*
X78633333Y-53316666D01*
X78633333Y-53250000D01*
X78666666Y-53183333D01*
X78700000Y-53150000D01*
X78766666Y-53116666D01*
X78933333Y-53116666D01*
X79033333Y-53150000D01*
X79700000Y-53816666D02*
X79300000Y-53816666D01*
X79500000Y-53816666D02*
X79500000Y-53116666D01*
X79433333Y-53216666D01*
X79366666Y-53283333D01*
X79300000Y-53316666D01*
%TO.C,J2_female1*%
X54900000Y-59116666D02*
X54900000Y-59616666D01*
X54866666Y-59716666D01*
X54800000Y-59783333D01*
X54700000Y-59816666D01*
X54633333Y-59816666D01*
X55200000Y-59183333D02*
X55233333Y-59150000D01*
X55300000Y-59116666D01*
X55466666Y-59116666D01*
X55533333Y-59150000D01*
X55566666Y-59183333D01*
X55600000Y-59250000D01*
X55600000Y-59316666D01*
X55566666Y-59416666D01*
X55166666Y-59816666D01*
X55600000Y-59816666D01*
X55733333Y-59883333D02*
X56266666Y-59883333D01*
X56333333Y-59350000D02*
X56600000Y-59350000D01*
X56433333Y-59816666D02*
X56433333Y-59216666D01*
X56466666Y-59150000D01*
X56533333Y-59116666D01*
X56600000Y-59116666D01*
X57100000Y-59783333D02*
X57033333Y-59816666D01*
X56900000Y-59816666D01*
X56833333Y-59783333D01*
X56800000Y-59716666D01*
X56800000Y-59450000D01*
X56833333Y-59383333D01*
X56900000Y-59350000D01*
X57033333Y-59350000D01*
X57100000Y-59383333D01*
X57133333Y-59450000D01*
X57133333Y-59516666D01*
X56800000Y-59583333D01*
X57433333Y-59816666D02*
X57433333Y-59350000D01*
X57433333Y-59416666D02*
X57466666Y-59383333D01*
X57533333Y-59350000D01*
X57633333Y-59350000D01*
X57700000Y-59383333D01*
X57733333Y-59450000D01*
X57733333Y-59816666D01*
X57733333Y-59450000D02*
X57766666Y-59383333D01*
X57833333Y-59350000D01*
X57933333Y-59350000D01*
X58000000Y-59383333D01*
X58033333Y-59450000D01*
X58033333Y-59816666D01*
X58666666Y-59816666D02*
X58666666Y-59450000D01*
X58633333Y-59383333D01*
X58566666Y-59350000D01*
X58433333Y-59350000D01*
X58366666Y-59383333D01*
X58666666Y-59783333D02*
X58600000Y-59816666D01*
X58433333Y-59816666D01*
X58366666Y-59783333D01*
X58333333Y-59716666D01*
X58333333Y-59650000D01*
X58366666Y-59583333D01*
X58433333Y-59550000D01*
X58600000Y-59550000D01*
X58666666Y-59516666D01*
X59100000Y-59816666D02*
X59033333Y-59783333D01*
X59000000Y-59716666D01*
X59000000Y-59116666D01*
X59633333Y-59783333D02*
X59566666Y-59816666D01*
X59433333Y-59816666D01*
X59366666Y-59783333D01*
X59333333Y-59716666D01*
X59333333Y-59450000D01*
X59366666Y-59383333D01*
X59433333Y-59350000D01*
X59566666Y-59350000D01*
X59633333Y-59383333D01*
X59666666Y-59450000D01*
X59666666Y-59516666D01*
X59333333Y-59583333D01*
X60333333Y-59816666D02*
X59933333Y-59816666D01*
X60133333Y-59816666D02*
X60133333Y-59116666D01*
X60066666Y-59216666D01*
X60000000Y-59283333D01*
X59933333Y-59316666D01*
%TO.C,R_alert2*%
X61746666Y-64600000D02*
X61413333Y-64833333D01*
X61746666Y-65000000D02*
X61046666Y-65000000D01*
X61046666Y-64733333D01*
X61080000Y-64666666D01*
X61113333Y-64633333D01*
X61180000Y-64600000D01*
X61280000Y-64600000D01*
X61346666Y-64633333D01*
X61380000Y-64666666D01*
X61413333Y-64733333D01*
X61413333Y-65000000D01*
X61813333Y-64466666D02*
X61813333Y-63933333D01*
X61746666Y-63466666D02*
X61380000Y-63466666D01*
X61313333Y-63500000D01*
X61280000Y-63566666D01*
X61280000Y-63700000D01*
X61313333Y-63766666D01*
X61713333Y-63466666D02*
X61746666Y-63533333D01*
X61746666Y-63700000D01*
X61713333Y-63766666D01*
X61646666Y-63800000D01*
X61580000Y-63800000D01*
X61513333Y-63766666D01*
X61480000Y-63700000D01*
X61480000Y-63533333D01*
X61446666Y-63466666D01*
X61746666Y-63033333D02*
X61713333Y-63100000D01*
X61646666Y-63133333D01*
X61046666Y-63133333D01*
X61713333Y-62500000D02*
X61746666Y-62566666D01*
X61746666Y-62700000D01*
X61713333Y-62766666D01*
X61646666Y-62800000D01*
X61380000Y-62800000D01*
X61313333Y-62766666D01*
X61280000Y-62700000D01*
X61280000Y-62566666D01*
X61313333Y-62500000D01*
X61380000Y-62466666D01*
X61446666Y-62466666D01*
X61513333Y-62800000D01*
X61746666Y-62166666D02*
X61280000Y-62166666D01*
X61413333Y-62166666D02*
X61346666Y-62133333D01*
X61313333Y-62100000D01*
X61280000Y-62033333D01*
X61280000Y-61966666D01*
X61280000Y-61833333D02*
X61280000Y-61566666D01*
X61046666Y-61733333D02*
X61646666Y-61733333D01*
X61713333Y-61700000D01*
X61746666Y-61633333D01*
X61746666Y-61566666D01*
X61113333Y-61366666D02*
X61080000Y-61333333D01*
X61046666Y-61266666D01*
X61046666Y-61100000D01*
X61080000Y-61033333D01*
X61113333Y-61000000D01*
X61180000Y-60966666D01*
X61246666Y-60966666D01*
X61346666Y-61000000D01*
X61746666Y-61400000D01*
X61746666Y-60966666D01*
%TO.C,C_regin1*%
X80750000Y-75450000D02*
X80783333Y-75483333D01*
X80816666Y-75583333D01*
X80816666Y-75650000D01*
X80783333Y-75750000D01*
X80716666Y-75816666D01*
X80650000Y-75850000D01*
X80516666Y-75883333D01*
X80416666Y-75883333D01*
X80283333Y-75850000D01*
X80216666Y-75816666D01*
X80150000Y-75750000D01*
X80116666Y-75650000D01*
X80116666Y-75583333D01*
X80150000Y-75483333D01*
X80183333Y-75450000D01*
X80883333Y-75316666D02*
X80883333Y-74783333D01*
X80816666Y-74616666D02*
X80350000Y-74616666D01*
X80483333Y-74616666D02*
X80416666Y-74583333D01*
X80383333Y-74550000D01*
X80350000Y-74483333D01*
X80350000Y-74416666D01*
X80783333Y-73916666D02*
X80816666Y-73983333D01*
X80816666Y-74116666D01*
X80783333Y-74183333D01*
X80716666Y-74216666D01*
X80450000Y-74216666D01*
X80383333Y-74183333D01*
X80350000Y-74116666D01*
X80350000Y-73983333D01*
X80383333Y-73916666D01*
X80450000Y-73883333D01*
X80516666Y-73883333D01*
X80583333Y-74216666D01*
X80350000Y-73283333D02*
X80916666Y-73283333D01*
X80983333Y-73316666D01*
X81016666Y-73350000D01*
X81050000Y-73416666D01*
X81050000Y-73516666D01*
X81016666Y-73583333D01*
X80783333Y-73283333D02*
X80816666Y-73350000D01*
X80816666Y-73483333D01*
X80783333Y-73550000D01*
X80750000Y-73583333D01*
X80683333Y-73616666D01*
X80483333Y-73616666D01*
X80416666Y-73583333D01*
X80383333Y-73550000D01*
X80350000Y-73483333D01*
X80350000Y-73350000D01*
X80383333Y-73283333D01*
X80816666Y-72950000D02*
X80350000Y-72950000D01*
X80116666Y-72950000D02*
X80150000Y-72983333D01*
X80183333Y-72950000D01*
X80150000Y-72916666D01*
X80116666Y-72950000D01*
X80183333Y-72950000D01*
X80350000Y-72616666D02*
X80816666Y-72616666D01*
X80416666Y-72616666D02*
X80383333Y-72583333D01*
X80350000Y-72516666D01*
X80350000Y-72416666D01*
X80383333Y-72350000D01*
X80450000Y-72316666D01*
X80816666Y-72316666D01*
X80816666Y-71616666D02*
X80816666Y-72016666D01*
X80816666Y-71816666D02*
X80116666Y-71816666D01*
X80216666Y-71883333D01*
X80283333Y-71950000D01*
X80316666Y-72016666D01*
%TO.C,TP_REGIN1*%
X74550000Y-67366666D02*
X74950000Y-67366666D01*
X74750000Y-68066666D02*
X74750000Y-67366666D01*
X75183333Y-68066666D02*
X75183333Y-67366666D01*
X75450000Y-67366666D01*
X75516666Y-67400000D01*
X75550000Y-67433333D01*
X75583333Y-67500000D01*
X75583333Y-67600000D01*
X75550000Y-67666666D01*
X75516666Y-67700000D01*
X75450000Y-67733333D01*
X75183333Y-67733333D01*
X75716666Y-68133333D02*
X76250000Y-68133333D01*
X76816666Y-68066666D02*
X76583333Y-67733333D01*
X76416666Y-68066666D02*
X76416666Y-67366666D01*
X76683333Y-67366666D01*
X76750000Y-67400000D01*
X76783333Y-67433333D01*
X76816666Y-67500000D01*
X76816666Y-67600000D01*
X76783333Y-67666666D01*
X76750000Y-67700000D01*
X76683333Y-67733333D01*
X76416666Y-67733333D01*
X77116666Y-67700000D02*
X77350000Y-67700000D01*
X77450000Y-68066666D02*
X77116666Y-68066666D01*
X77116666Y-67366666D01*
X77450000Y-67366666D01*
X78116666Y-67400000D02*
X78050000Y-67366666D01*
X77950000Y-67366666D01*
X77850000Y-67400000D01*
X77783333Y-67466666D01*
X77750000Y-67533333D01*
X77716666Y-67666666D01*
X77716666Y-67766666D01*
X77750000Y-67900000D01*
X77783333Y-67966666D01*
X77850000Y-68033333D01*
X77950000Y-68066666D01*
X78016666Y-68066666D01*
X78116666Y-68033333D01*
X78150000Y-68000000D01*
X78150000Y-67766666D01*
X78016666Y-67766666D01*
X78450000Y-68066666D02*
X78450000Y-67366666D01*
X78783333Y-68066666D02*
X78783333Y-67366666D01*
X79183333Y-68066666D01*
X79183333Y-67366666D01*
X79883333Y-68066666D02*
X79483333Y-68066666D01*
X79683333Y-68066666D02*
X79683333Y-67366666D01*
X79616666Y-67466666D01*
X79550000Y-67533333D01*
X79483333Y-67566666D01*
%TO.C,R_SCL2*%
X93650000Y-63916666D02*
X93416666Y-63583333D01*
X93250000Y-63916666D02*
X93250000Y-63216666D01*
X93516666Y-63216666D01*
X93583333Y-63250000D01*
X93616666Y-63283333D01*
X93650000Y-63350000D01*
X93650000Y-63450000D01*
X93616666Y-63516666D01*
X93583333Y-63550000D01*
X93516666Y-63583333D01*
X93250000Y-63583333D01*
X93783333Y-63983333D02*
X94316666Y-63983333D01*
X94450000Y-63883333D02*
X94550000Y-63916666D01*
X94716666Y-63916666D01*
X94783333Y-63883333D01*
X94816666Y-63850000D01*
X94850000Y-63783333D01*
X94850000Y-63716666D01*
X94816666Y-63650000D01*
X94783333Y-63616666D01*
X94716666Y-63583333D01*
X94583333Y-63550000D01*
X94516666Y-63516666D01*
X94483333Y-63483333D01*
X94450000Y-63416666D01*
X94450000Y-63350000D01*
X94483333Y-63283333D01*
X94516666Y-63250000D01*
X94583333Y-63216666D01*
X94750000Y-63216666D01*
X94850000Y-63250000D01*
X95550000Y-63850000D02*
X95516666Y-63883333D01*
X95416666Y-63916666D01*
X95350000Y-63916666D01*
X95250000Y-63883333D01*
X95183333Y-63816666D01*
X95150000Y-63750000D01*
X95116666Y-63616666D01*
X95116666Y-63516666D01*
X95150000Y-63383333D01*
X95183333Y-63316666D01*
X95250000Y-63250000D01*
X95350000Y-63216666D01*
X95416666Y-63216666D01*
X95516666Y-63250000D01*
X95550000Y-63283333D01*
X96183333Y-63916666D02*
X95850000Y-63916666D01*
X95850000Y-63216666D01*
X96383333Y-63283333D02*
X96416666Y-63250000D01*
X96483333Y-63216666D01*
X96650000Y-63216666D01*
X96716666Y-63250000D01*
X96750000Y-63283333D01*
X96783333Y-63350000D01*
X96783333Y-63416666D01*
X96750000Y-63516666D01*
X96350000Y-63916666D01*
X96783333Y-63916666D01*
%TO.C,JP_GE1*%
X69483333Y-70091666D02*
X69483333Y-70591666D01*
X69450000Y-70691666D01*
X69383333Y-70758333D01*
X69283333Y-70791666D01*
X69216666Y-70791666D01*
X69816666Y-70791666D02*
X69816666Y-70091666D01*
X70083333Y-70091666D01*
X70150000Y-70125000D01*
X70183333Y-70158333D01*
X70216666Y-70225000D01*
X70216666Y-70325000D01*
X70183333Y-70391666D01*
X70150000Y-70425000D01*
X70083333Y-70458333D01*
X69816666Y-70458333D01*
X70350000Y-70858333D02*
X70883333Y-70858333D01*
X71416666Y-70125000D02*
X71350000Y-70091666D01*
X71250000Y-70091666D01*
X71150000Y-70125000D01*
X71083333Y-70191666D01*
X71050000Y-70258333D01*
X71016666Y-70391666D01*
X71016666Y-70491666D01*
X71050000Y-70625000D01*
X71083333Y-70691666D01*
X71150000Y-70758333D01*
X71250000Y-70791666D01*
X71316666Y-70791666D01*
X71416666Y-70758333D01*
X71450000Y-70725000D01*
X71450000Y-70491666D01*
X71316666Y-70491666D01*
X71750000Y-70425000D02*
X71983333Y-70425000D01*
X72083333Y-70791666D02*
X71750000Y-70791666D01*
X71750000Y-70091666D01*
X72083333Y-70091666D01*
X72750000Y-70791666D02*
X72350000Y-70791666D01*
X72550000Y-70791666D02*
X72550000Y-70091666D01*
X72483333Y-70191666D01*
X72416666Y-70258333D01*
X72350000Y-70291666D01*
%TO.C,C_SRN2*%
X89250000Y-71953333D02*
X89283333Y-71986666D01*
X89316666Y-72086666D01*
X89316666Y-72153333D01*
X89283333Y-72253333D01*
X89216666Y-72320000D01*
X89150000Y-72353333D01*
X89016666Y-72386666D01*
X88916666Y-72386666D01*
X88783333Y-72353333D01*
X88716666Y-72320000D01*
X88650000Y-72253333D01*
X88616666Y-72153333D01*
X88616666Y-72086666D01*
X88650000Y-71986666D01*
X88683333Y-71953333D01*
X89383333Y-71820000D02*
X89383333Y-71286666D01*
X89283333Y-71153333D02*
X89316666Y-71053333D01*
X89316666Y-70886666D01*
X89283333Y-70820000D01*
X89250000Y-70786666D01*
X89183333Y-70753333D01*
X89116666Y-70753333D01*
X89050000Y-70786666D01*
X89016666Y-70820000D01*
X88983333Y-70886666D01*
X88950000Y-71020000D01*
X88916666Y-71086666D01*
X88883333Y-71120000D01*
X88816666Y-71153333D01*
X88750000Y-71153333D01*
X88683333Y-71120000D01*
X88650000Y-71086666D01*
X88616666Y-71020000D01*
X88616666Y-70853333D01*
X88650000Y-70753333D01*
X89316666Y-70053333D02*
X88983333Y-70286666D01*
X89316666Y-70453333D02*
X88616666Y-70453333D01*
X88616666Y-70186666D01*
X88650000Y-70120000D01*
X88683333Y-70086666D01*
X88750000Y-70053333D01*
X88850000Y-70053333D01*
X88916666Y-70086666D01*
X88950000Y-70120000D01*
X88983333Y-70186666D01*
X88983333Y-70453333D01*
X89316666Y-69753333D02*
X88616666Y-69753333D01*
X89316666Y-69353333D01*
X88616666Y-69353333D01*
X88683333Y-69053333D02*
X88650000Y-69020000D01*
X88616666Y-68953333D01*
X88616666Y-68786666D01*
X88650000Y-68720000D01*
X88683333Y-68686666D01*
X88750000Y-68653333D01*
X88816666Y-68653333D01*
X88916666Y-68686666D01*
X89316666Y-69086666D01*
X89316666Y-68653333D01*
%TO.C,R_ge1*%
X68386666Y-75725000D02*
X68053333Y-75958333D01*
X68386666Y-76125000D02*
X67686666Y-76125000D01*
X67686666Y-75858333D01*
X67720000Y-75791666D01*
X67753333Y-75758333D01*
X67820000Y-75725000D01*
X67920000Y-75725000D01*
X67986666Y-75758333D01*
X68020000Y-75791666D01*
X68053333Y-75858333D01*
X68053333Y-76125000D01*
X68453333Y-75591666D02*
X68453333Y-75058333D01*
X67920000Y-74591666D02*
X68486666Y-74591666D01*
X68553333Y-74625000D01*
X68586666Y-74658333D01*
X68620000Y-74725000D01*
X68620000Y-74825000D01*
X68586666Y-74891666D01*
X68353333Y-74591666D02*
X68386666Y-74658333D01*
X68386666Y-74791666D01*
X68353333Y-74858333D01*
X68320000Y-74891666D01*
X68253333Y-74925000D01*
X68053333Y-74925000D01*
X67986666Y-74891666D01*
X67953333Y-74858333D01*
X67920000Y-74791666D01*
X67920000Y-74658333D01*
X67953333Y-74591666D01*
X68353333Y-73991666D02*
X68386666Y-74058333D01*
X68386666Y-74191666D01*
X68353333Y-74258333D01*
X68286666Y-74291666D01*
X68020000Y-74291666D01*
X67953333Y-74258333D01*
X67920000Y-74191666D01*
X67920000Y-74058333D01*
X67953333Y-73991666D01*
X68020000Y-73958333D01*
X68086666Y-73958333D01*
X68153333Y-74291666D01*
X68386666Y-73291666D02*
X68386666Y-73691666D01*
X68386666Y-73491666D02*
X67686666Y-73491666D01*
X67786666Y-73558333D01*
X67853333Y-73625000D01*
X67886666Y-73691666D01*
%TO.C,R_alert1*%
X70066666Y-62100000D02*
X69733333Y-62333333D01*
X70066666Y-62500000D02*
X69366666Y-62500000D01*
X69366666Y-62233333D01*
X69400000Y-62166666D01*
X69433333Y-62133333D01*
X69500000Y-62100000D01*
X69600000Y-62100000D01*
X69666666Y-62133333D01*
X69700000Y-62166666D01*
X69733333Y-62233333D01*
X69733333Y-62500000D01*
X70133333Y-61966666D02*
X70133333Y-61433333D01*
X70066666Y-60966666D02*
X69700000Y-60966666D01*
X69633333Y-61000000D01*
X69600000Y-61066666D01*
X69600000Y-61200000D01*
X69633333Y-61266666D01*
X70033333Y-60966666D02*
X70066666Y-61033333D01*
X70066666Y-61200000D01*
X70033333Y-61266666D01*
X69966666Y-61300000D01*
X69900000Y-61300000D01*
X69833333Y-61266666D01*
X69800000Y-61200000D01*
X69800000Y-61033333D01*
X69766666Y-60966666D01*
X70066666Y-60533333D02*
X70033333Y-60600000D01*
X69966666Y-60633333D01*
X69366666Y-60633333D01*
X70033333Y-60000000D02*
X70066666Y-60066666D01*
X70066666Y-60200000D01*
X70033333Y-60266666D01*
X69966666Y-60300000D01*
X69700000Y-60300000D01*
X69633333Y-60266666D01*
X69600000Y-60200000D01*
X69600000Y-60066666D01*
X69633333Y-60000000D01*
X69700000Y-59966666D01*
X69766666Y-59966666D01*
X69833333Y-60300000D01*
X70066666Y-59666666D02*
X69600000Y-59666666D01*
X69733333Y-59666666D02*
X69666666Y-59633333D01*
X69633333Y-59600000D01*
X69600000Y-59533333D01*
X69600000Y-59466666D01*
X69600000Y-59333333D02*
X69600000Y-59066666D01*
X69366666Y-59233333D02*
X69966666Y-59233333D01*
X70033333Y-59200000D01*
X70066666Y-59133333D01*
X70066666Y-59066666D01*
X70066666Y-58466666D02*
X70066666Y-58866666D01*
X70066666Y-58666666D02*
X69366666Y-58666666D01*
X69466666Y-58733333D01*
X69533333Y-58800000D01*
X69566666Y-58866666D01*
%TO.C,J1_male1*%
X98150000Y-60866666D02*
X98150000Y-61366666D01*
X98116666Y-61466666D01*
X98050000Y-61533333D01*
X97950000Y-61566666D01*
X97883333Y-61566666D01*
X98850000Y-61566666D02*
X98450000Y-61566666D01*
X98650000Y-61566666D02*
X98650000Y-60866666D01*
X98583333Y-60966666D01*
X98516666Y-61033333D01*
X98450000Y-61066666D01*
X98983333Y-61633333D02*
X99516666Y-61633333D01*
X99683333Y-61566666D02*
X99683333Y-61100000D01*
X99683333Y-61166666D02*
X99716666Y-61133333D01*
X99783333Y-61100000D01*
X99883333Y-61100000D01*
X99950000Y-61133333D01*
X99983333Y-61200000D01*
X99983333Y-61566666D01*
X99983333Y-61200000D02*
X100016666Y-61133333D01*
X100083333Y-61100000D01*
X100183333Y-61100000D01*
X100250000Y-61133333D01*
X100283333Y-61200000D01*
X100283333Y-61566666D01*
X100916666Y-61566666D02*
X100916666Y-61200000D01*
X100883333Y-61133333D01*
X100816666Y-61100000D01*
X100683333Y-61100000D01*
X100616666Y-61133333D01*
X100916666Y-61533333D02*
X100850000Y-61566666D01*
X100683333Y-61566666D01*
X100616666Y-61533333D01*
X100583333Y-61466666D01*
X100583333Y-61400000D01*
X100616666Y-61333333D01*
X100683333Y-61300000D01*
X100850000Y-61300000D01*
X100916666Y-61266666D01*
X101350000Y-61566666D02*
X101283333Y-61533333D01*
X101250000Y-61466666D01*
X101250000Y-60866666D01*
X101883333Y-61533333D02*
X101816666Y-61566666D01*
X101683333Y-61566666D01*
X101616666Y-61533333D01*
X101583333Y-61466666D01*
X101583333Y-61200000D01*
X101616666Y-61133333D01*
X101683333Y-61100000D01*
X101816666Y-61100000D01*
X101883333Y-61133333D01*
X101916666Y-61200000D01*
X101916666Y-61266666D01*
X101583333Y-61333333D01*
X102583333Y-61566666D02*
X102183333Y-61566666D01*
X102383333Y-61566666D02*
X102383333Y-60866666D01*
X102316666Y-60966666D01*
X102250000Y-61033333D01*
X102183333Y-61066666D01*
%TO.C,C_SR1*%
X83683333Y-68250000D02*
X83650000Y-68283333D01*
X83550000Y-68316666D01*
X83483333Y-68316666D01*
X83383333Y-68283333D01*
X83316666Y-68216666D01*
X83283333Y-68150000D01*
X83250000Y-68016666D01*
X83250000Y-67916666D01*
X83283333Y-67783333D01*
X83316666Y-67716666D01*
X83383333Y-67650000D01*
X83483333Y-67616666D01*
X83550000Y-67616666D01*
X83650000Y-67650000D01*
X83683333Y-67683333D01*
X83816666Y-68383333D02*
X84350000Y-68383333D01*
X84483333Y-68283333D02*
X84583333Y-68316666D01*
X84750000Y-68316666D01*
X84816666Y-68283333D01*
X84850000Y-68250000D01*
X84883333Y-68183333D01*
X84883333Y-68116666D01*
X84850000Y-68050000D01*
X84816666Y-68016666D01*
X84750000Y-67983333D01*
X84616666Y-67950000D01*
X84550000Y-67916666D01*
X84516666Y-67883333D01*
X84483333Y-67816666D01*
X84483333Y-67750000D01*
X84516666Y-67683333D01*
X84550000Y-67650000D01*
X84616666Y-67616666D01*
X84783333Y-67616666D01*
X84883333Y-67650000D01*
X85583333Y-68316666D02*
X85350000Y-67983333D01*
X85183333Y-68316666D02*
X85183333Y-67616666D01*
X85450000Y-67616666D01*
X85516666Y-67650000D01*
X85550000Y-67683333D01*
X85583333Y-67750000D01*
X85583333Y-67850000D01*
X85550000Y-67916666D01*
X85516666Y-67950000D01*
X85450000Y-67983333D01*
X85183333Y-67983333D01*
X86250000Y-68316666D02*
X85850000Y-68316666D01*
X86050000Y-68316666D02*
X86050000Y-67616666D01*
X85983333Y-67716666D01*
X85916666Y-67783333D01*
X85850000Y-67816666D01*
%TO.C,R_ge2*%
X61246666Y-75725000D02*
X60913333Y-75958333D01*
X61246666Y-76125000D02*
X60546666Y-76125000D01*
X60546666Y-75858333D01*
X60580000Y-75791666D01*
X60613333Y-75758333D01*
X60680000Y-75725000D01*
X60780000Y-75725000D01*
X60846666Y-75758333D01*
X60880000Y-75791666D01*
X60913333Y-75858333D01*
X60913333Y-76125000D01*
X61313333Y-75591666D02*
X61313333Y-75058333D01*
X60780000Y-74591666D02*
X61346666Y-74591666D01*
X61413333Y-74625000D01*
X61446666Y-74658333D01*
X61480000Y-74725000D01*
X61480000Y-74825000D01*
X61446666Y-74891666D01*
X61213333Y-74591666D02*
X61246666Y-74658333D01*
X61246666Y-74791666D01*
X61213333Y-74858333D01*
X61180000Y-74891666D01*
X61113333Y-74925000D01*
X60913333Y-74925000D01*
X60846666Y-74891666D01*
X60813333Y-74858333D01*
X60780000Y-74791666D01*
X60780000Y-74658333D01*
X60813333Y-74591666D01*
X61213333Y-73991666D02*
X61246666Y-74058333D01*
X61246666Y-74191666D01*
X61213333Y-74258333D01*
X61146666Y-74291666D01*
X60880000Y-74291666D01*
X60813333Y-74258333D01*
X60780000Y-74191666D01*
X60780000Y-74058333D01*
X60813333Y-73991666D01*
X60880000Y-73958333D01*
X60946666Y-73958333D01*
X61013333Y-74291666D01*
X60613333Y-73691666D02*
X60580000Y-73658333D01*
X60546666Y-73591666D01*
X60546666Y-73425000D01*
X60580000Y-73358333D01*
X60613333Y-73325000D01*
X60680000Y-73291666D01*
X60746666Y-73291666D01*
X60846666Y-73325000D01*
X61246666Y-73725000D01*
X61246666Y-73291666D01*
%TO.C,TP_REG1*%
X70083333Y-54366666D02*
X70483333Y-54366666D01*
X70283333Y-55066666D02*
X70283333Y-54366666D01*
X70716666Y-55066666D02*
X70716666Y-54366666D01*
X70983333Y-54366666D01*
X71050000Y-54400000D01*
X71083333Y-54433333D01*
X71116666Y-54500000D01*
X71116666Y-54600000D01*
X71083333Y-54666666D01*
X71050000Y-54700000D01*
X70983333Y-54733333D01*
X70716666Y-54733333D01*
X71250000Y-55133333D02*
X71783333Y-55133333D01*
X72350000Y-55066666D02*
X72116666Y-54733333D01*
X71950000Y-55066666D02*
X71950000Y-54366666D01*
X72216666Y-54366666D01*
X72283333Y-54400000D01*
X72316666Y-54433333D01*
X72350000Y-54500000D01*
X72350000Y-54600000D01*
X72316666Y-54666666D01*
X72283333Y-54700000D01*
X72216666Y-54733333D01*
X71950000Y-54733333D01*
X72650000Y-54700000D02*
X72883333Y-54700000D01*
X72983333Y-55066666D02*
X72650000Y-55066666D01*
X72650000Y-54366666D01*
X72983333Y-54366666D01*
X73650000Y-54400000D02*
X73583333Y-54366666D01*
X73483333Y-54366666D01*
X73383333Y-54400000D01*
X73316666Y-54466666D01*
X73283333Y-54533333D01*
X73250000Y-54666666D01*
X73250000Y-54766666D01*
X73283333Y-54900000D01*
X73316666Y-54966666D01*
X73383333Y-55033333D01*
X73483333Y-55066666D01*
X73550000Y-55066666D01*
X73650000Y-55033333D01*
X73683333Y-55000000D01*
X73683333Y-54766666D01*
X73550000Y-54766666D01*
X74350000Y-55066666D02*
X73950000Y-55066666D01*
X74150000Y-55066666D02*
X74150000Y-54366666D01*
X74083333Y-54466666D01*
X74016666Y-54533333D01*
X73950000Y-54566666D01*
%TO.C,TP_SDA1*%
X80366666Y-58116666D02*
X80766666Y-58116666D01*
X80566666Y-58816666D02*
X80566666Y-58116666D01*
X81000000Y-58816666D02*
X81000000Y-58116666D01*
X81266666Y-58116666D01*
X81333333Y-58150000D01*
X81366666Y-58183333D01*
X81400000Y-58250000D01*
X81400000Y-58350000D01*
X81366666Y-58416666D01*
X81333333Y-58450000D01*
X81266666Y-58483333D01*
X81000000Y-58483333D01*
X81533333Y-58883333D02*
X82066666Y-58883333D01*
X82200000Y-58783333D02*
X82300000Y-58816666D01*
X82466666Y-58816666D01*
X82533333Y-58783333D01*
X82566666Y-58750000D01*
X82600000Y-58683333D01*
X82600000Y-58616666D01*
X82566666Y-58550000D01*
X82533333Y-58516666D01*
X82466666Y-58483333D01*
X82333333Y-58450000D01*
X82266666Y-58416666D01*
X82233333Y-58383333D01*
X82200000Y-58316666D01*
X82200000Y-58250000D01*
X82233333Y-58183333D01*
X82266666Y-58150000D01*
X82333333Y-58116666D01*
X82500000Y-58116666D01*
X82600000Y-58150000D01*
X82900000Y-58816666D02*
X82900000Y-58116666D01*
X83066666Y-58116666D01*
X83166666Y-58150000D01*
X83233333Y-58216666D01*
X83266666Y-58283333D01*
X83300000Y-58416666D01*
X83300000Y-58516666D01*
X83266666Y-58650000D01*
X83233333Y-58716666D01*
X83166666Y-58783333D01*
X83066666Y-58816666D01*
X82900000Y-58816666D01*
X83566666Y-58616666D02*
X83900000Y-58616666D01*
X83500000Y-58816666D02*
X83733333Y-58116666D01*
X83966666Y-58816666D01*
X84566666Y-58816666D02*
X84166666Y-58816666D01*
X84366666Y-58816666D02*
X84366666Y-58116666D01*
X84300000Y-58216666D01*
X84233333Y-58283333D01*
X84166666Y-58316666D01*
%TO.C,BQ35100*%
X77222916Y-60700000D02*
X77322916Y-60733333D01*
X77356250Y-60766666D01*
X77389583Y-60833333D01*
X77389583Y-60933333D01*
X77356250Y-61000000D01*
X77322916Y-61033333D01*
X77256250Y-61066666D01*
X76989583Y-61066666D01*
X76989583Y-60366666D01*
X77222916Y-60366666D01*
X77289583Y-60400000D01*
X77322916Y-60433333D01*
X77356250Y-60500000D01*
X77356250Y-60566666D01*
X77322916Y-60633333D01*
X77289583Y-60666666D01*
X77222916Y-60700000D01*
X76989583Y-60700000D01*
X78156250Y-61133333D02*
X78089583Y-61100000D01*
X78022916Y-61033333D01*
X77922916Y-60933333D01*
X77856250Y-60900000D01*
X77789583Y-60900000D01*
X77822916Y-61066666D02*
X77756250Y-61033333D01*
X77689583Y-60966666D01*
X77656250Y-60833333D01*
X77656250Y-60600000D01*
X77689583Y-60466666D01*
X77756250Y-60400000D01*
X77822916Y-60366666D01*
X77956250Y-60366666D01*
X78022916Y-60400000D01*
X78089583Y-60466666D01*
X78122916Y-60600000D01*
X78122916Y-60833333D01*
X78089583Y-60966666D01*
X78022916Y-61033333D01*
X77956250Y-61066666D01*
X77822916Y-61066666D01*
X78356250Y-60366666D02*
X78789583Y-60366666D01*
X78556250Y-60633333D01*
X78656250Y-60633333D01*
X78722916Y-60666666D01*
X78756250Y-60700000D01*
X78789583Y-60766666D01*
X78789583Y-60933333D01*
X78756250Y-61000000D01*
X78722916Y-61033333D01*
X78656250Y-61066666D01*
X78456250Y-61066666D01*
X78389583Y-61033333D01*
X78356250Y-61000000D01*
X79422916Y-60366666D02*
X79089583Y-60366666D01*
X79056250Y-60700000D01*
X79089583Y-60666666D01*
X79156250Y-60633333D01*
X79322916Y-60633333D01*
X79389583Y-60666666D01*
X79422916Y-60700000D01*
X79456250Y-60766666D01*
X79456250Y-60933333D01*
X79422916Y-61000000D01*
X79389583Y-61033333D01*
X79322916Y-61066666D01*
X79156250Y-61066666D01*
X79089583Y-61033333D01*
X79056250Y-61000000D01*
X80122916Y-61066666D02*
X79722916Y-61066666D01*
X79922916Y-61066666D02*
X79922916Y-60366666D01*
X79856250Y-60466666D01*
X79789583Y-60533333D01*
X79722916Y-60566666D01*
X80556250Y-60366666D02*
X80622916Y-60366666D01*
X80689583Y-60400000D01*
X80722916Y-60433333D01*
X80756250Y-60500000D01*
X80789583Y-60633333D01*
X80789583Y-60800000D01*
X80756250Y-60933333D01*
X80722916Y-61000000D01*
X80689583Y-61033333D01*
X80622916Y-61066666D01*
X80556250Y-61066666D01*
X80489583Y-61033333D01*
X80456250Y-61000000D01*
X80422916Y-60933333D01*
X80389583Y-60800000D01*
X80389583Y-60633333D01*
X80422916Y-60500000D01*
X80456250Y-60433333D01*
X80489583Y-60400000D01*
X80556250Y-60366666D01*
X81222916Y-60366666D02*
X81289583Y-60366666D01*
X81356250Y-60400000D01*
X81389583Y-60433333D01*
X81422916Y-60500000D01*
X81456250Y-60633333D01*
X81456250Y-60800000D01*
X81422916Y-60933333D01*
X81389583Y-61000000D01*
X81356250Y-61033333D01*
X81289583Y-61066666D01*
X81222916Y-61066666D01*
X81156250Y-61033333D01*
X81122916Y-61000000D01*
X81089583Y-60933333D01*
X81056250Y-60800000D01*
X81056250Y-60633333D01*
X81089583Y-60500000D01*
X81122916Y-60433333D01*
X81156250Y-60400000D01*
X81222916Y-60366666D01*
%TO.C,R_SRP1*%
X93816666Y-71916666D02*
X93483333Y-72150000D01*
X93816666Y-72316666D02*
X93116666Y-72316666D01*
X93116666Y-72050000D01*
X93150000Y-71983333D01*
X93183333Y-71950000D01*
X93250000Y-71916666D01*
X93350000Y-71916666D01*
X93416666Y-71950000D01*
X93450000Y-71983333D01*
X93483333Y-72050000D01*
X93483333Y-72316666D01*
X93883333Y-71783333D02*
X93883333Y-71250000D01*
X93783333Y-71116666D02*
X93816666Y-71016666D01*
X93816666Y-70850000D01*
X93783333Y-70783333D01*
X93750000Y-70750000D01*
X93683333Y-70716666D01*
X93616666Y-70716666D01*
X93550000Y-70750000D01*
X93516666Y-70783333D01*
X93483333Y-70850000D01*
X93450000Y-70983333D01*
X93416666Y-71050000D01*
X93383333Y-71083333D01*
X93316666Y-71116666D01*
X93250000Y-71116666D01*
X93183333Y-71083333D01*
X93150000Y-71050000D01*
X93116666Y-70983333D01*
X93116666Y-70816666D01*
X93150000Y-70716666D01*
X93816666Y-70016666D02*
X93483333Y-70250000D01*
X93816666Y-70416666D02*
X93116666Y-70416666D01*
X93116666Y-70150000D01*
X93150000Y-70083333D01*
X93183333Y-70050000D01*
X93250000Y-70016666D01*
X93350000Y-70016666D01*
X93416666Y-70050000D01*
X93450000Y-70083333D01*
X93483333Y-70150000D01*
X93483333Y-70416666D01*
X93816666Y-69716666D02*
X93116666Y-69716666D01*
X93116666Y-69450000D01*
X93150000Y-69383333D01*
X93183333Y-69350000D01*
X93250000Y-69316666D01*
X93350000Y-69316666D01*
X93416666Y-69350000D01*
X93450000Y-69383333D01*
X93483333Y-69450000D01*
X93483333Y-69716666D01*
X93816666Y-68650000D02*
X93816666Y-69050000D01*
X93816666Y-68850000D02*
X93116666Y-68850000D01*
X93216666Y-68916666D01*
X93283333Y-68983333D01*
X93316666Y-69050000D01*
%TO.C,J2_male1*%
X49150000Y-59116666D02*
X49150000Y-59616666D01*
X49116666Y-59716666D01*
X49050000Y-59783333D01*
X48950000Y-59816666D01*
X48883333Y-59816666D01*
X49450000Y-59183333D02*
X49483333Y-59150000D01*
X49550000Y-59116666D01*
X49716666Y-59116666D01*
X49783333Y-59150000D01*
X49816666Y-59183333D01*
X49850000Y-59250000D01*
X49850000Y-59316666D01*
X49816666Y-59416666D01*
X49416666Y-59816666D01*
X49850000Y-59816666D01*
X49983333Y-59883333D02*
X50516666Y-59883333D01*
X50683333Y-59816666D02*
X50683333Y-59350000D01*
X50683333Y-59416666D02*
X50716666Y-59383333D01*
X50783333Y-59350000D01*
X50883333Y-59350000D01*
X50950000Y-59383333D01*
X50983333Y-59450000D01*
X50983333Y-59816666D01*
X50983333Y-59450000D02*
X51016666Y-59383333D01*
X51083333Y-59350000D01*
X51183333Y-59350000D01*
X51250000Y-59383333D01*
X51283333Y-59450000D01*
X51283333Y-59816666D01*
X51916666Y-59816666D02*
X51916666Y-59450000D01*
X51883333Y-59383333D01*
X51816666Y-59350000D01*
X51683333Y-59350000D01*
X51616666Y-59383333D01*
X51916666Y-59783333D02*
X51850000Y-59816666D01*
X51683333Y-59816666D01*
X51616666Y-59783333D01*
X51583333Y-59716666D01*
X51583333Y-59650000D01*
X51616666Y-59583333D01*
X51683333Y-59550000D01*
X51850000Y-59550000D01*
X51916666Y-59516666D01*
X52350000Y-59816666D02*
X52283333Y-59783333D01*
X52250000Y-59716666D01*
X52250000Y-59116666D01*
X52883333Y-59783333D02*
X52816666Y-59816666D01*
X52683333Y-59816666D01*
X52616666Y-59783333D01*
X52583333Y-59716666D01*
X52583333Y-59450000D01*
X52616666Y-59383333D01*
X52683333Y-59350000D01*
X52816666Y-59350000D01*
X52883333Y-59383333D01*
X52916666Y-59450000D01*
X52916666Y-59516666D01*
X52583333Y-59583333D01*
X53583333Y-59816666D02*
X53183333Y-59816666D01*
X53383333Y-59816666D02*
X53383333Y-59116666D01*
X53316666Y-59216666D01*
X53250000Y-59283333D01*
X53183333Y-59316666D01*
%TO.C,J1_female1*%
X104150000Y-60866666D02*
X104150000Y-61366666D01*
X104116666Y-61466666D01*
X104050000Y-61533333D01*
X103950000Y-61566666D01*
X103883333Y-61566666D01*
X104850000Y-61566666D02*
X104450000Y-61566666D01*
X104650000Y-61566666D02*
X104650000Y-60866666D01*
X104583333Y-60966666D01*
X104516666Y-61033333D01*
X104450000Y-61066666D01*
X104983333Y-61633333D02*
X105516666Y-61633333D01*
X105583333Y-61100000D02*
X105850000Y-61100000D01*
X105683333Y-61566666D02*
X105683333Y-60966666D01*
X105716666Y-60900000D01*
X105783333Y-60866666D01*
X105850000Y-60866666D01*
X106350000Y-61533333D02*
X106283333Y-61566666D01*
X106150000Y-61566666D01*
X106083333Y-61533333D01*
X106050000Y-61466666D01*
X106050000Y-61200000D01*
X106083333Y-61133333D01*
X106150000Y-61100000D01*
X106283333Y-61100000D01*
X106350000Y-61133333D01*
X106383333Y-61200000D01*
X106383333Y-61266666D01*
X106050000Y-61333333D01*
X106683333Y-61566666D02*
X106683333Y-61100000D01*
X106683333Y-61166666D02*
X106716666Y-61133333D01*
X106783333Y-61100000D01*
X106883333Y-61100000D01*
X106950000Y-61133333D01*
X106983333Y-61200000D01*
X106983333Y-61566666D01*
X106983333Y-61200000D02*
X107016666Y-61133333D01*
X107083333Y-61100000D01*
X107183333Y-61100000D01*
X107250000Y-61133333D01*
X107283333Y-61200000D01*
X107283333Y-61566666D01*
X107916666Y-61566666D02*
X107916666Y-61200000D01*
X107883333Y-61133333D01*
X107816666Y-61100000D01*
X107683333Y-61100000D01*
X107616666Y-61133333D01*
X107916666Y-61533333D02*
X107850000Y-61566666D01*
X107683333Y-61566666D01*
X107616666Y-61533333D01*
X107583333Y-61466666D01*
X107583333Y-61400000D01*
X107616666Y-61333333D01*
X107683333Y-61300000D01*
X107850000Y-61300000D01*
X107916666Y-61266666D01*
X108350000Y-61566666D02*
X108283333Y-61533333D01*
X108250000Y-61466666D01*
X108250000Y-60866666D01*
X108883333Y-61533333D02*
X108816666Y-61566666D01*
X108683333Y-61566666D01*
X108616666Y-61533333D01*
X108583333Y-61466666D01*
X108583333Y-61200000D01*
X108616666Y-61133333D01*
X108683333Y-61100000D01*
X108816666Y-61100000D01*
X108883333Y-61133333D01*
X108916666Y-61200000D01*
X108916666Y-61266666D01*
X108583333Y-61333333D01*
X109583333Y-61566666D02*
X109183333Y-61566666D01*
X109383333Y-61566666D02*
X109383333Y-60866666D01*
X109316666Y-60966666D01*
X109250000Y-61033333D01*
X109183333Y-61066666D01*
%TO.C,R_SCL_1*%
X89166666Y-66866666D02*
X88833333Y-67100000D01*
X89166666Y-67266666D02*
X88466666Y-67266666D01*
X88466666Y-67000000D01*
X88500000Y-66933333D01*
X88533333Y-66900000D01*
X88600000Y-66866666D01*
X88700000Y-66866666D01*
X88766666Y-66900000D01*
X88800000Y-66933333D01*
X88833333Y-67000000D01*
X88833333Y-67266666D01*
X89233333Y-66733333D02*
X89233333Y-66200000D01*
X89133333Y-66066666D02*
X89166666Y-65966666D01*
X89166666Y-65800000D01*
X89133333Y-65733333D01*
X89100000Y-65700000D01*
X89033333Y-65666666D01*
X88966666Y-65666666D01*
X88900000Y-65700000D01*
X88866666Y-65733333D01*
X88833333Y-65800000D01*
X88800000Y-65933333D01*
X88766666Y-66000000D01*
X88733333Y-66033333D01*
X88666666Y-66066666D01*
X88600000Y-66066666D01*
X88533333Y-66033333D01*
X88500000Y-66000000D01*
X88466666Y-65933333D01*
X88466666Y-65766666D01*
X88500000Y-65666666D01*
X89100000Y-64966666D02*
X89133333Y-65000000D01*
X89166666Y-65100000D01*
X89166666Y-65166666D01*
X89133333Y-65266666D01*
X89066666Y-65333333D01*
X89000000Y-65366666D01*
X88866666Y-65400000D01*
X88766666Y-65400000D01*
X88633333Y-65366666D01*
X88566666Y-65333333D01*
X88500000Y-65266666D01*
X88466666Y-65166666D01*
X88466666Y-65100000D01*
X88500000Y-65000000D01*
X88533333Y-64966666D01*
X89166666Y-64333333D02*
X89166666Y-64666666D01*
X88466666Y-64666666D01*
X89233333Y-64266666D02*
X89233333Y-63733333D01*
X89166666Y-63200000D02*
X89166666Y-63600000D01*
X89166666Y-63400000D02*
X88466666Y-63400000D01*
X88566666Y-63466666D01*
X88633333Y-63533333D01*
X88666666Y-63600000D01*
%TO.C,R_SDA_1*%
X89666666Y-58295833D02*
X89333333Y-58529166D01*
X89666666Y-58695833D02*
X88966666Y-58695833D01*
X88966666Y-58429166D01*
X89000000Y-58362500D01*
X89033333Y-58329166D01*
X89100000Y-58295833D01*
X89200000Y-58295833D01*
X89266666Y-58329166D01*
X89300000Y-58362500D01*
X89333333Y-58429166D01*
X89333333Y-58695833D01*
X89733333Y-58162500D02*
X89733333Y-57629166D01*
X89633333Y-57495833D02*
X89666666Y-57395833D01*
X89666666Y-57229166D01*
X89633333Y-57162500D01*
X89600000Y-57129166D01*
X89533333Y-57095833D01*
X89466666Y-57095833D01*
X89400000Y-57129166D01*
X89366666Y-57162500D01*
X89333333Y-57229166D01*
X89300000Y-57362500D01*
X89266666Y-57429166D01*
X89233333Y-57462500D01*
X89166666Y-57495833D01*
X89100000Y-57495833D01*
X89033333Y-57462500D01*
X89000000Y-57429166D01*
X88966666Y-57362500D01*
X88966666Y-57195833D01*
X89000000Y-57095833D01*
X89666666Y-56795833D02*
X88966666Y-56795833D01*
X88966666Y-56629166D01*
X89000000Y-56529166D01*
X89066666Y-56462500D01*
X89133333Y-56429166D01*
X89266666Y-56395833D01*
X89366666Y-56395833D01*
X89500000Y-56429166D01*
X89566666Y-56462500D01*
X89633333Y-56529166D01*
X89666666Y-56629166D01*
X89666666Y-56795833D01*
X89466666Y-56129166D02*
X89466666Y-55795833D01*
X89666666Y-56195833D02*
X88966666Y-55962500D01*
X89666666Y-55729166D01*
X89733333Y-55662500D02*
X89733333Y-55129166D01*
X89666666Y-54595833D02*
X89666666Y-54995833D01*
X89666666Y-54795833D02*
X88966666Y-54795833D01*
X89066666Y-54862500D01*
X89133333Y-54929166D01*
X89166666Y-54995833D01*
%TO.C,R_SDA_2*%
X93116666Y-59916666D02*
X92883333Y-59583333D01*
X92716666Y-59916666D02*
X92716666Y-59216666D01*
X92983333Y-59216666D01*
X93050000Y-59250000D01*
X93083333Y-59283333D01*
X93116666Y-59350000D01*
X93116666Y-59450000D01*
X93083333Y-59516666D01*
X93050000Y-59550000D01*
X92983333Y-59583333D01*
X92716666Y-59583333D01*
X93250000Y-59983333D02*
X93783333Y-59983333D01*
X93916666Y-59883333D02*
X94016666Y-59916666D01*
X94183333Y-59916666D01*
X94250000Y-59883333D01*
X94283333Y-59850000D01*
X94316666Y-59783333D01*
X94316666Y-59716666D01*
X94283333Y-59650000D01*
X94250000Y-59616666D01*
X94183333Y-59583333D01*
X94050000Y-59550000D01*
X93983333Y-59516666D01*
X93950000Y-59483333D01*
X93916666Y-59416666D01*
X93916666Y-59350000D01*
X93950000Y-59283333D01*
X93983333Y-59250000D01*
X94050000Y-59216666D01*
X94216666Y-59216666D01*
X94316666Y-59250000D01*
X94616666Y-59916666D02*
X94616666Y-59216666D01*
X94783333Y-59216666D01*
X94883333Y-59250000D01*
X94950000Y-59316666D01*
X94983333Y-59383333D01*
X95016666Y-59516666D01*
X95016666Y-59616666D01*
X94983333Y-59750000D01*
X94950000Y-59816666D01*
X94883333Y-59883333D01*
X94783333Y-59916666D01*
X94616666Y-59916666D01*
X95283333Y-59716666D02*
X95616666Y-59716666D01*
X95216666Y-59916666D02*
X95450000Y-59216666D01*
X95683333Y-59916666D01*
X95750000Y-59983333D02*
X96283333Y-59983333D01*
X96416666Y-59283333D02*
X96450000Y-59250000D01*
X96516666Y-59216666D01*
X96683333Y-59216666D01*
X96750000Y-59250000D01*
X96783333Y-59283333D01*
X96816666Y-59350000D01*
X96816666Y-59416666D01*
X96783333Y-59516666D01*
X96383333Y-59916666D01*
X96816666Y-59916666D01*
D12*
%TO.C,C_SRP2*%
X83860000Y-72872164D02*
X83860000Y-73087836D01*
X83140000Y-72872164D02*
X83140000Y-73087836D01*
%TO.C,C_bat1*%
X67390000Y-68107836D02*
X67390000Y-67892164D01*
X68110000Y-68107836D02*
X68110000Y-67892164D01*
%TO.C,R_SRN1*%
X87477064Y-76985000D02*
X87022936Y-76985000D01*
X87477064Y-75515000D02*
X87022936Y-75515000D01*
%TO.C,R_ge_in1*%
X74985000Y-74747936D02*
X74985000Y-75202064D01*
X73515000Y-74747936D02*
X73515000Y-75202064D01*
%TO.C,C_reg1*%
X67890580Y-55240000D02*
X67609420Y-55240000D01*
X67890580Y-56260000D02*
X67609420Y-56260000D01*
%TO.C,TP_SCL1*%
X87450000Y-63250000D02*
G75*
G03*
X87450000Y-63250000I-1200000J0D01*
G01*
D13*
%TO.C,R_CRS1*%
X93600000Y-75450000D02*
X94400000Y-75450000D01*
X93600000Y-77050000D02*
X94400000Y-77050000D01*
D12*
%TO.C,R_bat1*%
X64265000Y-70022936D02*
X64265000Y-70477064D01*
X65735000Y-70022936D02*
X65735000Y-70477064D01*
%TO.C,TH_TS1*%
X75380000Y-54630000D02*
X75380000Y-57370000D01*
X75380000Y-57370000D02*
X80620000Y-57370000D01*
X75380000Y-54630000D02*
X80620000Y-54630000D01*
X80620000Y-54630000D02*
X80620000Y-57370000D01*
%TO.C,J2_female1*%
X55820000Y-76180000D02*
X58480000Y-76180000D01*
X58480000Y-63420000D02*
X58480000Y-76180000D01*
X55820000Y-63420000D02*
X55820000Y-76180000D01*
X57150000Y-60820000D02*
X58480000Y-60820000D01*
X55820000Y-63420000D02*
X58480000Y-63420000D01*
X58480000Y-60820000D02*
X58480000Y-62150000D01*
%TO.C,R_alert2*%
X64160000Y-63727064D02*
X64160000Y-62272936D01*
X62340000Y-63727064D02*
X62340000Y-62272936D01*
%TO.C,C_regin1*%
X79510000Y-73640580D02*
X79510000Y-73359420D01*
X78490000Y-73640580D02*
X78490000Y-73359420D01*
%TO.C,TP_REGIN1*%
X78450000Y-70000000D02*
G75*
G03*
X78450000Y-70000000I-1200000J0D01*
G01*
%TO.C,R_SCL2*%
X94772936Y-65985000D02*
X95227064Y-65985000D01*
X94772936Y-64515000D02*
X95227064Y-64515000D01*
%TO.C,JP_GE1*%
X69420000Y-74495000D02*
X69420000Y-77095000D01*
X69420000Y-77095000D02*
X72080000Y-77095000D01*
X69420000Y-71895000D02*
X70750000Y-71895000D01*
X69420000Y-74495000D02*
X72080000Y-74495000D01*
X69420000Y-73225000D02*
X69420000Y-71895000D01*
X72080000Y-74495000D02*
X72080000Y-77095000D01*
%TO.C,C_SRN2*%
X87390000Y-69662164D02*
X87390000Y-69877836D01*
X88110000Y-69662164D02*
X88110000Y-69877836D01*
%TO.C,R_ge1*%
X65340000Y-73997936D02*
X65340000Y-75452064D01*
X67160000Y-73997936D02*
X67160000Y-75452064D01*
%TO.C,R_alert1*%
X66340000Y-59772936D02*
X66340000Y-61227064D01*
X68160000Y-59772936D02*
X68160000Y-61227064D01*
%TO.C,J1_male1*%
X99420000Y-62570000D02*
X100750000Y-62570000D01*
X102080000Y-65170000D02*
X102080000Y-77930000D01*
X99420000Y-77930000D02*
X102080000Y-77930000D01*
X99420000Y-65170000D02*
X102080000Y-65170000D01*
X99420000Y-65170000D02*
X99420000Y-77930000D01*
X99420000Y-63900000D02*
X99420000Y-62570000D01*
%TO.C,C_SR1*%
X84392164Y-68890000D02*
X84607836Y-68890000D01*
X84392164Y-69610000D02*
X84607836Y-69610000D01*
%TO.C,R_ge2*%
X61840000Y-75452064D02*
X61840000Y-73997936D01*
X63660000Y-75452064D02*
X63660000Y-73997936D01*
%TO.C,TP_REG1*%
X73450000Y-57000000D02*
G75*
G03*
X73450000Y-57000000I-1200000J0D01*
G01*
%TO.C,TP_SDA1*%
X87450000Y-59000000D02*
G75*
G03*
X87450000Y-59000000I-1200000J0D01*
G01*
D13*
%TO.C,BQ35100*%
X77006250Y-61721250D02*
X81406250Y-61721250D01*
X77006250Y-66721250D02*
X81406250Y-66721250D01*
D14*
X75066250Y-61961250D02*
G75*
G03*
X75066250Y-61961250I-100000J0D01*
G01*
D12*
%TO.C,R_SRP1*%
X92485000Y-70727064D02*
X92485000Y-70272936D01*
X91015000Y-70727064D02*
X91015000Y-70272936D01*
%TO.C,J2_male1*%
X51170000Y-63420000D02*
X53830000Y-63420000D01*
X53830000Y-63420000D02*
X53830000Y-76180000D01*
X51170000Y-76180000D02*
X53830000Y-76180000D01*
X51170000Y-63420000D02*
X51170000Y-76180000D01*
X51170000Y-62150000D02*
X51170000Y-60820000D01*
X51170000Y-60820000D02*
X52500000Y-60820000D01*
%TO.C,J1_female1*%
X104195000Y-65195000D02*
X104195000Y-77955000D01*
X106855000Y-65195000D02*
X106855000Y-77955000D01*
X104195000Y-77955000D02*
X106855000Y-77955000D01*
X104195000Y-65195000D02*
X106855000Y-65195000D01*
X105525000Y-62595000D02*
X106855000Y-62595000D01*
X106855000Y-62595000D02*
X106855000Y-63925000D01*
%TO.C,R_SCL_1*%
X89765000Y-64477064D02*
X89765000Y-64022936D01*
X91235000Y-64477064D02*
X91235000Y-64022936D01*
%TO.C,R_SDA_1*%
X91735000Y-56889564D02*
X91735000Y-56435436D01*
X90265000Y-56889564D02*
X90265000Y-56435436D01*
%TO.C,R_SDA_2*%
X94522936Y-61985000D02*
X94977064Y-61985000D01*
X94522936Y-60515000D02*
X94977064Y-60515000D01*
%TD*%
%LPC*%
D15*
%TO.C,C_SRP2*%
X83500000Y-72500000D03*
X83500000Y-73460000D03*
%TD*%
D16*
%TO.C,C_bat1*%
X67750000Y-68480000D03*
X67750000Y-67520000D03*
%TD*%
D17*
%TO.C,R_SRN1*%
X88162500Y-76250000D03*
X86337500Y-76250000D03*
%TD*%
D18*
%TO.C,R_ge_in1*%
X74250000Y-74062500D03*
X74250000Y-75887500D03*
%TD*%
D19*
%TO.C,C_reg1*%
X68525000Y-55750000D03*
X66975000Y-55750000D03*
%TD*%
D20*
%TO.C,TP_SCL1*%
X86250000Y-63250000D03*
%TD*%
D21*
%TO.C,R_CRS1*%
X92600000Y-76250000D03*
X95400000Y-76250000D03*
%TD*%
D18*
%TO.C,R_bat1*%
X65000000Y-69337500D03*
X65000000Y-71162500D03*
%TD*%
D22*
%TO.C,TH_TS1*%
X76750000Y-56000000D03*
X79250000Y-56000000D03*
%TD*%
D23*
%TO.C,J2_female1*%
X57150000Y-62150000D03*
D24*
X57150000Y-64690000D03*
X57150000Y-67230000D03*
X57150000Y-69770000D03*
X57150000Y-72310000D03*
X57150000Y-74850000D03*
%TD*%
D25*
%TO.C,R_alert2*%
X63250000Y-64462500D03*
X63250000Y-61537500D03*
%TD*%
D26*
%TO.C,C_regin1*%
X79000000Y-74275000D03*
X79000000Y-72725000D03*
%TD*%
D20*
%TO.C,TP_REGIN1*%
X77250000Y-70000000D03*
%TD*%
D27*
%TO.C,R_SCL2*%
X94087500Y-65250000D03*
X95912500Y-65250000D03*
%TD*%
D23*
%TO.C,JP_GE1*%
X70750000Y-73225000D03*
D24*
X70750000Y-75765000D03*
%TD*%
D15*
%TO.C,C_SRN2*%
X87750000Y-69290000D03*
X87750000Y-70250000D03*
%TD*%
D28*
%TO.C,R_ge1*%
X66250000Y-73262500D03*
X66250000Y-76187500D03*
%TD*%
%TO.C,R_alert1*%
X67250000Y-59037500D03*
X67250000Y-61962500D03*
%TD*%
D23*
%TO.C,J1_male1*%
X100750000Y-63900000D03*
D24*
X100750000Y-66440000D03*
X100750000Y-68980000D03*
X100750000Y-71520000D03*
X100750000Y-74060000D03*
X100750000Y-76600000D03*
%TD*%
D29*
%TO.C,C_SR1*%
X84020000Y-69250000D03*
X84980000Y-69250000D03*
%TD*%
D25*
%TO.C,R_ge2*%
X62750000Y-76187500D03*
X62750000Y-73262500D03*
%TD*%
D20*
%TO.C,TP_REG1*%
X72250000Y-57000000D03*
%TD*%
%TO.C,TP_SDA1*%
X86250000Y-59000000D03*
%TD*%
D30*
%TO.C,BQ35100*%
X76336250Y-62271250D03*
X76336250Y-62921250D03*
X76336250Y-63571250D03*
X76336250Y-64221250D03*
X76336250Y-64871250D03*
X76336250Y-65521250D03*
X76336250Y-66171250D03*
X82076250Y-66171250D03*
X82076250Y-65521250D03*
X82076250Y-64871250D03*
X82076250Y-64221250D03*
X82076250Y-63571250D03*
X82076250Y-62921250D03*
X82076250Y-62271250D03*
%TD*%
D31*
%TO.C,R_SRP1*%
X91750000Y-71412500D03*
X91750000Y-69587500D03*
%TD*%
D23*
%TO.C,J2_male1*%
X52500000Y-62150000D03*
D24*
X52500000Y-64690000D03*
X52500000Y-67230000D03*
X52500000Y-69770000D03*
X52500000Y-72310000D03*
X52500000Y-74850000D03*
%TD*%
D23*
%TO.C,J1_female1*%
X105525000Y-63925000D03*
D24*
X105525000Y-66465000D03*
X105525000Y-69005000D03*
X105525000Y-71545000D03*
X105525000Y-74085000D03*
X105525000Y-76625000D03*
%TD*%
D31*
%TO.C,R_SCL_1*%
X90500000Y-65162500D03*
X90500000Y-63337500D03*
%TD*%
%TO.C,R_SDA_1*%
X91000000Y-57575000D03*
X91000000Y-55750000D03*
%TD*%
D27*
%TO.C,R_SDA_2*%
X93837500Y-61250000D03*
X95662500Y-61250000D03*
%TD*%
M02*
