M48
; DRILL file {KiCad (6.0.4-0)} date Wednesday, 27 August 2025 at 16:40:30
; FORMAT={-:-/ absolute / inch / decimal}
; #@! TF.CreationDate,2025-08-27T16:40:30+02:00
; #@! TF.GenerationSoftware,Kicad,Pcbnew,(6.0.4-0)
; #@! TF.FileFunction,Plated,1,2,PTH
FMAT,2
INCH
; #@! TA.AperFunction,Plated,PTH,ComponentDrill
T1C0.0315
; #@! TA.AperFunction,Plated,PTH,ComponentDrill
T2C0.0394
%
G90
G05
T1
X3.0217Y-2.2047
X3.1201Y-2.2047
T2
X2.0669Y-2.4469
X2.0669Y-2.5469
X2.0669Y-2.6469
X2.0669Y-2.7469
X2.0669Y-2.8469
X2.0669Y-2.9469
X2.25Y-2.4469
X2.25Y-2.5469
X2.25Y-2.6469
X2.25Y-2.7469
X2.25Y-2.8469
X2.25Y-2.9469
X2.7854Y-2.8829
X2.7854Y-2.9829
X3.9665Y-2.5157
X3.9665Y-2.6157
X3.9665Y-2.7157
X3.9665Y-2.8157
X3.9665Y-2.9157
X3.9665Y-3.0157
X4.1545Y-2.5167
X4.1545Y-2.6167
X4.1545Y-2.7167
X4.1545Y-2.8167
X4.1545Y-2.9167
X4.1545Y-3.0167
T0
M30
